<svg width="60" height="60" viewBox="0 0 60 60" fill="none" xmlns="http://www.w3.org/2000/svg">
<path d="M21.0211 28.977C18.7501 26.412 15.7221 25 12.4931 25C9.26408 25 6.23608 26.412 3.96608 28.977C-0.64592 34.188 -0.64592 42.665 3.96608 47.876L12.4931 57.509L21.0201 47.876C25.6331 42.665 25.6331 34.188 21.0211 28.977ZM19.5231 46.55L12.4941 54.491L5.46408 46.55C1.49808 42.071 1.49808 34.782 5.46408 30.303C7.34908 28.173 9.84608 27 12.4931 27C15.1401 27 17.6381 28.173 19.5221 30.303C23.4881 34.782 23.4881 42.07 19.5231 46.55Z" fill="#00BFF3"/>
<path d="M48.7485 24.507L55.2125 17.221C58.6905 13.301 58.6905 6.925 55.2125 3.005C53.4925 1.067 51.1965 0 48.7475 0C46.2995 0 44.0035 1.067 42.2835 3.005C38.8055 6.925 38.8055 13.301 42.2835 17.221L48.7485 24.507ZM43.7795 4.333C45.1145 2.828 46.8785 2 48.7475 2C50.6175 2 52.3815 2.828 53.7165 4.333C56.5445 7.52 56.5445 12.706 53.7165 15.893L48.7485 21.494L43.7795 15.893C40.9515 12.706 40.9515 7.52 43.7795 4.333Z" fill="#00BFF3"/>
<path d="M52.6026 54.5167C52.0636 54.3957 51.5286 54.7337 51.4076 55.2727C51.2926 55.7827 51.0696 56.2517 50.7446 56.6647C50.4036 57.0987 50.4776 57.7277 50.9126 58.0687C51.0966 58.2127 51.3136 58.2827 51.5296 58.2827C51.8266 58.2827 52.1196 58.1517 52.3166 57.9007C52.8206 57.2607 53.1806 56.5047 53.3586 55.7127C53.4796 55.1727 53.1416 54.6377 52.6026 54.5167Z" fill="#00BFF3"/>
<path d="M31.9952 31C31.5622 30.999 31.1412 30.922 30.7432 30.77C30.2312 30.575 29.6502 30.832 29.4522 31.348C29.2562 31.864 29.5152 32.442 30.0302 32.639C30.6562 32.877 31.3152 32.999 31.9932 33H32.3502C32.9032 33 33.3502 32.553 33.3502 32C33.3502 31.447 32.9032 31 32.3502 31H31.9952Z" fill="#00BFF3"/>
<path d="M29.6211 24.676C29.8021 24.676 29.9841 24.627 30.1491 24.525C30.5921 24.249 31.0821 24.08 31.6031 24.022C32.1521 23.961 32.5481 23.467 32.4881 22.918C32.4281 22.369 31.9371 21.977 31.3841 22.033C30.5621 22.124 29.7901 22.39 29.0901 22.827C28.6211 23.119 28.4791 23.736 28.7711 24.205C28.9611 24.509 29.2871 24.676 29.6211 24.676Z" fill="#00BFF3"/>
<path d="M18.0657 58H16.0657C15.5127 58 15.0657 58.447 15.0657 59C15.0657 59.553 15.5127 60 16.0657 60H18.0657C18.6187 60 19.0657 59.553 19.0657 59C19.0657 58.447 18.6177 58 18.0657 58Z" fill="#00BFF3"/>
<path d="M35.9914 40C35.9054 40 35.8204 40.002 35.7354 40.006C35.1834 40.028 34.7554 40.494 34.7774 41.046C34.7984 41.584 35.2424 42.005 35.7754 42.005C35.7894 42.005 35.8034 42.005 35.8174 42.004L37.7764 42C38.3294 42 38.7764 41.553 38.7764 41C38.7764 40.447 38.3294 40 37.7764 40H35.9914Z" fill="#00BFF3"/>
<path d="M35.4915 24H37.4915C38.0445 24 38.4915 23.553 38.4915 23C38.4915 22.447 38.0445 22 37.4915 22H35.4915C34.9385 22 34.4915 22.447 34.4915 23C34.4915 23.553 34.9385 24 35.4915 24Z" fill="#00BFF3"/>
<path d="M47.7766 40C47.2236 40 46.7766 40.447 46.7766 41C46.7766 41.553 47.2236 42 47.7766 42H49.7766C50.3296 42 50.7766 41.553 50.7766 41C50.7766 40.447 50.3296 40 49.7766 40H47.7766Z" fill="#00BFF3"/>
<path d="M51.3511 32C51.3511 31.447 50.9041 31 50.3511 31H48.3511C47.7981 31 47.3511 31.447 47.3511 32C47.3511 32.553 47.7981 33 48.3511 33H50.3511C50.9031 33 51.3511 32.553 51.3511 32Z" fill="#00BFF3"/>
<path d="M41.7766 42H43.7766C44.3296 42 44.7766 41.553 44.7766 41C44.7766 40.447 44.3296 40 43.7766 40H41.7766C41.2236 40 40.7766 40.447 40.7766 41C40.7766 41.553 41.2246 42 41.7766 42Z" fill="#00BFF3"/>
<path d="M43.4915 24C44.0445 24 44.4915 23.553 44.4915 23C44.4915 22.447 44.0445 22 43.4915 22H41.4915C40.9385 22 40.4915 22.447 40.4915 23C40.4915 23.553 40.9385 24 41.4915 24H43.4915Z" fill="#00BFF3"/>
<path d="M36.3511 31C35.7981 31 35.3511 31.447 35.3511 32C35.3511 32.553 35.7981 33 36.3511 33H38.3511C38.9041 33 39.3511 32.553 39.3511 32C39.3511 31.447 38.9041 31 38.3511 31H36.3511Z" fill="#00BFF3"/>
<path d="M45.3511 32C45.3511 31.447 44.9041 31 44.3511 31H42.3511C41.7981 31 41.3511 31.447 41.3511 32C41.3511 32.553 41.7981 33 42.3511 33H44.3511C44.9031 33 45.3511 32.553 45.3511 32Z" fill="#00BFF3"/>
<path d="M59.4273 35.6315C59.3393 35.0855 58.8243 34.7125 58.2813 34.8025C57.7353 34.8895 57.3643 35.4035 57.4523 35.9485C57.4803 36.1265 57.4963 36.3075 57.4943 36.5005C57.4943 36.8365 57.4463 37.1685 57.3523 37.4885C57.1973 38.0185 57.5003 38.5745 58.0313 38.7295C58.1253 38.7565 58.2193 38.7695 58.3123 38.7695C58.7453 38.7695 59.1443 38.4875 59.2723 38.0505C59.4193 37.5475 59.4943 37.0265 59.4943 36.5075C59.4963 36.2195 59.4743 35.9245 59.4273 35.6315Z" fill="#00BFF3"/>
<path d="M42.0657 58H40.0657C39.5127 58 39.0657 58.447 39.0657 59C39.0657 59.553 39.5127 60 40.0657 60H42.0657C42.6187 60 43.0657 59.553 43.0657 59C43.0657 58.447 42.6177 58 42.0657 58Z" fill="#00BFF3"/>
<path d="M36.0657 58H34.0657C33.5127 58 33.0657 58.447 33.0657 59C33.0657 59.553 33.5127 60 34.0657 60H36.0657C36.6187 60 37.0657 59.553 37.0657 59C37.0657 58.447 36.6177 58 36.0657 58Z" fill="#00BFF3"/>
<path d="M47.0652 50C47.0652 49.447 46.6182 49 46.0652 49H44.0652C43.5122 49 43.0652 49.447 43.0652 50C43.0652 50.553 43.5122 51 44.0652 51H46.0652C46.6172 51 47.0652 50.553 47.0652 50Z" fill="#00BFF3"/>
<path d="M41.0652 50C41.0652 49.447 40.6182 49 40.0652 49H38.0652C37.5122 49 37.0652 49.447 37.0652 50C37.0652 50.553 37.5122 51 38.0652 51H40.0652C40.6172 51 41.0652 50.553 41.0652 50Z" fill="#00BFF3"/>
<path d="M47.9918 58H46.0618C45.5088 58 45.0618 58.447 45.0618 59C45.0618 59.553 45.5088 60 46.0618 60L48.0328 59.999L48.0618 58.999V59.999C48.6148 59.999 49.0268 59.552 49.0268 58.999C49.0268 58.447 48.5448 58 47.9918 58Z" fill="#00BFF3"/>
<path d="M51.531 52.719C51.747 52.719 51.966 52.649 52.148 52.505C52.583 52.163 52.657 51.534 52.316 51.101C51.813 50.462 51.164 49.934 50.437 49.573C49.94 49.326 49.342 49.529 49.096 50.023C48.85 50.518 49.052 51.118 49.546 51.364C50.009 51.593 50.423 51.93 50.743 52.338C50.941 52.588 51.234 52.719 51.531 52.719Z" fill="#00BFF3"/>
<path d="M55.3436 39.7287C54.9146 39.9087 54.4606 39.9997 53.9916 39.9997H53.7766C53.2236 39.9997 52.7766 40.4467 52.7766 40.9997C52.7766 41.5527 53.2236 41.9997 53.7766 41.9997H53.9916C54.7276 41.9997 55.4426 41.8557 56.1166 41.5727C56.6266 41.3587 56.8656 40.7727 56.6516 40.2637C56.4386 39.7547 55.8486 39.5147 55.3436 39.7287Z" fill="#00BFF3"/>
<path d="M28.0275 29.8554C28.5515 29.6824 28.8375 29.1174 28.6655 28.5924C28.5505 28.2414 28.4915 27.8744 28.4915 27.5044C28.4925 27.3534 28.5015 27.2024 28.5195 27.0554C28.5885 26.5074 28.2005 26.0064 27.6525 25.9384C27.0875 25.8754 26.6035 26.2594 26.5355 26.8054C26.5075 27.0314 26.4925 27.2614 26.4915 27.4994C26.4915 28.0874 26.5835 28.6654 26.7645 29.2174C26.9035 29.6384 27.2945 29.9054 27.7145 29.9054C27.8185 29.9054 27.9245 29.8904 28.0275 29.8554Z" fill="#00BFF3"/>
<path d="M24.0657 58H22.0657C21.5127 58 21.0657 58.447 21.0657 59C21.0657 59.553 21.5127 60 22.0657 60H24.0657C24.6187 60 25.0657 59.553 25.0657 59C25.0657 58.447 24.6177 58 24.0657 58Z" fill="#00BFF3"/>
<path d="M34.1221 50.594C34.5021 50.594 34.8641 50.377 35.0321 50.01C35.2611 49.507 35.0411 48.914 34.5391 48.685C34.0701 48.47 33.6451 48.147 33.3111 47.749C32.9551 47.326 32.3251 47.271 31.9021 47.627C31.4791 47.982 31.4241 48.613 31.7801 49.036C32.3041 49.659 32.9701 50.167 33.7071 50.503C33.8421 50.564 33.9831 50.594 34.1221 50.594Z" fill="#00BFF3"/>
<path d="M56.7462 31.738C56.0322 31.324 55.2522 31.081 54.4292 31.016C53.8802 30.976 53.3972 31.383 53.3542 31.935C53.3112 32.486 53.7222 32.967 54.2732 33.01C54.7952 33.051 55.2902 33.205 55.7432 33.468C55.9012 33.56 56.0742 33.603 56.2442 33.603C56.5892 33.603 56.9252 33.424 57.1102 33.105C57.3872 32.628 57.2242 32.016 56.7462 31.738Z" fill="#00BFF3"/>
<path d="M30.0657 58H28.0657C27.5127 58 27.0657 58.447 27.0657 59C27.0657 59.553 27.5127 60 28.0657 60H30.0657C30.6187 60 31.0657 59.553 31.0657 59C31.0657 58.447 30.6177 58 30.0657 58Z" fill="#00BFF3"/>
<path d="M32.5566 44.839C32.6556 44.325 32.8636 43.85 33.1756 43.426C33.5026 42.982 33.4076 42.356 32.9626 42.028C32.5176 41.702 31.8926 41.796 31.5646 42.241C31.0756 42.907 30.7476 43.654 30.5916 44.463C30.4876 45.005 30.8426 45.529 31.3856 45.634C31.4486 45.646 31.5126 45.652 31.5746 45.652C32.0446 45.65 32.4636 45.317 32.5566 44.839Z" fill="#00BFF3"/>
<path d="M48.9915 15C52.0235 15 54.4915 12.532 54.4915 9.5C54.4915 6.468 52.0235 4 48.9915 4C45.9595 4 43.4915 6.468 43.4915 9.5C43.4915 12.532 45.9595 15 48.9915 15ZM48.9915 6C50.9215 6 52.4915 7.57 52.4915 9.5C52.4915 11.43 50.9215 13 48.9915 13C47.0615 13 45.4915 11.43 45.4915 9.5C45.4915 7.57 47.0625 6 48.9915 6Z" fill="#00BFF3"/>
<path d="M12.4915 31C9.18246 31 6.49146 33.691 6.49146 37C6.49146 40.309 9.18246 43 12.4915 43C15.8005 43 18.4915 40.309 18.4915 37C18.4915 33.691 15.8005 31 12.4915 31ZM12.4915 41C10.2855 41 8.49146 39.206 8.49146 37C8.49146 34.794 10.2855 33 12.4915 33C14.6975 33 16.4915 34.794 16.4915 37C16.4915 39.206 14.6975 41 12.4915 41Z" fill="#00BFF3"/>
</svg>
