<svg width="60" height="60" viewBox="0 0 60 60" fill="none" xmlns="http://www.w3.org/2000/svg">
<path d="M52.7173 12.1483L30.1667 0.13221C29.8321 -0.0463404 29.4312 -0.0438346 29.0991 0.138475L7.17248 12.1546C6.81288 12.352 6.58984 12.7291 6.58984 13.1395V28.8356C6.603 41.7382 14.2475 53.4111 26.0694 58.5803L29.1129 59.9065C29.3973 60.0306 29.7212 60.0312 30.0063 59.9078L33.4357 58.4268C45.4769 53.3697 53.3106 41.5841 53.3118 28.5243V13.1395C53.3118 12.7247 53.0832 12.3432 52.7173 12.1483ZM51.0665 28.5243C51.064 40.6839 43.7685 51.6556 32.5567 56.3612L32.5492 56.365L29.5627 57.6543L26.9678 56.5222C15.9634 51.7108 8.8471 40.8461 8.83457 28.8356V13.8042L29.646 2.39824L51.0665 13.8123V28.5243Z" fill="#00BFF3"/>
<path d="M21.3671 28.1072C20.9642 27.6354 20.2557 27.5797 19.7839 27.9825C19.3122 28.3847 19.2564 29.0939 19.6593 29.565L25.5896 36.5097C25.9856 36.9733 26.6791 37.0366 27.1515 36.6519L40.9631 25.4151C41.4443 25.0242 41.517 24.3169 41.1254 23.8357C40.7345 23.3552 40.0272 23.2819 39.546 23.6735L26.5851 34.2174L21.3671 28.1072Z" fill="#00BFF3"/>
</svg>
