<svg width="60" height="60" viewBox="0 0 60 60" fill="none" xmlns="http://www.w3.org/2000/svg">
<path d="M30 0C13.458 0 0 13.458 0 30C0 46.542 13.458 60 30 60C46.542 60 60 46.542 60 30C60 13.458 46.542 0 30 0ZM30 58C14.561 58 2 45.439 2 30C2 14.561 14.561 2 30 2C45.439 2 58 14.561 58 30C58 45.439 45.439 58 30 58Z" fill="#00BFF3"/>
<path d="M31 26.021V15.879C31 15.326 30.552 14.879 30 14.879C29.448 14.879 29 15.326 29 15.879V26.021C27.601 26.385 26.506 27.48 26.142 28.879H19C18.448 28.879 18 29.326 18 29.879C18 30.432 18.448 30.879 19 30.879H26.142C26.589 32.599 28.142 33.879 30 33.879C32.206 33.879 34 32.085 34 29.879C34 28.02 32.72 26.468 31 26.021ZM30 31.879C28.897 31.879 28 30.982 28 29.879C28 28.776 28.897 27.879 30 27.879C31.103 27.879 32 28.776 32 29.879C32 30.982 31.103 31.879 30 31.879Z" fill="#00BFF3"/>
<path d="M30 9.87891C30.552 9.87891 31 9.43191 31 8.87891V7.87891C31 7.32591 30.552 6.87891 30 6.87891C29.448 6.87891 29 7.32591 29 7.87891V8.87891C29 9.43191 29.448 9.87891 30 9.87891Z" fill="#00BFF3"/>
<path d="M30 49.879C29.448 49.879 29 50.326 29 50.879V51.879C29 52.432 29.448 52.879 30 52.879C30.552 52.879 31 52.432 31 51.879V50.879C31 50.326 30.552 49.879 30 49.879Z" fill="#00BFF3"/>
<path d="M52 28.879H51C50.448 28.879 50 29.326 50 29.879C50 30.432 50.448 30.879 51 30.879H52C52.552 30.879 53 30.432 53 29.879C53 29.326 52.552 28.879 52 28.879Z" fill="#00BFF3"/>
<path d="M9 28.879H8C7.448 28.879 7 29.326 7 29.879C7 30.432 7.448 30.879 8 30.879H9C9.552 30.879 10 30.432 10 29.879C10 29.326 9.552 28.879 9 28.879Z" fill="#00BFF3"/>
<path d="M44.8479 13.6151L44.1409 14.3221C43.7499 14.7131 43.7499 15.3451 44.1409 15.7361C44.3359 15.9311 44.5919 16.0291 44.8479 16.0291C45.1039 16.0291 45.3599 15.9311 45.5549 15.7361L46.2619 15.0291C46.6529 14.6381 46.6529 14.0061 46.2619 13.6151C45.8709 13.2241 45.2389 13.2251 44.8479 13.6151Z" fill="#00BFF3"/>
<path d="M14.4456 44.0214L13.7386 44.7284C13.3476 45.1194 13.3476 45.7514 13.7386 46.1424C13.9336 46.3374 14.1896 46.4354 14.4456 46.4354C14.7016 46.4354 14.9576 46.3374 15.1526 46.1424L15.8596 45.4354C16.2506 45.0444 16.2506 44.4124 15.8596 44.0214C15.4686 43.6304 14.8356 43.6314 14.4456 44.0214Z" fill="#00BFF3"/>
<path d="M45.5549 44.0218C45.1639 43.6308 44.5319 43.6308 44.1409 44.0218C43.7499 44.4128 43.7499 45.0448 44.1409 45.4358L44.8479 46.1428C45.0429 46.3378 45.2989 46.4358 45.5549 46.4358C45.8109 46.4358 46.0669 46.3378 46.2619 46.1428C46.6529 45.7518 46.6529 45.1198 46.2619 44.7288L45.5549 44.0218Z" fill="#00BFF3"/>
<path d="M15.1526 13.6155C14.7616 13.2245 14.1296 13.2245 13.7386 13.6155C13.3476 14.0065 13.3476 14.6385 13.7386 15.0295L14.4456 15.7365C14.6406 15.9315 14.8966 16.0295 15.1526 16.0295C15.4086 16.0295 15.6646 15.9315 15.8596 15.7365C16.2506 15.3455 16.2506 14.7135 15.8596 14.3225L15.1526 13.6155Z" fill="#00BFF3"/>
</svg>
