<svg width="50" height="50" viewBox="0 0 50 50" fill="none" xmlns="http://www.w3.org/2000/svg">
<g clip-path="url(#clip0)">
<path d="M10.9163 27.0433V44.1666C10.9163 45.1874 11.7411 46.0117 12.7613 46.0117C13.7798 46.0117 14.6064 45.1874 14.6064 44.1666V27.0433C14.6064 26.0245 13.7798 25.1982 12.7613 25.1982C11.7411 25.1982 10.9163 26.0236 10.9163 27.0433Z" fill="#00BFF3"/>
<path d="M5.12481 46.0325H9.18747V25.7027C9.1986 25.6053 9.21635 25.5081 9.21635 25.4082C9.21635 16.6374 16.2957 9.50277 24.9962 9.50277C33.6956 9.50277 40.775 16.6374 40.775 25.4082C40.775 25.5423 40.7946 25.6723 40.8146 25.8019V46.0325H44.8778C47.7057 46.0325 50.0002 43.6594 50.0002 40.7315V30.1297C50.0002 27.7152 48.4362 25.681 46.3011 25.0409C46.1047 13.3892 36.6263 3.96753 24.997 3.96753C13.3646 3.96753 3.88484 13.39 3.69033 25.0454C1.55818 25.6864 0 27.7189 0 30.1315V40.7315C0 43.6577 2.2943 46.0325 5.12481 46.0325Z" fill="#00BFF3"/>
<path d="M35.3975 27.0433V44.1666C35.3975 45.1874 36.2235 46.0117 37.2424 46.0117C38.2612 46.0117 39.0873 45.1874 39.0873 44.1666V27.0433C39.0873 26.0245 38.2612 25.1982 37.2424 25.1982C36.2216 25.1982 35.3975 26.0236 35.3975 27.0433Z" fill="#00BFF3"/>
</g>
<defs>
<clipPath id="clip0">
<rect width="50" height="50" fill="white"/>
</clipPath>
</defs>
</svg>
