<svg width="50" height="43" viewBox="0 0 50 43" fill="none" xmlns="http://www.w3.org/2000/svg">
<path d="M29.0276 15.9463C28.2185 15.9463 27.5627 15.2905 27.5627 14.4814V0.00390625H22.4373V14.4814C22.4373 15.2905 21.7815 15.9463 20.9724 15.9463H0V21.0717H20.9724C21.7815 21.0717 22.4373 21.7275 22.4373 22.5366V37.0103H27.5627V22.5366C27.5627 21.7275 28.2185 21.0717 29.0276 21.0717H50V15.9463H29.0276Z" fill="#00BFF3"/>
<path d="M30.4924 10.9452L41.314 0.123688C40.8028 0.0447235 40.279 0.00390625 39.7461 0.00390625H30.4924V10.9452Z" fill="#00BFF3"/>
<path d="M32.5637 13.0165H49.9999V10.2577C49.9999 6.29346 47.7386 2.84802 44.4385 1.14209L32.5637 13.0165Z" fill="#00BFF3"/>
<path d="M32.5581 24.0015L44.4058 35.8892C47.7238 34.1894 50 30.7336 50 26.7564V24.0015H32.5581Z" fill="#00BFF3"/>
<path d="M19.5076 10.9452V0.00390625H10.2539C9.72096 0.00390625 9.1972 0.0447235 8.68604 0.123688L19.5076 10.9452Z" fill="#00BFF3"/>
<path d="M30.4924 26.0789V37.0103H39.7461C40.2653 37.0103 40.7753 36.9713 41.2735 36.8966L30.4924 26.0789Z" fill="#00BFF3"/>
<path d="M17.4362 13.0165L5.56145 1.14209C2.26135 2.84764 0 6.29346 0 10.2577V13.0165H17.4362Z" fill="#00BFF3"/>
<path d="M17.4362 24.0015H0V26.7564C0 30.7218 2.2625 34.168 5.56412 35.8736L17.4362 24.0015Z" fill="#00BFF3"/>
<path d="M19.5076 26.0732L8.68945 36.8913C9.19948 36.9695 9.72209 37.0104 10.2539 37.0104H11.7755L15.3419 41.535C15.62 41.8875 16.0438 42.0931 16.4924 42.0931C16.941 42.0931 17.3652 41.8875 17.6429 41.535L19.5076 39.1695V26.0732Z" fill="#00BFF3"/>
</svg>
