<svg width="50" height="50" viewBox="0 0 50 50" fill="none" xmlns="http://www.w3.org/2000/svg">
<g clip-path="url(#clip0)">
<path d="M25.4648 19.873C25.4648 19.0655 24.8076 18.4082 24 18.4082C23.1924 18.4082 22.5352 19.0655 22.5352 19.873C22.5352 20.681 23.1924 21.3379 24 21.3379C24.8076 21.3379 25.4648 20.681 25.4648 19.873Z" fill="#00BFF3"/>
<path d="M24.0001 25.6733C21.675 25.6733 19.7673 27.4888 19.6162 29.776C20.9464 30.4078 22.4326 30.7618 24.0001 30.7618C25.5675 30.7618 27.0537 30.4078 28.3839 29.776C28.2328 27.4888 26.3251 25.6733 24.0001 25.6733Z" fill="#00BFF3"/>
<path d="M24 10.2539C18.3459 10.2539 13.7461 14.8537 13.7461 20.5078C13.7461 23.4489 14.9912 26.1047 16.9817 27.9762C17.618 25.8457 19.1988 24.1203 21.2366 23.2868C20.2425 22.4804 19.6055 21.2502 19.6055 19.873C19.6055 17.45 21.5769 15.4785 24 15.4785C26.4231 15.4785 28.3945 17.45 28.3945 19.873C28.3945 21.2502 27.7575 22.4804 26.7634 23.2868C28.8012 24.1203 30.382 25.8457 31.0183 27.9762C33.0088 26.1047 34.2539 23.4489 34.2539 20.5078C34.2539 14.8537 29.6541 10.2539 24 10.2539Z" fill="#00BFF3"/>
<path d="M24 0C12.6921 0 3.49219 9.19991 3.49219 20.5078C3.49219 29.6249 9.49995 37.6183 18.1837 40.1783L22.6897 49.1901C22.9376 49.6864 23.445 50 24 50C24.5547 50 25.062 49.6864 25.31 49.1901L29.8159 40.1787C38.5 37.6186 44.5078 29.6253 44.5078 20.5078C44.5078 9.19991 35.3079 0 24 0V0ZM24 33.6914C16.7307 33.6914 10.8164 27.7771 10.8164 20.5078C10.8164 13.2385 16.7307 7.32422 24 7.32422C31.2693 7.32422 37.1836 13.2385 37.1836 20.5078C37.1836 27.7771 31.2693 33.6914 24 33.6914Z" fill="#00BFF3"/>
</g>
<defs>
<clipPath id="clip0">
<rect width="50" height="50" fill="white"/>
</clipPath>
</defs>
</svg>
