<svg width="21" height="20" viewBox="0 0 21 20" fill="none" xmlns="http://www.w3.org/2000/svg">
<g clip-path="url(#clip0)">
<path d="M3.00408 20H17.1644C18.7821 20 20.0981 18.6858 20.0981 17.0703V2.92969C20.0981 1.31424 18.7821 0 17.1644 0H3.00408C1.38638 0 0.0703125 1.31424 0.0703125 2.92969V17.0703C0.0703125 18.6858 1.38638 20 3.00408 20ZM1.24382 2.92969C1.24382 1.96045 2.03349 1.17188 3.00408 1.17188H17.1644C18.135 1.17188 18.9246 1.96045 18.9246 2.92969V17.0703C18.9246 18.0396 18.135 18.8281 17.1644 18.8281H3.00408C2.03349 18.8281 1.24382 18.0396 1.24382 17.0703V2.92969Z" fill="white"/>
<path d="M10.0855 15.2734C12.9972 15.2734 15.3662 12.9077 15.3662 10C15.3662 7.09229 12.9972 4.72656 10.0855 4.72656C7.1737 4.72656 4.80469 7.09229 4.80469 10C4.80469 12.9077 7.1737 15.2734 10.0855 15.2734ZM10.0855 5.89844C12.3503 5.89844 14.1927 7.73834 14.1927 10C14.1927 12.2617 12.3503 14.1016 10.0855 14.1016C7.82066 14.1016 5.97819 12.2617 5.97819 10C5.97819 7.73834 7.82066 5.89844 10.0855 5.89844Z" fill="white"/>
<path d="M15.9517 5.89844C16.9223 5.89844 17.7119 5.10986 17.7119 4.14062C17.7119 3.17139 16.9223 2.38281 15.9517 2.38281C14.9811 2.38281 14.1914 3.17139 14.1914 4.14062C14.1914 5.10986 14.9811 5.89844 15.9517 5.89844ZM15.9517 3.55469C16.2751 3.55469 16.5384 3.8176 16.5384 4.14062C16.5384 4.46365 16.2751 4.72656 15.9517 4.72656C15.6282 4.72656 15.3649 4.46365 15.3649 4.14062C15.3649 3.8176 15.6282 3.55469 15.9517 3.55469Z" fill="white"/>
</g>
<defs>
<clipPath id="clip0">
<rect width="20.0278" height="20" fill="white" transform="translate(0.0703125)"/>
</clipPath>
</defs>
</svg>
