<svg width="141" height="28" viewBox="0 0 141 28" fill="none" xmlns="http://www.w3.org/2000/svg">
<path d="M51.1055 14.0195C51.1055 15.6914 50.8242 17.1523 50.2617 18.4023C49.6992 19.6445 48.9023 20.5938 47.8711 21.25C46.8398 21.9062 45.6367 22.2344 44.2617 22.2344C42.918 22.2344 41.7266 21.9062 40.6875 21.25C39.6484 20.5859 38.8398 19.6445 38.2617 18.4258C37.6914 17.1992 37.3984 15.7812 37.3828 14.1719V12.9414C37.3828 11.3008 37.668 9.85156 38.2383 8.59375C38.8086 7.33594 39.6133 6.375 40.6523 5.71094C41.6992 5.03906 42.8945 4.70312 44.2383 4.70312C45.6055 4.70312 46.8086 5.03516 47.8477 5.69922C48.8945 6.35547 49.6992 7.3125 50.2617 8.57031C50.8242 9.82031 51.1055 11.2773 51.1055 12.9414V14.0195ZM48.8672 12.918C48.8672 10.8945 48.4609 9.34375 47.6484 8.26562C46.8359 7.17969 45.6992 6.63672 44.2383 6.63672C42.8164 6.63672 41.6953 7.17969 40.875 8.26562C40.0625 9.34375 39.6445 10.8438 39.6211 12.7656V14.0195C39.6211 15.9805 40.0312 17.5234 40.8516 18.6484C41.6797 19.7656 42.8164 20.3242 44.2617 20.3242C45.7148 20.3242 46.8398 19.7969 47.6367 18.7422C48.4336 17.6797 48.8438 16.1602 48.8672 14.1836V12.918ZM64.8516 15.8008C64.8516 17.7305 64.4102 19.2852 63.5273 20.4648C62.6445 21.6445 61.4492 22.2344 59.9414 22.2344C58.4023 22.2344 57.1914 21.7461 56.3086 20.7695V26.875H54.1406V9.32031H56.1211L56.2266 10.7266C57.1094 9.63281 58.3359 9.08594 59.9062 9.08594C61.4297 9.08594 62.6328 9.66016 63.5156 10.8086C64.4062 11.957 64.8516 13.5547 64.8516 15.6016V15.8008ZM62.6836 15.5547C62.6836 14.125 62.3789 12.9961 61.7695 12.168C61.1602 11.3398 60.3242 10.9258 59.2617 10.9258C57.9492 10.9258 56.9648 11.5078 56.3086 12.6719V18.7305C56.957 19.8867 57.9492 20.4648 59.2852 20.4648C60.3242 20.4648 61.1484 20.0547 61.7578 19.2344C62.375 18.4062 62.6836 17.1797 62.6836 15.5547ZM72.8789 22.2344C71.1602 22.2344 69.7617 21.6719 68.6836 20.5469C67.6055 19.4141 67.0664 17.9023 67.0664 16.0117V15.6133C67.0664 14.3555 67.3047 13.2344 67.7812 12.25C68.2656 11.2578 68.9375 10.4844 69.7969 9.92969C70.6641 9.36719 71.6016 9.08594 72.6094 9.08594C74.2578 9.08594 75.5391 9.62891 76.4531 10.7148C77.3672 11.8008 77.8242 13.3555 77.8242 15.3789V16.2812H69.2344C69.2656 17.5312 69.6289 18.543 70.3242 19.3164C71.0273 20.082 71.918 20.4648 72.9961 20.4648C73.7617 20.4648 74.4102 20.3086 74.9414 19.9961C75.4727 19.6836 75.9375 19.2695 76.3359 18.7539L77.6602 19.7852C76.5977 21.418 75.0039 22.2344 72.8789 22.2344ZM72.6094 10.8672C71.7344 10.8672 71 11.1875 70.4062 11.8281C69.8125 12.4609 69.4453 13.3516 69.3047 14.5H75.6562V14.3359C75.5938 13.2344 75.2969 12.3828 74.7656 11.7812C74.2344 11.1719 73.5156 10.8672 72.6094 10.8672ZM82.3945 9.32031L82.4648 10.9141C83.4336 9.69531 84.6992 9.08594 86.2617 9.08594C88.9414 9.08594 90.293 10.5977 90.3164 13.6211V22H88.1484V13.6094C88.1406 12.6953 87.9297 12.0195 87.5156 11.582C87.1094 11.1445 86.4727 10.9258 85.6055 10.9258C84.9023 10.9258 84.2852 11.1133 83.7539 11.4883C83.2227 11.8633 82.8086 12.3555 82.5117 12.9648V22H80.3438V9.32031H82.3945ZM112.43 16.5859C112.219 18.3906 111.551 19.7852 110.426 20.7695C109.309 21.7461 107.82 22.2344 105.961 22.2344C103.945 22.2344 102.328 21.5117 101.109 20.0664C99.8984 18.6211 99.293 16.6875 99.293 14.2656V12.625C99.293 11.0391 99.5742 9.64453 100.137 8.44141C100.707 7.23828 101.512 6.31641 102.551 5.67578C103.59 5.02734 104.793 4.70312 106.16 4.70312C107.973 4.70312 109.426 5.21094 110.52 6.22656C111.613 7.23438 112.25 8.63281 112.43 10.4219H110.168C109.973 9.0625 109.547 8.07812 108.891 7.46875C108.242 6.85938 107.332 6.55469 106.16 6.55469C104.723 6.55469 103.594 7.08594 102.773 8.14844C101.961 9.21094 101.555 10.7227 101.555 12.6836V14.3359C101.555 16.1875 101.941 17.6602 102.715 18.7539C103.488 19.8477 104.57 20.3945 105.961 20.3945C107.211 20.3945 108.168 20.1133 108.832 19.5508C109.504 18.9805 109.949 17.9922 110.168 16.5859H112.43ZM123 22C122.875 21.75 122.773 21.3047 122.695 20.6641C121.688 21.7109 120.484 22.2344 119.086 22.2344C117.836 22.2344 116.809 21.8828 116.004 21.1797C115.207 20.4688 114.809 19.5703 114.809 18.4844C114.809 17.1641 115.309 16.1406 116.309 15.4141C117.316 14.6797 118.73 14.3125 120.551 14.3125H122.66V13.3164C122.66 12.5586 122.434 11.957 121.98 11.5117C121.527 11.0586 120.859 10.832 119.977 10.832C119.203 10.832 118.555 11.0273 118.031 11.418C117.508 11.8086 117.246 12.2812 117.246 12.8359H115.066C115.066 12.2031 115.289 11.5938 115.734 11.0078C116.188 10.4141 116.797 9.94531 117.562 9.60156C118.336 9.25781 119.184 9.08594 120.105 9.08594C121.566 9.08594 122.711 9.45312 123.539 10.1875C124.367 10.9141 124.797 11.918 124.828 13.1992V19.0352C124.828 20.1992 124.977 21.125 125.273 21.8125V22H123ZM119.402 20.3477C120.082 20.3477 120.727 20.1719 121.336 19.8203C121.945 19.4688 122.387 19.0117 122.66 18.4492V15.8477H120.961C118.305 15.8477 116.977 16.625 116.977 18.1797C116.977 18.8594 117.203 19.3906 117.656 19.7734C118.109 20.1562 118.691 20.3477 119.402 20.3477ZM138.961 15.8008C138.961 17.7383 138.516 19.2969 137.625 20.4766C136.734 21.6484 135.539 22.2344 134.039 22.2344C132.438 22.2344 131.199 21.668 130.324 20.5352L130.219 22H128.227V4H130.395V10.7148C131.27 9.62891 132.477 9.08594 134.016 9.08594C135.555 9.08594 136.762 9.66797 137.637 10.832C138.52 11.9961 138.961 13.5898 138.961 15.6133V15.8008ZM136.793 15.5547C136.793 14.0781 136.508 12.9375 135.938 12.1328C135.367 11.3281 134.547 10.9258 133.477 10.9258C132.047 10.9258 131.02 11.5898 130.395 12.918V18.4023C131.059 19.7305 132.094 20.3945 133.5 20.3945C134.539 20.3945 135.348 19.9922 135.926 19.1875C136.504 18.3828 136.793 17.1719 136.793 15.5547Z" fill="white"/>
<path d="M15.3457 24C15.3457 32.3117 23.5925 24 15.3457 24C15.3457 15.7532 36.6574 0 28.3457 0C20.0989 0 0.345703 0.688306 0.345703 9C0.345703 17.3117 7.03401 24 15.3457 24Z" fill="white"/>
<circle cx="14.5" cy="15.5" r="8.5" fill="#DBF7FF"/>
<path d="M13.9491 12.4319H11.4956V19.2368H10.4942V12.4319H8.04595V11.6036H13.9491V12.4319ZM20.5495 16.8147C20.4552 17.6221 20.1564 18.246 19.6531 18.6863C19.1533 19.1232 18.4875 19.3417 17.6556 19.3417C16.7539 19.3417 16.0304 19.0184 15.4852 18.3718C14.9435 17.7252 14.6726 16.8602 14.6726 15.7767V15.0427C14.6726 14.3332 14.7984 13.7094 15.0501 13.1711C15.3052 12.6329 15.6652 12.2205 16.13 11.9339C16.5949 11.6438 17.1331 11.4987 17.7448 11.4987C18.5556 11.4987 19.2057 11.7259 19.695 12.1803C20.1843 12.6311 20.4692 13.2568 20.5495 14.0571H19.5377C19.4503 13.449 19.2599 13.0086 18.9663 12.736C18.6762 12.4634 18.269 12.3271 17.7448 12.3271C17.1017 12.3271 16.5966 12.5647 16.2296 13.0401C15.8662 13.5154 15.6844 14.1917 15.6844 15.069V15.8082C15.6844 16.6365 15.8574 17.2953 16.2034 17.7846C16.5494 18.2739 17.0335 18.5186 17.6556 18.5186C18.2148 18.5186 18.643 18.3928 18.9401 18.1411C19.2406 17.886 19.4399 17.4438 19.5377 16.8147H20.5495Z" fill="white"/>
</svg>
