<svg width="18" height="30" viewBox="0 0 18 30" fill="none" xmlns="http://www.w3.org/2000/svg">
<path d="M11.5004 1.50024H6.50047C6.22449 1.50024 6.00049 1.72425 6.00049 2.00022C6.00049 2.2762 6.22449 2.5002 6.50047 2.5002H11.5004C11.7764 2.5002 12.0004 2.2762 12.0004 2.00022C12.0004 1.72425 11.7764 1.50024 11.5004 1.50024Z" fill="#00BFF3"/>
<path d="M14.999 1.50024H14.499C14.223 1.50024 13.999 1.72425 13.999 2.00022C13.999 2.2762 14.223 2.5002 14.499 2.5002H14.999C15.275 2.5002 15.499 2.2762 15.499 2.00022C15.499 1.72425 15.275 1.50024 14.999 1.50024Z" fill="#00BFF3"/>
<path d="M9.62096 25.5005H8.37947C7.61898 25.5005 7 26.1195 7 26.88V27.1215C7 27.882 7.61898 28.5005 8.379 28.5005H9.62049C10.381 28.5005 11 27.882 11 27.1215V26.88C11 26.1195 10.381 25.5005 9.62096 25.5005ZM10 27.1215C10 27.3305 9.83002 27.5005 9.62102 27.5005H8.37947C8.17 27.5005 7.99996 27.3305 7.99996 27.1215V26.88C7.99996 26.6705 8.16994 26.5004 8.37947 26.5004H9.62049C9.83002 26.5004 10 26.6704 10 26.88V27.1215Z" fill="#00BFF3"/>
<path d="M15.6925 0H2.30701C1.31051 0 0.499512 0.810996 0.499512 1.8075V28.1925C0.499512 29.189 1.31051 30 2.30701 30H15.692C16.6885 30 17.4995 29.189 17.4995 28.193V1.8075C17.4995 0.810996 16.6886 0 15.6925 0ZM16.4995 28.1925C16.4995 28.6375 16.1375 29 15.6925 29H2.30701C1.86152 29 1.49953 28.6375 1.49953 28.193V1.8075C1.49953 1.36248 1.86152 1.00002 2.30701 1.00002H15.692C16.1375 1.00002 16.4995 1.36254 16.4995 1.8075V28.1925H16.4995Z" fill="#00BFF3"/>
<path d="M17.0004 3.00047H1.00047C0.724492 3.00047 0.500488 3.22448 0.500488 3.50045V24.5005C0.500488 24.7764 0.724492 25.0004 1.00047 25.0004H17.0005C17.2765 25.0004 17.5005 24.7764 17.5005 24.5005V3.50045C17.5005 3.22448 17.2765 3.00047 17.0004 3.00047ZM16.5004 24.0005H1.50045V4.00049H16.5004V24.0005Z" fill="#00BFF3"/>
</svg>
