<svg width="22" height="30" viewBox="0 0 22 30" fill="none" xmlns="http://www.w3.org/2000/svg">
<path d="M11.0968 6.57422C8.9826 6.57422 7.26172 8.29509 7.26172 10.4093C7.26172 12.5236 8.9826 14.2445 11.0968 14.2445C13.2111 14.2445 14.932 12.5236 14.932 10.4093C14.932 8.29509 13.2111 6.57422 11.0968 6.57422ZM11.0968 13.1487C9.58635 13.1487 8.35747 11.9198 8.35747 10.4093C8.35747 8.89885 9.58635 7.66997 11.0968 7.66997C12.6073 7.66997 13.8362 8.89885 13.8362 10.4093C13.8362 11.9198 12.6073 13.1487 11.0968 13.1487Z" fill="#00BFF3"/>
<path d="M18.4282 3.07741C16.4438 1.09301 13.8053 0 10.999 0C8.19227 0 5.55425 1.09301 3.56985 3.07741C-0.10256 6.74927 -0.55894 13.658 2.58148 17.8437L10.999 30L19.404 17.8607C22.557 13.658 22.1006 6.74927 18.4282 3.07741ZM18.5153 17.2203L10.999 28.0748L3.47068 17.2033C0.622279 13.4054 1.03045 7.16621 4.34509 3.85211C6.1224 2.0748 8.48538 1.09575 10.999 1.09575C13.5127 1.09575 15.8757 2.0748 17.6535 3.85211C20.9682 7.16621 21.3763 13.4054 18.5153 17.2203Z" fill="#00BFF3"/>
</svg>
