<svg width="30" height="22" viewBox="0 0 30 22" fill="none" xmlns="http://www.w3.org/2000/svg">
<path d="M0 0.250328V1.39583V20.6048V21.7503H30V20.6048V1.39583V0.250328H0ZM18.3125 11.2823L15.5895 14.0183C15.2585 14.3258 14.7405 14.3253 14.4235 14.0313L11.687 11.2823L11.711 11.2588L1.8235 1.25033H28.183L18.2885 11.2593L18.3125 11.2823ZM10.262 11.2668L1 20.1778V1.96183L10.262 11.2668ZM10.967 11.9753L13.7285 14.7498C14.083 15.0803 14.538 15.2463 14.995 15.2463C15.4565 15.2463 15.92 15.0768 16.2855 14.7363L19.0335 11.9753L28.152 20.7503H1.843L10.967 11.9753ZM19.7385 11.2673L29 1.96133V20.1778L19.7385 11.2673Z" fill="#00BFF3"/>
</svg>
