<svg width="128" height="128" viewBox="0 0 128 128" fill="none" xmlns="http://www.w3.org/2000/svg">
<g clip-path="url(#clip0_2_837)">
<path d="M44.8457 61.8176C40.0009 56.3456 33.5412 53.3333 26.6527 53.3333C19.7641 53.3333 13.3044 56.3456 8.46172 61.8176C-1.37721 72.9344 -1.37721 91.0186 8.46172 102.135L26.6527 122.686L44.8436 102.135C54.6847 91.0186 54.6847 72.9344 44.8457 61.8176ZM41.65 99.3066L26.6548 116.247L11.6575 99.3066C3.19665 89.7514 3.19665 74.2016 11.6575 64.6464C15.6788 60.1024 21.0057 57.6 26.6527 57.6C32.2996 57.6 37.6287 60.1024 41.6479 64.6464C50.1087 74.2016 50.1087 89.7493 41.65 99.3066Z" fill="#00BFF3"/>
<path d="M103.998 52.2816L117.788 36.7381C125.208 28.3755 125.208 14.7733 117.788 6.41067C114.118 2.27627 109.22 0 103.996 0C98.7734 0 93.8752 2.27627 90.2059 6.41067C82.7862 14.7733 82.7862 28.3755 90.2059 36.7381L103.998 52.2816ZM93.3974 9.24373C96.2454 6.03307 100.009 4.26667 103.996 4.26667C107.985 4.26667 111.748 6.03307 114.596 9.24373C120.629 16.0427 120.629 27.1061 114.596 33.9051L103.998 45.8539L93.3974 33.9051C87.3643 27.1061 87.3643 16.0427 93.3974 9.24373Z" fill="#00BFF3"/>
<path d="M112.221 116.303C111.071 116.044 109.93 116.766 109.672 117.915C109.426 119.003 108.951 120.004 108.257 120.885C107.53 121.811 107.688 123.153 108.616 123.88C109.008 124.187 109.471 124.337 109.932 124.337C110.565 124.337 111.191 124.057 111.611 123.522C112.686 122.156 113.454 120.544 113.834 118.854C114.092 117.702 113.371 116.561 112.221 116.303Z" fill="#00BFF3"/>
<path d="M68.2561 66.1339C67.3324 66.1317 66.4343 65.9675 65.5852 65.6432C64.4929 65.2272 63.2535 65.7755 62.8311 66.8763C62.4129 67.9771 62.9655 69.2101 64.0641 69.6304C65.3996 70.1381 66.8055 70.3984 68.2519 70.4005H69.0135C70.1932 70.4005 71.1468 69.4469 71.1468 68.2672C71.1468 67.0875 70.1932 66.1339 69.0135 66.1339H68.2561Z" fill="#00BFF3"/>
<path d="M63.1921 52.641C63.5783 52.641 63.9665 52.5364 64.3185 52.3188C65.2636 51.73 66.3089 51.3695 67.4204 51.2458C68.5916 51.1156 69.4364 50.0618 69.3084 48.8906C69.1804 47.7194 68.1329 46.8831 66.9532 47.0026C65.1996 47.1967 63.5527 47.7642 62.0593 48.6964C61.0588 49.3194 60.7559 50.6356 61.3788 51.6362C61.7841 52.2847 62.4796 52.641 63.1921 52.641Z" fill="#00BFF3"/>
<path d="M38.5411 123.733H34.2744C33.0947 123.733 32.1411 124.687 32.1411 125.867C32.1411 127.046 33.0947 128 34.2744 128H38.5411C39.7208 128 40.6744 127.046 40.6744 125.867C40.6744 124.687 39.7187 123.733 38.5411 123.733Z" fill="#00BFF3"/>
<path d="M76.784 85.3333C76.6005 85.3333 76.4192 85.3376 76.2378 85.3461C75.0602 85.393 74.1472 86.3872 74.1941 87.5648C74.2389 88.7125 75.1861 89.6106 76.3232 89.6106C76.353 89.6106 76.3829 89.6106 76.4128 89.6085L80.592 89.6C81.7717 89.6 82.7253 88.6464 82.7253 87.4666C82.7253 86.2869 81.7717 85.3333 80.592 85.3333H76.784Z" fill="#00BFF3"/>
<path d="M75.7159 51.2003H79.9825C81.1623 51.2003 82.1159 50.2467 82.1159 49.0669C82.1159 47.8872 81.1623 46.9336 79.9825 46.9336H75.7159C74.5361 46.9336 73.5825 47.8872 73.5825 49.0669C73.5825 50.2467 74.5361 51.2003 75.7159 51.2003Z" fill="#00BFF3"/>
<path d="M101.927 85.333C100.747 85.333 99.7935 86.2866 99.7935 87.4663C99.7935 88.6461 100.747 89.5997 101.927 89.5997H106.193C107.373 89.5997 108.327 88.6461 108.327 87.4663C108.327 86.2866 107.373 85.333 106.193 85.333H101.927Z" fill="#00BFF3"/>
<path d="M109.549 68.2664C109.549 67.0867 108.595 66.1331 107.416 66.1331H103.149C101.969 66.1331 101.016 67.0867 101.016 68.2664C101.016 69.4461 101.969 70.3997 103.149 70.3997H107.416C108.593 70.3997 109.549 69.4461 109.549 68.2664Z" fill="#00BFF3"/>
<path d="M89.1253 89.6H93.3919C94.5717 89.6 95.5253 88.6464 95.5253 87.4666C95.5253 86.2869 94.5717 85.3333 93.3919 85.3333H89.1253C87.9455 85.3333 86.9919 86.2869 86.9919 87.4666C86.9919 88.6464 87.9477 89.6 89.1253 89.6Z" fill="#00BFF3"/>
<path d="M92.7838 51.2001C93.9635 51.2001 94.9171 50.2465 94.9171 49.0668C94.9171 47.8871 93.9635 46.9335 92.7838 46.9335H88.5171C87.3374 46.9335 86.3838 47.8871 86.3838 49.0668C86.3838 50.2465 87.3374 51.2001 88.5171 51.2001H92.7838Z" fill="#00BFF3"/>
<path d="M77.5479 66.1328C76.3681 66.1328 75.4146 67.0864 75.4146 68.2661C75.4146 69.4459 76.3681 70.3995 77.5479 70.3995H81.8145C82.9943 70.3995 83.9479 69.4459 83.9479 68.2661C83.9479 67.0864 82.9943 66.1328 81.8145 66.1328H77.5479Z" fill="#00BFF3"/>
<path d="M96.7492 68.2664C96.7492 67.0867 95.7956 66.1331 94.6158 66.1331H90.3492C89.1694 66.1331 88.2158 67.0867 88.2158 68.2664C88.2158 69.4461 89.1694 70.3997 90.3492 70.3997H94.6158C95.7934 70.3997 96.7492 69.4461 96.7492 68.2664Z" fill="#00BFF3"/>
<path d="M126.779 76.014C126.591 74.8492 125.492 74.0535 124.334 74.2455C123.169 74.4311 122.377 75.5276 122.565 76.6903C122.625 77.07 122.659 77.4562 122.655 77.8679C122.655 78.5847 122.552 79.293 122.352 79.9756C122.021 81.1063 122.668 82.2924 123.8 82.6231C124.001 82.6807 124.201 82.7084 124.4 82.7084C125.324 82.7084 126.175 82.1068 126.448 81.1746C126.761 80.1015 126.921 78.99 126.921 77.8828C126.926 77.2684 126.879 76.6391 126.779 76.014Z" fill="#00BFF3"/>
<path d="M89.7396 123.733H85.4729C84.2932 123.733 83.3396 124.687 83.3396 125.867C83.3396 127.046 84.2932 128 85.4729 128H89.7396C90.9193 128 91.8729 127.046 91.8729 125.867C91.8729 124.687 90.9172 123.733 89.7396 123.733Z" fill="#00BFF3"/>
<path d="M76.94 123.733H72.6734C71.4936 123.733 70.54 124.687 70.54 125.867C70.54 127.046 71.4936 128 72.6734 128H76.94C78.1198 128 79.0734 127.046 79.0734 125.867C79.0734 124.687 78.1176 123.733 76.94 123.733Z" fill="#00BFF3"/>
<path d="M100.409 106.667C100.409 105.487 99.4552 104.533 98.2755 104.533H94.0088C92.8291 104.533 91.8755 105.487 91.8755 106.667C91.8755 107.846 92.8291 108.8 94.0088 108.8H98.2755C99.4531 108.8 100.409 107.846 100.409 106.667Z" fill="#00BFF3"/>
<path d="M87.608 106.667C87.608 105.487 86.6544 104.533 85.4747 104.533H81.208C80.0283 104.533 79.0747 105.487 79.0747 106.667C79.0747 107.846 80.0283 108.8 81.208 108.8H85.4747C86.6523 108.8 87.608 107.846 87.608 106.667Z" fill="#00BFF3"/>
<path d="M102.384 123.733H98.2669C97.0871 123.733 96.1335 124.687 96.1335 125.867C96.1335 127.046 97.0871 128 98.2669 128L102.472 127.998L102.534 125.864V127.998C103.713 127.998 104.592 127.044 104.592 125.864C104.592 124.687 103.564 123.733 102.384 123.733Z" fill="#00BFF3"/>
<path d="M109.933 112.465C110.394 112.465 110.861 112.316 111.25 112.009C112.178 111.279 112.335 109.938 111.608 109.014C110.535 107.651 109.15 106.524 107.599 105.754C106.539 105.227 105.263 105.66 104.739 106.714C104.214 107.77 104.645 109.05 105.699 109.575C106.686 110.063 107.57 110.782 108.252 111.653C108.675 112.186 109.3 112.465 109.933 112.465Z" fill="#00BFF3"/>
<path d="M118.067 84.7549C117.151 85.1389 116.183 85.333 115.182 85.333H114.724C113.544 85.333 112.59 86.2866 112.59 87.4663C112.59 88.6461 113.544 89.5997 114.724 89.5997H115.182C116.752 89.5997 118.278 89.2925 119.716 88.6887C120.804 88.2322 121.314 86.9821 120.857 85.8962C120.403 84.8103 119.144 84.2983 118.067 84.7549Z" fill="#00BFF3"/>
<path d="M59.7936 63.6912C60.9115 63.3221 61.5216 62.1168 61.1547 60.9968C60.9094 60.248 60.7835 59.4651 60.7835 58.6757C60.7856 58.3536 60.8048 58.0315 60.8432 57.7179C60.9904 56.5488 60.1627 55.48 58.9936 55.3349C57.7883 55.2005 56.7558 56.0197 56.6107 57.1845C56.551 57.6667 56.519 58.1573 56.5168 58.6651C56.5168 59.9195 56.7131 61.1525 57.0992 62.3301C57.3958 63.2283 58.2299 63.7979 59.1259 63.7979C59.3478 63.7979 59.5739 63.7659 59.7936 63.6912Z" fill="#00BFF3"/>
<path d="M51.3419 123.733H47.0752C45.8955 123.733 44.9419 124.687 44.9419 125.867C44.9419 127.046 45.8955 128 47.0752 128H51.3419C52.5216 128 53.4752 127.046 53.4752 125.867C53.4752 124.687 52.5195 123.733 51.3419 123.733Z" fill="#00BFF3"/>
<path d="M72.7952 107.935C73.6059 107.935 74.3781 107.472 74.7365 106.689C75.2251 105.616 74.7557 104.351 73.6848 103.862C72.6843 103.404 71.7776 102.714 71.0651 101.865C70.3056 100.963 68.9616 100.846 68.0592 101.605C67.1568 102.362 67.0395 103.709 67.7989 104.611C68.9168 105.94 70.3376 107.024 71.9099 107.741C72.1979 107.871 72.4987 107.935 72.7952 107.935Z" fill="#00BFF3"/>
<path d="M121.06 67.708C119.536 66.8248 117.872 66.3064 116.117 66.1677C114.945 66.0824 113.915 66.9506 113.823 68.1282C113.732 69.3037 114.608 70.3298 115.784 70.4216C116.897 70.509 117.953 70.8376 118.92 71.3986C119.257 71.5949 119.626 71.6866 119.989 71.6866C120.725 71.6866 121.441 71.3048 121.836 70.6242C122.427 69.6066 122.079 68.301 121.06 67.708Z" fill="#00BFF3"/>
<path d="M64.1388 123.733H59.8721C58.6924 123.733 57.7388 124.687 57.7388 125.867C57.7388 127.046 58.6924 128 59.8721 128H64.1388C65.3185 128 66.2721 127.046 66.2721 125.867C66.2721 124.687 65.3164 123.733 64.1388 123.733Z" fill="#00BFF3"/>
<path d="M69.4535 95.6563C69.6647 94.5598 70.1084 93.5464 70.774 92.6419C71.4716 91.6947 71.2689 90.3592 70.3196 89.6595C69.3703 88.964 68.037 89.1646 67.3372 90.1139C66.294 91.5347 65.5943 93.1283 65.2615 94.8542C65.0396 96.0104 65.797 97.1283 66.9554 97.3523C67.0898 97.3779 67.2263 97.3907 67.3586 97.3907C68.3612 97.3864 69.2551 96.676 69.4535 95.6563Z" fill="#00BFF3"/>
<path d="M104.515 31.9999C110.983 31.9999 116.248 26.7348 116.248 20.2665C116.248 13.7983 110.983 8.5332 104.515 8.5332C98.0468 8.5332 92.7817 13.7983 92.7817 20.2665C92.7817 26.7348 98.0468 31.9999 104.515 31.9999ZM104.515 12.7999C108.632 12.7999 111.982 16.1492 111.982 20.2665C111.982 24.3839 108.632 27.7332 104.515 27.7332C100.398 27.7332 97.0484 24.3839 97.0484 20.2665C97.0484 16.1492 100.4 12.7999 104.515 12.7999Z" fill="#00BFF3"/>
<path d="M26.6521 66.1328C19.5929 66.1328 13.8521 71.8736 13.8521 78.9328C13.8521 85.992 19.5929 91.7328 26.6521 91.7328C33.7113 91.7328 39.4521 85.992 39.4521 78.9328C39.4521 71.8736 33.7113 66.1328 26.6521 66.1328ZM26.6521 87.4661C21.9459 87.4661 18.1187 83.6389 18.1187 78.9328C18.1187 74.2267 21.9459 70.3995 26.6521 70.3995C31.3582 70.3995 35.1854 74.2267 35.1854 78.9328C35.1854 83.6389 31.3582 87.4661 26.6521 87.4661Z" fill="#00BFF3"/>
</g>
<defs>
<clipPath id="clip0_2_837">
<rect width="128" height="128" fill="white"/>
</clipPath>
</defs>
</svg>
