<svg width="41" height="41" viewBox="0 0 41 41" fill="none" xmlns="http://www.w3.org/2000/svg">
<path fill-rule="evenodd" clip-rule="evenodd" d="M20.4436 0.110283C9.20954 0.110283 0.102285 9.13321 0.102285 20.2629C0.102285 31.3934 9.20954 40.4155 20.4436 40.4155C31.6774 40.4155 40.7846 31.3934 40.7846 20.2629C40.7846 9.13321 31.6774 0.110283 20.4436 0.110283ZM20.4436 40.5173C14.9833 40.5173 9.84902 38.4109 5.98755 34.5848C2.12685 30.7602 0 25.6735 0 20.2629C0 14.8535 2.12646 9.76677 5.98755 5.94105C9.84902 2.1161 14.9833 0.00894165 20.4436 0.00894165C25.9036 0.00894165 31.0379 2.11571 34.8994 5.94105C38.7601 9.76677 40.8873 14.8535 40.8873 20.2629C40.8873 25.6735 38.7604 30.7602 34.8994 34.5848C31.0379 38.4105 25.9036 40.5173 20.4436 40.5173ZM20.4436 37.9823C25.2211 37.9823 29.712 36.1388 33.0901 32.7923C36.4686 29.4459 38.3286 24.9961 38.3286 20.2629C38.3286 15.5309 36.4686 11.0807 33.0901 7.73352C29.7116 4.38745 25.2211 2.54393 20.4436 2.54393C15.667 2.54393 11.1753 4.38745 7.79716 7.73352C4.41943 11.0811 2.55868 15.5309 2.55868 20.2629C2.55868 24.9961 4.41943 29.4462 7.79716 32.7923C11.1757 36.1388 15.667 37.9823 20.4436 37.9823ZM38.4344 20.2629C38.4344 30.1065 30.3792 38.0863 20.4436 38.0863C10.5077 38.0863 2.4537 30.1065 2.4537 20.2629C2.4537 10.4194 10.5077 2.43954 20.4436 2.43954C30.3792 2.43954 38.4344 10.4194 38.4344 20.2629Z" fill="white"/>
<path fill-rule="evenodd" clip-rule="evenodd" d="M0.0561523 20.2032C0.0561523 31.3584 9.18379 40.4019 20.4437 40.4019C31.7031 40.4019 40.8312 31.3584 40.8312 20.2032C40.8312 9.04796 31.7031 0.00445557 20.4437 0.00445557C9.18379 0.00445557 0.0561523 9.04796 0.0561523 20.2032ZM2.50254 20.2032C2.50254 10.3867 10.5354 2.42857 20.4437 2.42857C30.3523 2.42857 38.3844 10.3871 38.3844 20.2032C38.3844 30.0201 30.3519 37.9778 20.4437 37.9778C10.535 37.9778 2.50254 30.0197 2.50254 20.2032Z" fill="white"/>
<path fill-rule="evenodd" clip-rule="evenodd" d="M0.0561523 20.2032C0.0561523 31.3584 9.18379 40.4019 20.4437 40.4019C31.7031 40.4019 40.8312 31.3584 40.8312 20.2032C40.8312 9.04796 31.7031 0.00445557 20.4437 0.00445557C9.18379 0.00445557 0.0561523 9.04796 0.0561523 20.2032ZM1.27935 20.2032C1.27935 9.71732 9.85941 1.2167 20.4437 1.2167C31.0279 1.2167 39.6076 9.71732 39.6076 20.2032C39.6076 30.689 31.0279 39.1897 20.4437 39.1897C9.85941 39.1897 1.27935 30.689 1.27935 20.2032Z" fill="white"/>
<path fill-rule="evenodd" clip-rule="evenodd" d="M2.31799 21.0787C1.71448 30.79 10.8965 39.0343 20.4418 39.0343V37.9737C10.5337 37.9737 2.50139 30.0161 2.50139 20.1998C2.50139 19.0811 2.6066 17.9866 2.80585 16.925C2.48698 18.2579 2.40699 19.6511 2.31799 21.0787Z" fill="white"/>
<path fill-rule="evenodd" clip-rule="evenodd" d="M6.98094 6.9621C3.53515 10.3897 1.40407 15.1157 1.40407 20.3125C1.40407 25.5093 3.53515 30.2136 6.98094 33.6191C10.4263 37.0249 15.1849 39.1313 20.4434 39.1313C25.7007 39.1313 30.4593 37.0249 33.9047 33.6191C37.3505 30.2136 39.4816 25.5093 39.4816 20.3125C39.4816 15.1157 37.3505 10.3897 33.9047 6.9621C30.4593 3.53488 25.7003 1.40792 20.4434 1.40792C15.1857 1.40792 10.4263 3.53488 6.98094 6.9621ZM1.15259 20.3125C1.15259 9.78129 9.78841 1.15876 20.4434 1.15876C31.0972 1.15876 39.7331 9.78129 39.7331 20.3125C39.7331 30.8441 31.0965 39.3805 20.4434 39.3805C9.78918 39.3805 1.15259 30.8437 1.15259 20.3125ZM6.98094 6.82571C3.53515 10.2529 1.40407 14.9789 1.40407 20.1761C1.40407 25.3729 3.53515 30.0768 6.98094 33.4827C10.4263 36.8882 15.1849 38.9949 20.4434 38.9949C25.7007 38.9949 30.4593 36.8886 33.9047 33.4827C37.3505 30.0768 39.4816 25.3729 39.4816 20.1761C39.4816 14.9793 37.3505 10.2529 33.9047 6.82571C30.4593 3.39811 25.7003 1.27153 20.4434 1.27153C15.1857 1.27153 10.4263 3.39849 6.98094 6.82571ZM1.15259 20.1761C1.15259 9.6449 9.78841 1.02237 20.4434 1.02237C31.0972 1.02237 39.7331 9.6449 39.7331 20.1761C39.7331 30.7073 31.0965 39.2449 20.4434 39.2449C9.78918 39.2449 1.15259 30.7073 1.15259 20.1761Z" fill="white"/>
<path fill-rule="evenodd" clip-rule="evenodd" d="M6.99384 6.90605C3.55113 10.3298 1.42313 15.0516 1.42197 20.2435C1.42313 25.4354 3.55113 30.135 6.99384 33.5382C10.4358 36.9407 15.1898 39.0448 20.4436 39.0448C25.6963 39.0448 30.4507 36.9407 33.893 33.5382C37.335 30.1346 39.4633 25.4354 39.4633 20.2435C39.4633 15.0516 37.335 10.3298 33.8922 6.90605C30.4495 3.48188 25.6952 1.35758 20.4436 1.35644C15.1909 1.35758 10.4362 3.48188 6.99384 6.90605ZM1.1355 20.2435C1.1355 9.702 9.77862 1.07223 20.4436 1.07147C31.1078 1.07223 39.751 9.702 39.751 20.2435C39.751 30.785 31.1059 39.3298 20.4436 39.3298C9.78016 39.3298 1.1355 30.785 1.1355 20.2435Z" fill="white"/>
<path fill-rule="evenodd" clip-rule="evenodd" d="M0.0551758 20.1977C0.0551758 31.3524 9.18246 40.3955 20.4417 40.3955C31.7005 40.3955 40.8282 31.3524 40.8282 20.1977C40.8282 9.04313 31.7005 0 20.4417 0C9.18246 0 0.0551758 9.04313 0.0551758 20.1977ZM0.175158 20.1977C0.175158 9.10917 9.24912 0.119228 20.4417 0.119228C31.6342 0.119228 40.7078 9.10917 40.7078 20.1977C40.7078 31.2874 31.6342 40.2763 20.4417 40.2763C9.24912 40.2763 0.175158 31.2874 0.175158 20.1977Z" fill="white"/>
<path fill-rule="evenodd" clip-rule="evenodd" d="M2.38232 20.1995C2.38232 30.0808 10.4672 38.0909 20.4412 38.0909C30.4149 38.0909 38.4998 30.0808 38.4998 20.1995C38.4998 10.3182 30.4149 2.30817 20.4412 2.30817C10.4672 2.30817 2.38232 10.3182 2.38232 20.1995ZM2.50086 20.1995C2.50086 10.3835 10.5332 2.42561 20.4412 2.42561C30.3493 2.42561 38.3813 10.3835 38.3813 20.1995C38.3813 30.0158 30.3493 37.9734 20.4412 37.9734C10.5332 37.9734 2.50086 30.0158 2.50086 20.1995Z" fill="white"/>
<path fill-rule="evenodd" clip-rule="evenodd" d="M20.4436 1.81705V20.4085L23.4895 18.6667L21.1777 2.43879C21.1777 2.43879 20.9493 2.07496 20.4436 1.81705ZM20.4436 1.81705L20.4451 20.4031C20.4648 20.3902 23.4703 18.6484 23.4641 18.5684C23.4641 18.5623 21.1731 2.43803 21.1723 2.4365C21.1723 2.4346 20.9439 2.07268 20.4436 1.81705Z" fill="white"/>
<path fill-rule="evenodd" clip-rule="evenodd" d="M20.4436 1.81705L20.4463 20.3986C20.4836 20.3715 23.4518 18.6297 23.4391 18.4701C23.4372 18.4564 21.1673 2.43765 21.1673 2.4346C21.1665 2.43193 20.9389 2.06925 20.4436 1.81705Z" fill="white"/>
<path fill-rule="evenodd" clip-rule="evenodd" d="M20.4437 1.81705L20.4468 20.3928C20.5037 20.3532 23.4323 18.6114 23.4135 18.3714C23.4116 18.3508 21.1624 2.43765 21.1617 2.43307C21.1605 2.42736 20.9333 2.06735 20.4434 1.81705H20.4437Z" fill="white"/>
<path fill-rule="evenodd" clip-rule="evenodd" d="M20.4437 1.81705L20.4484 20.3871C20.5237 20.3349 23.4135 18.5924 23.3877 18.2731C23.3858 18.2453 21.1567 2.43803 21.1559 2.43079C21.1551 2.42431 20.9275 2.0643 20.4434 1.81705H20.4437Z" fill="white"/>
<path fill-rule="evenodd" clip-rule="evenodd" d="M20.4436 1.81705L20.449 20.3818C20.5436 20.3159 23.3937 18.5733 23.363 18.1744C23.3599 18.1405 21.1519 2.43765 21.1511 2.42927C21.1492 2.4205 20.9208 2.06087 20.4436 1.81705Z" fill="white"/>
<path fill-rule="evenodd" clip-rule="evenodd" d="M20.4436 1.81705L20.4501 20.3761C20.5636 20.2976 23.3757 18.555 23.3372 18.0754C23.3345 18.035 21.1477 2.43803 21.1458 2.42774C21.1442 2.41746 20.9158 2.05858 20.444 1.81742L20.4436 1.81705Z" fill="white"/>
<path fill-rule="evenodd" clip-rule="evenodd" d="M20.4436 1.81705L20.4517 20.3715C20.584 20.2793 23.3564 18.536 23.3114 17.9771C23.3084 17.9291 21.1415 2.43727 21.1396 2.42546C21.1381 2.41327 20.9097 2.05515 20.4436 1.81705ZM20.4436 1.81705L20.4521 20.3658C20.6036 20.2606 23.3368 18.5169 23.2864 17.8788C23.2826 17.8251 21.1369 2.43726 21.135 2.42393C21.1327 2.41021 20.905 2.05325 20.4436 1.81742V1.81705Z" fill="white"/>
<path fill-rule="evenodd" clip-rule="evenodd" d="M20.4437 1.81705L20.4534 20.3605C20.6237 20.242 23.3185 18.4986 23.2608 17.7801C23.2562 17.7192 21.1317 2.43727 21.1294 2.42203C21.1267 2.40603 20.899 2.04982 20.4434 1.81705H20.4437Z" fill="white"/>
<path fill-rule="evenodd" clip-rule="evenodd" d="M20.4436 1.82192L20.4548 20.3596C20.6439 20.2278 23.2995 18.4845 23.2353 17.6863C23.2307 17.6181 21.1261 2.44175 21.1238 2.42499C21.1211 2.40747 20.8939 2.05202 20.4436 1.82153V1.82192Z" fill="white"/>
<path fill-rule="evenodd" clip-rule="evenodd" d="M20.4436 1.81705L20.4555 20.3502C20.6639 20.205 23.2803 18.4613 23.2107 17.5836C23.2053 17.5077 21.1215 2.43726 21.1192 2.41822C21.1161 2.39993 20.8881 2.04411 20.4436 1.81705Z" fill="white"/>
<path fill-rule="evenodd" clip-rule="evenodd" d="M20.4436 1.81705L20.4574 20.3444C20.6839 20.1867 23.2611 18.4423 23.1849 17.4849C23.1784 17.403 21.1165 2.43651 21.1135 2.41631C21.1104 2.39574 20.8827 2.04068 20.4436 1.81705Z" fill="white"/>
<path fill-rule="evenodd" clip-rule="evenodd" d="M20.4437 1.81705L20.458 20.3391C20.7041 20.1673 23.242 18.4232 23.1601 17.3858C23.1528 17.2978 21.1109 2.4365 21.1082 2.41517C21.1051 2.39307 20.8771 2.03877 20.4437 1.81705ZM20.4437 1.81705L20.4587 20.3334C20.7241 20.149 23.2235 18.4049 23.1343 17.2872C23.127 17.1919 21.1059 2.4365 21.1021 2.4125C21.099 2.3885 20.8713 2.03534 20.4434 1.81705H20.4437Z" fill="white"/>
<path fill-rule="evenodd" clip-rule="evenodd" d="M20.4437 1.81705L20.4607 20.3281C20.7441 20.1311 23.2043 18.3859 23.1089 17.1889C23.1005 17.0875 21.1005 2.43689 21.0974 2.41136C21.0936 2.38584 20.8656 2.03344 20.4434 1.81742L20.4437 1.81705Z" fill="white"/>
<path fill-rule="evenodd" clip-rule="evenodd" d="M20.4436 1.82192L20.4613 20.3276C20.7639 20.1166 23.1849 18.3717 23.0842 17.0951C23.0753 16.9861 21.0958 2.441 21.0919 2.41395C21.0881 2.38614 20.8612 2.0345 20.4436 1.82153V1.82192Z" fill="white"/>
<path fill-rule="evenodd" clip-rule="evenodd" d="M20.4436 1.82192L20.4621 20.3223C20.7843 20.0983 23.1665 18.353 23.058 16.9964C23.0496 16.881 21.0904 2.44099 21.0862 2.41166C21.0835 2.3827 20.8547 2.03221 20.4436 1.82153V1.82192Z" fill="white"/>
<path fill-rule="evenodd" clip-rule="evenodd" d="M20.4436 1.81705L20.4636 20.3117C20.8043 20.0751 23.1472 18.3295 23.0338 16.8932C23.0234 16.7709 21.0854 2.4365 21.0815 2.40526C21.0777 2.37402 20.8493 2.0243 20.4436 1.81705Z" fill="white"/>
<path fill-rule="evenodd" clip-rule="evenodd" d="M20.4436 1.82192L20.4644 20.3112C20.8239 20.0609 23.128 18.3161 23.0077 16.7994C22.9973 16.6703 21.0808 2.44023 21.0762 2.40861C21.0723 2.37585 20.8439 2.02573 20.4436 1.82153V1.82192Z" fill="white"/>
<path fill-rule="evenodd" clip-rule="evenodd" d="M20.4436 1.81705L20.4651 20.3014C20.8435 20.0378 23.1088 18.2922 22.9819 16.6963C22.9715 16.5599 21.0746 2.43574 21.0708 2.40222C21.0654 2.36831 20.8377 2.01896 20.4436 1.81705Z" fill="white"/>
<path fill-rule="evenodd" clip-rule="evenodd" d="M20.4436 1.81705L20.4667 20.2961C20.8635 20.0191 23.0907 18.2739 22.9565 16.598C22.9454 16.4547 21.0704 2.43574 21.0654 2.39993C21.0596 2.36374 20.8324 2.01553 20.4436 1.81705Z" fill="white"/>
<path fill-rule="evenodd" clip-rule="evenodd" d="M20.4436 1.81705L20.4678 20.2904C20.8835 20.0004 23.0711 18.2548 22.9319 16.4989C22.92 16.3496 21.0658 2.43575 21.06 2.39841C21.0546 2.36146 20.8278 2.01325 20.444 1.81705H20.4436Z" fill="white"/>
<path fill-rule="evenodd" clip-rule="evenodd" d="M20.4436 1.81705C20.4436 1.84562 20.4694 20.285 20.4694 20.285C20.9035 19.9822 23.0523 18.2358 22.9061 16.4003C22.8942 16.2441 21.06 2.43574 21.0546 2.39574C21.0489 2.35688 20.8224 2.0102 20.444 1.81705H20.4436Z" fill="white"/>
<path fill-rule="evenodd" clip-rule="evenodd" d="M20.4436 1.81705L20.4698 20.2793C20.9243 19.9635 23.0334 18.2175 22.8804 16.3016C22.8681 16.1389 21.055 2.43536 21.0492 2.39422C21.0439 2.35384 20.8162 2.00677 20.4436 1.81705Z" fill="white"/>
<path fill-rule="evenodd" clip-rule="evenodd" d="M20.4436 1.81705C20.4436 1.84486 20.4709 20.2747 20.4709 20.2747C20.9435 19.9452 23.0134 18.1984 22.8554 16.2033C22.8415 16.0334 21.0492 2.4346 21.0439 2.39307C21.0381 2.35002 20.8104 2.00448 20.4436 1.81742V1.81705Z" fill="white"/>
<path fill-rule="evenodd" clip-rule="evenodd" d="M20.4436 1.81705C20.4436 1.8441 20.4724 20.269 20.4724 20.269C20.9635 19.9269 22.995 18.1794 22.83 16.105C22.8162 15.9279 21.0446 2.4346 21.0381 2.39117C21.0327 2.34697 20.8051 2.00144 20.4436 1.81705Z" fill="white"/>
<path fill-rule="evenodd" clip-rule="evenodd" d="M20.4436 1.81705C20.4436 1.8441 20.4732 20.2633 20.4732 20.2633C20.9839 19.9086 22.9757 18.1615 22.8054 16.0059C22.7904 15.8223 21.0396 2.4346 21.0339 2.3885C21.0273 2.34355 20.7997 1.99877 20.444 1.81705H20.4436Z" fill="white"/>
<path fill-rule="evenodd" clip-rule="evenodd" d="M20.4436 1.81705C20.4436 1.84333 20.474 20.258 20.474 20.258C21.0035 19.8896 22.9565 18.1421 22.7796 15.9073C22.7643 15.7172 21.0342 2.4346 21.0277 2.38698C21.0212 2.33935 20.7939 1.99572 20.4436 1.81705Z" fill="white"/>
<path fill-rule="evenodd" clip-rule="evenodd" d="M20.4436 1.81705C20.4436 1.84333 20.4755 20.2523 20.4755 20.2523C21.0235 19.8713 22.9381 18.1238 22.7539 15.809C22.7385 15.6124 21.0292 2.43498 21.0223 2.38584C21.0158 2.33669 20.7881 1.99344 20.4436 1.81705Z" fill="white"/>
<path fill-rule="evenodd" clip-rule="evenodd" d="M20.4437 1.81705C20.4437 1.84257 20.4764 20.2477 20.4764 20.2477C21.044 19.8526 22.919 18.1051 22.729 15.7103C22.7121 15.5065 21.0236 2.4346 21.0171 2.38317C21.0098 2.3325 20.7825 1.99001 20.4434 1.81705H20.4437Z" fill="white"/>
<path fill-rule="evenodd" clip-rule="evenodd" d="M20.4436 1.81705C20.4436 1.84257 20.4771 20.242 20.4771 20.242C21.0639 19.834 22.8996 18.0868 22.7031 15.612C22.6866 15.4017 21.0189 2.43384 21.0119 2.38126C21.0046 2.32907 20.777 1.98734 20.4436 1.81705ZM20.4436 1.81705C20.4436 1.84181 20.479 20.2366 20.479 20.2366C21.0838 19.8157 22.8804 18.0678 22.6785 15.5137C22.6608 15.2962 21.0142 2.43422 21.0062 2.38012C20.9989 2.32564 20.7716 1.98467 20.4436 1.81705Z" fill="white"/>
<path fill-rule="evenodd" clip-rule="evenodd" d="M20.4436 1.81705C20.4436 1.84181 20.4798 20.2309 20.4798 20.2309C21.1038 19.797 22.8623 18.0487 22.6527 15.4151C22.6351 15.1907 21.0085 2.43384 21.0016 2.37745C20.9935 2.32221 20.7658 1.98163 20.4436 1.81705Z" fill="white"/>
<path fill-rule="evenodd" clip-rule="evenodd" d="M20.4436 1.81705C20.4436 1.84105 20.4805 20.2256 20.4805 20.2256C21.1242 19.7787 22.8427 18.0304 22.6274 15.3172C22.6089 15.0863 21.0039 2.43422 20.9958 2.37631C20.9877 2.31802 20.7601 1.97934 20.4436 1.81742V1.81705Z" fill="white"/>
<path fill-rule="evenodd" clip-rule="evenodd" d="M20.4436 1.81705C20.4436 1.84105 20.4821 20.2199 20.4821 20.2199C21.1438 19.7604 22.8235 18.0114 22.6024 15.2177C22.5832 14.9804 20.9989 2.43384 20.9904 2.37441C20.9819 2.31498 20.7555 1.97591 20.444 1.81705H20.4436Z" fill="white"/>
<path fill-rule="evenodd" clip-rule="evenodd" d="M20.4436 1.81705C20.4436 1.84029 20.4828 20.2149 20.4828 20.2149C21.1638 19.741 22.805 17.992 22.5766 15.119C22.5574 14.8745 20.9935 2.43384 20.985 2.37288C20.9766 2.31079 20.7493 1.97325 20.4436 1.81705Z" fill="white"/>
<path fill-rule="evenodd" clip-rule="evenodd" d="M20.4436 1.81705C20.4436 1.83914 20.4844 20.2092 20.4844 20.2092C21.1842 19.7227 22.7858 17.9737 22.5512 15.0204C22.5316 14.7693 20.9885 2.43308 20.98 2.37022C20.9712 2.30774 20.7443 1.9702 20.444 1.81705H20.4436Z" fill="white"/>
<path fill-rule="evenodd" clip-rule="evenodd" d="M20.4436 1.82192C20.4436 1.84401 20.4851 20.2088 20.4851 20.2088C21.2038 19.7085 22.7666 17.9603 22.5262 14.9266C22.5055 14.6687 20.9831 2.43757 20.9746 2.37356C20.9654 2.30918 20.7382 1.97202 20.4436 1.82153V1.82192Z" fill="white"/>
<path fill-rule="evenodd" clip-rule="evenodd" d="M20.4436 1.81705C20.4436 1.83838 20.4863 20.1989 20.4863 20.1989C21.2242 19.6854 22.7477 17.9363 22.5008 14.8238C22.4801 14.5586 20.9781 2.43308 20.9696 2.36717C20.96 2.30088 20.7332 1.96486 20.444 1.81705H20.4436ZM20.4436 1.81705C20.4436 1.83838 20.4874 20.1936 20.4874 20.1936C21.2442 19.6671 22.7289 17.9173 22.4751 14.7251C22.4535 14.4527 20.9731 2.43307 20.9635 2.36488C20.9543 2.29745 20.727 1.9622 20.4436 1.81705Z" fill="white"/>
<path fill-rule="evenodd" clip-rule="evenodd" d="M20.4436 1.81705C20.4436 1.83762 20.4882 20.1879 20.4882 20.1879C21.2638 19.648 22.7097 17.8982 22.4501 14.6268C22.4274 14.3483 20.9673 2.43307 20.9581 2.36336C20.9485 2.29364 20.7216 1.95915 20.4436 1.81705Z" fill="white"/>
<path fill-rule="evenodd" clip-rule="evenodd" d="M20.4436 1.82192C20.4436 1.84249 20.4894 20.1874 20.4894 20.1874C21.2842 19.6346 22.6904 17.8848 22.4243 14.5323C22.402 14.2473 20.9627 2.43795 20.9531 2.36633C20.9427 2.29508 20.7159 1.96059 20.4436 1.82153V1.82192Z" fill="white"/>
<path fill-rule="evenodd" clip-rule="evenodd" d="M20.4436 1.81705C20.4436 1.83686 20.4909 20.1768 20.4909 20.1768C21.3042 19.6118 22.6712 17.8609 22.3997 14.4291C22.3755 14.1369 20.957 2.43346 20.9477 2.35955C20.9373 2.28678 20.7101 1.95419 20.4436 1.81742V1.81705Z" fill="white"/>
<path fill-rule="evenodd" clip-rule="evenodd" d="M20.4436 1.82192C20.4436 1.84173 20.4917 20.1764 20.4917 20.1764C21.3246 19.5973 22.6527 17.8479 22.374 14.3357C22.3501 14.037 20.9523 2.43718 20.942 2.36251C20.9316 2.28784 20.7047 1.95525 20.4436 1.82153V1.82192ZM20.4436 1.82192C20.4436 1.84135 20.4932 20.1714 20.4932 20.1714C21.3442 19.579 22.6335 17.8284 22.3482 14.2374C22.324 13.9319 20.9477 2.43756 20.9373 2.36099C20.927 2.28441 20.6993 1.95297 20.4436 1.82192Z" fill="white"/>
<path fill-rule="evenodd" clip-rule="evenodd" d="M20.4437 1.81705C20.4437 1.83648 20.4941 20.1612 20.4941 20.1612C21.3643 19.5562 22.6148 17.8049 22.3233 14.1339C22.2976 13.8211 20.9417 2.4327 20.9313 2.35383C20.9209 2.27612 20.6937 1.94467 20.4434 1.81705H20.4437Z" fill="white"/>
<path fill-rule="evenodd" clip-rule="evenodd" d="M20.4436 1.82192C20.4436 1.8402 20.4947 20.1604 20.4947 20.1604C21.3846 19.542 22.5951 17.7915 22.2978 14.0401C22.2721 13.7208 20.9373 2.43718 20.9262 2.3568C20.9158 2.27756 20.6882 1.94611 20.4436 1.82153V1.82192Z" fill="white"/>
<path fill-rule="evenodd" clip-rule="evenodd" d="M20.4436 1.81705C20.4436 1.83533 20.4955 20.1498 20.4955 20.1498C21.4042 19.5185 22.5766 17.7672 22.2724 13.9373C22.2467 13.6112 20.9327 2.4327 20.9212 2.35079C20.9093 2.26888 20.6828 1.93972 20.4436 1.81705Z" fill="white"/>
<path fill-rule="evenodd" clip-rule="evenodd" d="M20.4436 1.81705C20.4436 1.83457 20.4974 20.1452 20.4974 20.1452C21.4245 19.4998 22.5578 17.7485 22.2474 13.8378C22.2213 13.5053 20.927 2.43193 20.9158 2.34888C20.9035 2.26583 20.6778 1.93629 20.4436 1.81705Z" fill="white"/>
<path fill-rule="evenodd" clip-rule="evenodd" d="M20.4437 1.81705C20.4437 1.83457 20.498 20.1399 20.498 20.1399C21.4435 19.4816 22.5383 17.7302 22.2218 13.7396C22.1953 13.3997 20.9221 2.43193 20.9098 2.34698C20.8986 2.26202 20.6722 1.93401 20.4434 1.81705H20.4437ZM20.4437 1.81705C20.4437 1.83381 20.4999 20.1342 20.4999 20.1342C21.4639 19.4633 22.5198 17.7112 22.1964 13.6409C22.1691 13.2946 20.9167 2.43194 20.9048 2.34507C20.8925 2.25859 20.666 1.93058 20.4441 1.81705H20.4437Z" fill="white"/>
<path fill-rule="evenodd" clip-rule="evenodd" d="M20.4436 1.81705C20.4436 1.83305 20.5005 20.1284 20.5005 20.1284C21.4838 19.4442 22.5008 17.6929 22.1713 13.5422C22.1432 13.189 20.9116 2.43155 20.8993 2.34355C20.8874 2.25478 20.6609 1.92715 20.4436 1.81705Z" fill="white"/>
<path fill-rule="evenodd" clip-rule="evenodd" d="M20.4436 1.81705C20.4436 1.83305 20.5013 20.1239 20.5013 20.1239C21.5045 19.4259 22.4812 17.6738 22.1455 13.4439C22.1167 13.0843 20.9066 2.43193 20.8943 2.34126C20.882 2.25173 20.6555 1.92524 20.444 1.81705H20.4436Z" fill="white"/>
<path fill-rule="evenodd" clip-rule="evenodd" d="M20.4436 1.81705C20.4436 1.83191 20.5028 20.1174 20.5028 20.1174C21.5245 19.4069 22.4624 17.6548 22.1198 13.3456C22.0909 12.9788 20.9012 2.43193 20.8881 2.33974C20.8762 2.2483 20.6493 1.9222 20.4436 1.81705Z" fill="white"/>
<path fill-rule="evenodd" clip-rule="evenodd" d="M20.4436 1.81705C20.4436 1.83191 20.5036 20.1128 20.5036 20.1128C21.5434 19.389 22.4428 17.6369 22.0948 13.2473C22.0652 12.8732 20.8958 2.43117 20.8835 2.33821C20.8704 2.2445 20.6439 1.91991 20.4436 1.81742V1.81705Z" fill="white"/>
<path fill-rule="evenodd" clip-rule="evenodd" d="M20.4436 1.81705C20.4436 1.83191 20.5044 20.1071 20.5044 20.1071C21.5637 19.3707 22.4243 17.6175 22.0694 13.1487C22.039 12.7677 20.8908 2.43079 20.8777 2.33555C20.865 2.24145 20.6382 1.91648 20.4436 1.81705Z" fill="white"/>
<path fill-rule="evenodd" clip-rule="evenodd" d="M20.4436 1.81705C20.4436 1.83114 20.5059 20.1014 20.5059 20.1014C21.5841 19.3516 22.4051 17.5988 22.0444 13.05C22.0133 12.6625 20.8854 2.43079 20.8731 2.33402C20.8593 2.23726 20.6328 1.91419 20.4436 1.81705ZM20.4436 1.81705C20.4436 1.83076 20.5071 20.0957 20.5071 20.0957C21.6037 19.333 22.3863 17.5801 22.019 12.9506C21.9875 12.5566 20.8812 2.43041 20.8674 2.3325C20.8539 2.23383 20.627 1.91077 20.4436 1.81705Z" fill="white"/>
<path fill-rule="evenodd" clip-rule="evenodd" d="M20.4436 1.81705C20.4436 1.83076 20.5078 20.0911 20.5078 20.0911C21.6241 19.3147 22.3666 17.5615 21.9933 12.8526C21.9614 12.4519 20.8754 2.43079 20.862 2.33098C20.8481 2.2304 20.6216 1.9081 20.4436 1.81742V1.81705Z" fill="white"/>
<path fill-rule="evenodd" clip-rule="evenodd" d="M20.4436 1.81705C20.4436 1.83076 20.5094 20.0854 20.5094 20.0854C21.6441 19.2956 22.3486 17.5424 21.9679 12.754C21.936 12.3467 20.8708 2.43079 20.8562 2.32831C20.8424 2.22697 20.6159 1.90543 20.4436 1.81705Z" fill="white"/>
<path fill-rule="evenodd" clip-rule="evenodd" d="M20.4436 1.81705C20.4436 1.83 20.5097 20.0801 20.5097 20.0801C21.6637 19.2773 22.329 17.5237 21.9429 12.6553C21.9102 12.2408 20.865 2.42965 20.8516 2.32679C20.8374 2.22278 20.6101 1.902 20.4436 1.81705Z" fill="white"/>
<path fill-rule="evenodd" clip-rule="evenodd" d="M20.4437 1.81705C20.4437 1.82924 20.5118 20.0751 20.5118 20.0751C21.6842 19.2591 22.3099 17.5043 21.9173 12.557C21.8834 12.1353 20.8602 2.43003 20.8456 2.32526C20.8314 2.21973 20.6045 1.89934 20.4434 1.81705H20.4437Z" fill="white"/>
<path fill-rule="evenodd" clip-rule="evenodd" d="M20.4437 1.81705C20.4437 1.82924 20.5126 20.0698 20.5126 20.0698C21.7042 19.24 22.2914 17.4864 21.8927 12.4587C21.8581 12.0301 20.8556 2.43003 20.8413 2.32297C20.8264 2.21592 20.6002 1.89667 20.4437 1.81705ZM20.4437 1.81705C20.4437 1.8281 20.5133 20.0641 20.5133 20.0641C21.7242 19.2221 22.2726 17.4681 21.8669 12.3597C21.8323 11.9254 20.8498 2.43003 20.8352 2.32107C20.8202 2.21249 20.5933 1.89324 20.4434 1.81705H20.4437Z" fill="white"/>
<path fill-rule="evenodd" clip-rule="evenodd" d="M20.4436 1.81705C20.4436 1.8281 20.5151 20.0587 20.5151 20.0587C21.7441 19.2027 22.2532 17.4491 21.841 12.261C21.806 11.8195 20.8451 2.43003 20.8301 2.31955C20.8151 2.20907 20.5878 1.89096 20.4436 1.81705Z" fill="white"/>
<path fill-rule="evenodd" clip-rule="evenodd" d="M20.4436 1.81705C20.4436 1.82733 20.5155 20.053 20.5155 20.053C21.7641 19.1844 22.2336 17.43 21.816 12.1627C21.7798 11.7143 20.8401 2.43003 20.8247 2.31726C20.8089 2.20563 20.5828 1.88791 20.4436 1.81705Z" fill="white"/>
<path fill-rule="evenodd" clip-rule="evenodd" d="M20.4436 1.81705C20.4436 1.82733 20.5163 20.0484 20.5163 20.0484C21.7841 19.1665 22.2151 17.4117 21.7902 12.064C21.7541 11.6092 20.8343 2.42926 20.8193 2.31574C20.8031 2.20221 20.577 1.88524 20.4436 1.81705Z" fill="white"/>
<path fill-rule="evenodd" clip-rule="evenodd" d="M20.4436 1.81705L20.5182 20.0427C21.8041 19.1474 22.1963 17.3927 21.7649 11.9657C21.7287 11.5036 20.8297 2.42927 20.8135 2.31383C20.7978 2.19802 20.5717 1.88219 20.4436 1.81705Z" fill="white"/>
<path fill-rule="evenodd" clip-rule="evenodd" d="M20.4436 1.81705L20.519 20.0374C21.8245 19.1291 22.1767 17.3736 21.7395 11.8675C21.7026 11.3981 20.8251 2.42927 20.8085 2.31193C20.7924 2.19535 20.5663 1.87991 20.444 1.81705H20.4436Z" fill="white"/>
<path fill-rule="evenodd" clip-rule="evenodd" d="M20.4436 1.81705L20.5197 20.0317C21.8445 19.1105 22.1579 17.3554 21.7145 11.7688C21.6768 11.2933 20.8193 2.42927 20.8031 2.31002C20.7866 2.19116 20.5605 1.87648 20.4436 1.81705ZM20.4436 1.81705L20.5213 20.0263C21.8641 19.0918 22.139 17.3363 21.6895 11.6697C21.651 11.1878 20.8147 2.42965 20.7978 2.30888C20.7808 2.18811 20.5547 1.87381 20.4436 1.81742V1.81705Z" fill="white"/>
<path fill-rule="evenodd" clip-rule="evenodd" d="M20.4437 1.81705L20.5222 20.0214C21.8846 19.0735 22.1199 17.3184 21.6639 11.5711C21.6246 11.0819 20.8087 2.42927 20.7917 2.30697C20.7752 2.1843 20.5487 1.87115 20.4434 1.81705H20.4437Z" fill="white"/>
<path fill-rule="evenodd" clip-rule="evenodd" d="M20.4436 1.81705L20.5236 20.0161C21.9044 19.0552 22.1006 17.299 21.6383 11.4728C21.5991 10.9775 20.8043 2.42965 20.7874 2.30507C20.7705 2.18125 20.544 1.86848 20.4436 1.81742V1.81705Z" fill="white"/>
<path fill-rule="evenodd" clip-rule="evenodd" d="M20.4436 1.81705L20.5244 20.0103C21.9244 19.0362 22.0817 17.2799 21.613 11.3745C21.5737 10.872 20.7993 2.42889 20.7816 2.30317C20.7651 2.17783 20.5382 1.86581 20.4436 1.81742V1.81705Z" fill="white"/>
<path fill-rule="evenodd" clip-rule="evenodd" d="M20.4436 1.81705L20.5255 20.005C21.9444 19.0179 22.0633 17.262 21.588 11.2758C21.5468 10.7661 20.7939 2.4285 20.7762 2.30164C20.7585 2.17401 20.5328 1.86238 20.4436 1.81705Z" fill="white"/>
<path fill-rule="evenodd" clip-rule="evenodd" d="M20.4437 1.81705L20.5268 19.9993C21.9646 18.9989 22.0438 17.2426 21.5624 11.1775C21.5212 10.6605 20.7887 2.42888 20.7714 2.29935C20.7525 2.17097 20.5268 1.86009 20.4434 1.81742L20.4437 1.81705ZM20.4437 1.81705L20.5276 19.9936C21.9846 18.981 22.0246 17.2235 21.5377 11.0788C21.4958 10.5558 20.7837 2.4285 20.766 2.29783C20.7475 2.16678 20.5218 1.85705 20.4437 1.81742V1.81705Z" fill="white"/>
<path fill-rule="evenodd" clip-rule="evenodd" d="M20.4437 1.82192L20.5295 19.9935C22.0046 18.9668 22.0065 17.2101 21.5116 10.9843C21.4693 10.4547 20.7787 2.43337 20.7598 2.30042C20.7414 2.16784 20.5157 1.85811 20.4434 1.82153L20.4437 1.82192Z" fill="white"/>
<path fill-rule="evenodd" clip-rule="evenodd" d="M20.4436 1.82192L20.5301 19.9878C22.0248 18.9485 21.9867 17.1911 21.4861 10.886C21.4434 10.3492 20.7735 2.43223 20.7555 2.29813C20.7362 2.16403 20.5101 1.85582 20.4436 1.82153V1.82192Z" fill="white"/>
<path fill-rule="evenodd" clip-rule="evenodd" d="M20.4437 1.81705L20.531 19.9776C22.0449 18.925 21.968 17.1679 21.4612 10.7828C21.4181 10.2399 20.7683 2.42736 20.7494 2.29173C20.731 2.15611 20.5045 1.84791 20.4434 1.81705H20.4437Z" fill="white"/>
<path fill-rule="evenodd" clip-rule="evenodd" d="M20.4436 1.82192L20.532 19.9767C22.064 18.9115 21.9487 17.1537 21.4357 10.689C21.3926 10.1389 20.7631 2.43223 20.7443 2.29508C20.7258 2.15755 20.499 1.85011 20.444 1.82153L20.4436 1.82192Z" fill="white"/>
<path fill-rule="evenodd" clip-rule="evenodd" d="M20.4437 1.82192L20.5333 19.9722C22.0838 18.8921 21.93 17.1354 21.4101 10.5904C21.3662 10.033 20.7587 2.43223 20.7383 2.29318C20.7198 2.15374 20.4941 1.84706 20.4434 1.82153L20.4437 1.82192Z" fill="white"/>
<path fill-rule="evenodd" clip-rule="evenodd" d="M20.4436 1.82192L20.534 19.9664C22.1048 18.8742 21.9106 17.1168 21.3842 10.4924C21.34 9.92861 20.7524 2.43223 20.7335 2.29127C20.7143 2.15069 20.4882 1.84516 20.4436 1.82192ZM20.4436 1.82192L20.5359 19.9611C22.124 18.8552 21.8914 17.0974 21.3596 10.3938C21.3138 9.82308 20.7482 2.43223 20.7289 2.28937C20.7089 2.1465 20.4828 1.84172 20.4436 1.82153V1.82192Z" fill="white"/>
<path fill-rule="evenodd" clip-rule="evenodd" d="M20.4436 1.81705L20.5367 19.9505C22.144 18.832 21.8729 17.0742 21.3349 10.2906C21.2884 9.71268 20.7424 2.42774 20.7235 2.28336C20.7035 2.13859 20.4767 1.83381 20.444 1.81705H20.4436Z" fill="white"/>
<path fill-rule="evenodd" clip-rule="evenodd" d="M20.4436 1.81705L20.5374 19.9452C22.1652 18.8141 21.8533 17.0555 21.3092 10.1919C21.2627 9.60791 20.7378 2.4266 20.7178 2.28069C20.6978 2.13478 20.4717 1.83114 20.4436 1.81705Z" fill="white"/>
<path fill-rule="evenodd" clip-rule="evenodd" d="M20.4436 1.81705L20.539 19.9402C22.184 18.7954 21.8348 17.0361 21.2834 10.0929C21.2357 9.50124 20.7328 2.42698 20.712 2.27954C20.692 2.13173 20.4659 1.82847 20.4436 1.81742V1.81705Z" fill="white"/>
<path fill-rule="evenodd" clip-rule="evenodd" d="M20.4436 1.81705L20.5397 19.9349C22.204 18.7764 21.816 17.0178 21.2577 9.9946C21.2104 9.39647 20.7274 2.42698 20.7074 2.27764C20.6866 2.12754 20.4605 1.82619 20.4436 1.81705ZM20.4436 1.81705L20.5405 19.9292C22.224 18.7581 21.7968 16.9991 21.233 9.89593C21.1846 9.29094 20.7224 2.4266 20.7016 2.27497C20.6809 2.12449 20.4548 1.82276 20.4436 1.81705Z" fill="white"/>
<path fill-rule="evenodd" clip-rule="evenodd" d="M20.4436 1.81705L20.542 19.9239C22.2444 18.7394 21.7779 16.9809 21.2073 9.79764C21.1592 9.18656 20.717 2.42698 20.6959 2.27383C20.6755 2.12068 20.449 1.82047 20.4436 1.81742V1.81705Z" fill="white"/>
<path fill-rule="evenodd" clip-rule="evenodd" d="M20.6905 2.27193C20.6697 2.11725 20.4429 1.81705 20.4429 1.81705L20.5428 19.9189C22.264 18.7208 21.7584 16.9618 21.1812 9.69897C21.1323 9.08065 20.7109 2.4266 20.6901 2.27193H20.6905Z" fill="white"/>
<path fill-rule="evenodd" clip-rule="evenodd" d="M20.4436 20.2153V23.6863L35.5999 29.7179L36.499 29.3986L20.4436 20.2153Z" fill="white"/>
<path fill-rule="evenodd" clip-rule="evenodd" d="M20.4437 20.2153V20.3486C20.4476 20.3635 20.4791 23.6799 20.5099 23.6997C20.5406 23.7202 28.0425 26.7101 28.0425 26.7101L35.4159 29.644L35.6024 29.7179L36.4987 29.3986C36.4987 29.3986 33.997 27.9669 33.9754 27.9551L28.4712 24.8064L24.4575 22.5114C24.4256 22.4924 20.4434 20.2153 20.4434 20.2153H20.4437Z" fill="white"/>
<path fill-rule="evenodd" clip-rule="evenodd" d="M20.4437 20.2153V20.3505C20.4518 20.3806 20.5153 23.6738 20.5768 23.7141C20.6383 23.7549 28.0629 26.7185 28.0629 26.7185L35.4182 29.6455L35.6047 29.7167C35.6097 29.716 36.491 29.4032 36.4991 29.3986L33.9758 27.9551C33.9331 27.9307 28.5278 24.8392 28.4716 24.8064C28.4324 24.7843 24.4921 22.5312 24.4579 22.5114C24.3925 22.4745 20.4437 20.2153 20.4437 20.2153ZM20.4437 20.2153V20.3521C20.4557 20.3974 20.551 23.6673 20.6433 23.7279C20.7352 23.7888 28.0829 26.7265 28.0829 26.7265L35.4205 29.6463L35.607 29.7171C35.6143 29.7156 36.4868 29.407 36.4987 29.399L33.9754 27.9555C33.9124 27.9189 28.5554 24.8555 28.4705 24.8068C28.412 24.7736 24.5086 22.5411 24.4575 22.5118C24.3594 22.4562 20.4434 20.2157 20.4434 20.2157L20.4437 20.2153Z" fill="white"/>
<path fill-rule="evenodd" clip-rule="evenodd" d="M20.4436 20.2153V20.3536C20.4586 20.4138 20.5863 23.6612 20.7097 23.742C20.8328 23.8231 28.1027 26.7341 28.1027 26.7341L35.4238 29.647C35.4238 29.647 35.6042 29.7179 35.6099 29.716C35.6195 29.7145 36.4832 29.4085 36.4994 29.3986L33.9761 27.9551C33.8911 27.9067 28.5838 24.8712 28.4711 24.8064L24.4581 22.5114C24.3281 22.4368 20.444 20.2153 20.444 20.2153H20.4436ZM20.4436 20.2153V20.3551C20.4628 20.4306 20.6216 23.6547 20.7755 23.7553C20.93 23.857 28.1235 26.7429 28.1235 26.7429L35.4261 29.6485C35.4261 29.6485 35.6045 29.7179 35.6119 29.716C35.6242 29.7133 36.479 29.4112 36.499 29.3986C36.499 29.3986 34.0822 28.0157 33.9757 27.9551C33.8699 27.8949 28.6114 24.8875 28.4707 24.8064C28.373 24.7504 24.5431 22.5598 24.4577 22.5114L20.4436 20.2153Z" fill="white"/>
<path fill-rule="evenodd" clip-rule="evenodd" d="M20.4437 20.2153V20.3566C20.4668 20.4473 20.6579 23.6482 20.8425 23.769C21.0271 23.8909 28.1432 26.7509 28.1432 26.7509L35.429 29.6493C35.429 29.6493 35.6055 29.7179 35.6143 29.716C35.6285 29.7129 36.4753 29.4135 36.4987 29.3986C36.4987 29.3975 34.1031 28.0283 33.9754 27.9551C33.8481 27.8824 28.6393 24.9035 28.4705 24.8064C28.3528 24.739 24.5605 22.5701 24.4563 22.5114C24.2625 22.3994 20.4434 20.2153 20.4434 20.2153H20.4437ZM20.4437 20.2153V20.3593C20.471 20.4641 20.6929 23.6421 20.9086 23.7835C21.124 23.9248 28.1636 26.7589 28.1636 26.7589L35.4316 29.6512C35.4316 29.6512 35.6062 29.7179 35.617 29.7156C35.6339 29.7125 36.4714 29.4173 36.4991 29.399C36.4983 29.3979 34.125 28.0405 33.9758 27.9555C33.8278 27.8709 28.6677 24.9195 28.4701 24.8068C28.3328 24.7283 24.5778 22.58 24.4567 22.5118C24.2302 22.3815 20.4437 20.2157 20.4437 20.2157V20.2153Z" fill="white"/>
<path fill-rule="evenodd" clip-rule="evenodd" d="M20.4437 20.2153V20.3605C20.4753 20.4805 20.7291 23.6353 20.9748 23.7976C21.2217 23.9587 28.1836 26.7665 28.1836 26.7665L35.434 29.6516C35.434 29.6516 35.607 29.7167 35.6193 29.7152C35.6385 29.7114 36.4668 29.4188 36.4987 29.3986C36.498 29.3975 34.1454 28.0519 33.9754 27.9551C33.8058 27.8584 28.6954 24.9355 28.4697 24.8056C28.3132 24.7161 24.5944 22.5899 24.4563 22.5107C24.1975 22.3621 20.4434 20.2153 20.4434 20.2153H20.4437ZM20.4437 20.2153V20.3624C20.4791 20.4972 20.7652 23.6284 21.0417 23.8113C21.3182 23.993 28.2048 26.7749 28.2048 26.7749L35.4363 29.6527C35.4363 29.6527 35.6078 29.7171 35.6216 29.7148C35.6424 29.711 36.463 29.4219 36.4991 29.399C36.4983 29.3979 34.1673 28.0648 33.9758 27.9555L28.4701 24.806C28.2936 24.7054 24.6117 22.5998 24.4567 22.511L20.4437 20.2157V20.2153Z" fill="white"/>
<path fill-rule="evenodd" clip-rule="evenodd" d="M20.4436 20.2153V20.3631C20.4828 20.514 20.8001 23.6231 21.1081 23.8246C21.4153 24.0273 28.2246 26.7829 28.2246 26.7829L35.4396 29.6535C35.4396 29.6535 35.6095 29.7171 35.6242 29.7148C35.6484 29.7099 36.459 29.4241 36.499 29.399C36.4982 29.3979 34.1883 28.077 33.9757 27.9555C33.7634 27.834 28.7522 24.9683 28.4699 24.806C28.2734 24.6944 24.6288 22.6093 24.4566 22.511C24.1332 22.3263 20.4436 20.2157 20.4436 20.2157V20.2153Z" fill="white"/>
<path fill-rule="evenodd" clip-rule="evenodd" d="M20.4436 20.2153V20.3654C20.4863 20.5304 20.8354 23.6159 21.1734 23.8387C21.5126 24.0612 28.2446 26.7913 28.2446 26.7913L35.4419 29.655C35.4419 29.655 35.6095 29.7167 35.6261 29.7137C35.6518 29.7091 36.4547 29.4272 36.499 29.3994C36.4982 29.3975 34.2087 28.0892 33.9757 27.9551C33.7419 27.8218 28.7799 24.9835 28.4699 24.8056C28.2534 24.6826 24.6458 22.6196 24.4566 22.5107C24.1001 22.3065 20.4436 20.2153 20.4436 20.2153Z" fill="white"/>
<path fill-rule="evenodd" clip-rule="evenodd" d="M20.4436 20.2112V20.3628C20.4909 20.543 20.8716 23.6053 21.2411 23.848C21.6099 24.091 28.2646 26.7948 28.2646 26.7948L35.4446 29.6513C35.4446 29.6513 35.6111 29.7123 35.6288 29.7092C35.6568 29.7039 36.4509 29.425 36.499 29.3949C36.4982 29.393 34.2302 28.097 33.9757 27.9507C33.7211 27.8055 28.8079 24.9951 28.4699 24.8012C28.2342 24.6663 24.6635 22.6243 24.4566 22.5062C24.0682 22.2837 20.4436 20.2108 20.4436 20.2108V20.2112Z" fill="white"/>
<path fill-rule="evenodd" clip-rule="evenodd" d="M20.4436 20.2153V20.3688C20.494 20.5643 20.9066 23.6033 21.3065 23.8665C21.7072 24.1294 28.2846 26.8073 28.2846 26.8073L35.4469 29.6565C35.4469 29.6565 35.6119 29.7167 35.6315 29.7129C35.6618 29.7076 36.4471 29.4322 36.499 29.3994C36.4974 29.3975 34.2514 28.1132 33.9757 27.9551C33.7 27.7974 28.836 25.0152 28.4688 24.8056C28.2142 24.6597 24.6804 22.6383 24.4558 22.5107C24.0351 22.2695 20.4436 20.2153 20.4436 20.2153Z" fill="white"/>
<path fill-rule="evenodd" clip-rule="evenodd" d="M20.4436 20.2153V20.3704C20.4978 20.5807 20.9427 23.5968 21.3734 23.8802C21.8045 24.1637 28.3057 26.8153 28.3057 26.8153L35.4503 29.6577C35.4503 29.6577 35.6134 29.7171 35.6342 29.7129C35.6668 29.7065 36.4436 29.4344 36.4994 29.3994C36.4978 29.3975 34.2733 28.125 33.9761 27.9551C33.6788 27.7856 28.8645 25.0315 28.4692 24.8052L24.4562 22.511L20.444 20.2157L20.4436 20.2153ZM20.4436 20.2153V20.3719C20.5021 20.597 20.9781 23.5899 21.4395 23.8943C21.901 24.1976 28.3254 26.8233 28.3254 26.8233L35.4527 29.6592C35.4527 29.6592 35.6138 29.7171 35.6361 29.7129C35.6715 29.7057 36.4394 29.4379 36.499 29.3994C36.4974 29.3975 34.2937 28.1376 33.9757 27.9551C33.6569 27.7734 28.8922 25.0479 28.468 24.8052L24.4558 22.511C23.9701 22.2329 20.4436 20.2157 20.4436 20.2157V20.2153Z" fill="white"/>
<path fill-rule="evenodd" clip-rule="evenodd" d="M20.4436 20.2153V20.3734C20.5059 20.6134 21.0139 23.5842 21.5061 23.9081C21.9979 24.2319 28.3454 26.8313 28.3454 26.8313L35.455 29.66C35.455 29.66 35.6142 29.7171 35.6384 29.7126C35.6757 29.7053 36.4348 29.4402 36.499 29.3998C36.4974 29.3979 34.3156 28.1498 33.9757 27.9555C33.6357 27.7612 28.9198 25.0643 28.468 24.8056C28.155 24.6262 24.7315 22.6684 24.4558 22.5114C23.9375 22.2143 20.4436 20.2161 20.4436 20.2161V20.2153ZM20.4436 20.2153V20.3749C20.5097 20.6309 21.0492 23.5778 21.5726 23.9218C22.0963 24.2662 28.3665 26.84 28.3665 26.84L35.4584 29.6615C35.4584 29.6615 35.6153 29.7167 35.6399 29.7122C35.6811 29.7042 36.4301 29.4424 36.499 29.3994C36.4974 29.3975 34.3364 28.1616 33.9757 27.9551C33.615 27.7486 28.9479 25.0796 28.468 24.8053C28.1346 24.6148 24.7492 22.6783 24.4558 22.511L20.4436 20.2157V20.2153Z" fill="white"/>
<path fill-rule="evenodd" clip-rule="evenodd" d="M20.4437 20.2153V20.3768C20.5133 20.6466 21.0848 23.5717 21.6393 23.9359C22.193 24.3005 28.3863 26.8476 28.3863 26.8476L35.4605 29.6622C35.4605 29.6622 35.6162 29.7167 35.6424 29.7114C35.6854 29.7034 36.4268 29.4447 36.4987 29.3994C36.4972 29.3975 34.3576 28.1742 33.9754 27.9551L28.4678 24.8052C28.1148 24.6037 24.7659 22.6878 24.4556 22.511C23.8722 22.1769 20.4434 20.2157 20.4434 20.2157L20.4437 20.2153Z" fill="white"/>
<path fill-rule="evenodd" clip-rule="evenodd" d="M20.4437 20.2153V20.378C20.5183 20.6633 21.1209 23.5648 21.7058 23.9492C22.2899 24.334 28.4062 26.8553 28.4062 26.8553L35.4628 29.6626C35.4628 29.6626 35.6166 29.7164 35.6454 29.711C35.6901 29.7015 36.4218 29.4474 36.4987 29.399L33.9754 27.9547C33.5724 27.725 29.0042 25.1119 28.4678 24.8049C28.0952 24.5923 24.7824 22.697 24.4556 22.5099L20.4434 20.2153H20.4437Z" fill="white"/>
<path fill-rule="evenodd" clip-rule="evenodd" d="M20.4437 20.2153V20.3799C20.5214 20.6797 21.1563 23.5583 21.7723 23.9637C22.3876 24.3687 28.4274 26.864 28.4274 26.864L35.4655 29.6649C35.4655 29.6649 35.6181 29.7171 35.647 29.711C35.6947 29.7015 36.418 29.4504 36.4999 29.3998L33.9754 27.9555L28.467 24.8056L24.4556 22.5107C23.8072 22.1396 20.4434 20.2161 20.4434 20.2161L20.4437 20.2153Z" fill="white"/>
<path fill-rule="evenodd" clip-rule="evenodd" d="M20.4436 20.2153V20.3814C20.5255 20.6965 21.1919 23.5526 21.838 23.977C22.4844 24.4018 28.4469 26.8724 28.4469 26.8724L35.4681 29.6653C35.4681 29.6653 35.6192 29.7167 35.6492 29.7106C35.6988 29.7011 36.4136 29.4527 36.4994 29.3994L33.9749 27.9551L28.4665 24.8052L24.4551 22.5103L20.4429 20.2157L20.4436 20.2153Z" fill="white"/>
<path fill-rule="evenodd" clip-rule="evenodd" d="M20.4437 20.2153V20.3829C20.5295 20.7132 21.2274 23.5458 21.9046 23.9911C22.5817 24.4361 28.4674 26.88 28.4674 26.88L35.4709 29.6661C35.4709 29.6661 35.6201 29.7167 35.652 29.7106C35.7039 29.6992 36.4103 29.4546 36.4999 29.3994C36.4968 29.3975 34.4426 28.223 33.9754 27.9551C33.5086 27.6884 29.0884 25.1599 28.467 24.8053C28.0348 24.5584 24.8339 22.727 24.4548 22.5103C23.7423 22.103 20.4434 20.2157 20.4434 20.2157L20.4437 20.2153Z" fill="white"/>
<path fill-rule="evenodd" clip-rule="evenodd" d="M20.4436 20.2153V20.3845C20.5332 20.73 21.2635 23.5397 21.971 24.0048C22.6782 24.47 28.4873 26.8884 28.4873 26.8884L35.4731 29.6676C35.4731 29.6676 35.6204 29.7167 35.6538 29.7099C35.7084 29.6996 36.4056 29.4581 36.4994 29.3998L33.9749 27.9555C33.487 27.6763 29.1156 25.1763 28.4665 24.8056L24.4543 22.5107C23.7091 22.084 20.4429 20.2161 20.4429 20.2161L20.4436 20.2153ZM20.4436 20.2153V20.3864C20.5375 20.7464 21.2992 23.5332 22.0375 24.0189C22.7766 24.5039 28.5077 26.8964 28.5077 26.8964L35.4769 29.6687C35.4769 29.6687 35.6219 29.7171 35.6573 29.7099C35.7142 29.6988 36.4025 29.4607 36.5005 29.3998C36.4975 29.3979 34.486 28.247 33.9761 27.9555C33.4666 27.6641 29.1448 25.1919 28.4673 24.8049C27.9966 24.5355 24.87 22.7469 24.4558 22.5107C23.6787 22.0657 20.4444 20.2161 20.4444 20.2161L20.4436 20.2153Z" fill="white"/>
<path fill-rule="evenodd" clip-rule="evenodd" d="M20.4436 20.2153V20.3879C20.5413 20.7635 21.3346 23.5267 22.104 24.0326C22.8735 24.5386 28.5284 26.9044 28.5284 26.9044L35.4792 29.6695C35.4792 29.6695 35.6226 29.7164 35.6595 29.7091C35.7188 29.6981 36.3982 29.463 36.5001 29.3998C36.4959 29.3971 34.5059 28.2595 33.9757 27.9555C33.4446 27.6523 29.1725 25.2087 28.4669 24.8049L24.4554 22.5107C23.6456 22.0478 20.444 20.2161 20.444 20.2161L20.4436 20.2153ZM20.4436 20.2153V20.3902C20.5444 20.7799 21.3699 23.5206 22.1702 24.046C22.97 24.5721 28.5484 26.9124 28.5484 26.9124L35.4815 29.6699C35.4815 29.6699 35.6234 29.716 35.6618 29.7087C35.7237 29.6962 36.3944 29.4649 36.5005 29.3994L33.9761 27.9551C33.4239 27.6405 29.2009 25.2243 28.4672 24.8045L24.4558 22.5103L20.4444 20.2157L20.4436 20.2153Z" fill="white"/>
<path fill-rule="evenodd" clip-rule="evenodd" d="M20.4436 20.2153V20.3917C20.5486 20.7967 21.4061 23.5134 22.2371 24.0604C23.0673 24.6068 28.5684 26.9212 28.5684 26.9212L35.4842 29.6722C35.4842 29.6722 35.6245 29.7164 35.6645 29.7091C35.7287 29.6954 36.3905 29.4683 36.5005 29.3998L33.9761 27.9555C33.4031 27.6279 29.229 25.2407 28.4672 24.8049C27.9377 24.5016 24.9207 22.7766 24.4558 22.5107C23.5806 22.0104 20.4444 20.2161 20.4444 20.2161L20.4436 20.2153Z" fill="white"/>
<path fill-rule="evenodd" clip-rule="evenodd" d="M20.4436 20.2153V20.3936C20.5524 20.8134 21.4415 23.5073 22.3036 24.0742C23.1649 24.6411 28.5884 26.9292 28.5884 26.9292L35.4869 29.6729C35.4869 29.6729 35.6249 29.7164 35.6668 29.7088C35.733 29.695 36.3863 29.4714 36.5001 29.3998C36.4959 29.3971 34.5694 28.2965 33.9757 27.9555C33.3812 27.6161 29.2567 25.2571 28.4661 24.8049C27.917 24.4902 24.9376 22.7869 24.4554 22.5107C23.5483 21.9914 20.444 20.2161 20.444 20.2161L20.4436 20.2153Z" fill="white"/>
<path fill-rule="evenodd" clip-rule="evenodd" d="M20.4436 20.2153V20.3947C20.5567 20.8298 21.4772 23.5004 22.3693 24.0883C23.2618 24.675 28.6095 26.9368 28.6095 26.9368L35.4896 29.6733C35.4896 29.6733 35.6265 29.716 35.6691 29.7083C35.7384 29.6943 36.3825 29.4733 36.5005 29.3994C36.4963 29.3967 34.5917 28.3079 33.9761 27.9551C33.36 27.6035 29.2851 25.2727 28.4665 24.8045C27.8974 24.4788 24.9549 22.7956 24.4558 22.5103C23.5156 21.9727 20.4444 20.2157 20.4444 20.2157L20.4436 20.2153Z" fill="white"/>
<path fill-rule="evenodd" clip-rule="evenodd" d="M20.4436 20.2153V20.3966C20.5609 20.847 21.5126 23.4943 22.4359 24.102C23.3587 24.7092 28.6291 26.9448 28.6291 26.9448L35.4926 29.6752C35.4926 29.6752 35.6272 29.7167 35.6715 29.708C35.7422 29.6939 36.3782 29.476 36.5001 29.3998L33.9757 27.9555C33.3385 27.5921 29.3128 25.2887 28.4661 24.8049C27.8778 24.4681 24.9719 22.8059 24.4554 22.5107L20.444 20.2161L20.4436 20.2153ZM20.4436 20.2153V20.3982C20.5647 20.8633 21.5488 23.4878 22.502 24.1161C23.4556 24.7431 28.6499 26.9535 28.6499 26.9535L35.495 29.676C35.495 29.676 35.628 29.7164 35.6738 29.7076C35.7472 29.6924 36.374 29.4786 36.5001 29.3994C36.4959 29.3967 34.6336 28.3323 33.9757 27.9551L28.4649 24.8037C27.8578 24.4567 24.9888 22.8158 24.4554 22.5099C23.4506 21.9346 20.444 20.2153 20.444 20.2153H20.4436Z" fill="white"/>
<path fill-rule="evenodd" clip-rule="evenodd" d="M20.4436 20.2153V20.3997C20.5678 20.8801 21.5841 23.4818 22.5689 24.1294C23.5537 24.7774 28.6691 26.9615 28.6691 26.9615L35.4973 29.6767C35.4973 29.6767 35.6288 29.7164 35.6761 29.7068C35.7514 29.6927 36.3702 29.4817 36.5001 29.3998C36.4951 29.3971 34.6544 28.3445 33.9757 27.9555L28.4649 24.8041C27.8378 24.4448 25.0057 22.8257 24.4547 22.5103L20.444 20.2157L20.4436 20.2153ZM20.4436 20.2153V20.4012C20.5724 20.8969 21.6199 23.4753 22.6351 24.1427C23.6506 24.8113 28.6899 26.9692 28.6899 26.9692L35.4996 29.6779C35.4996 29.6779 35.6292 29.716 35.6784 29.7064C35.7561 29.6908 36.3659 29.4836 36.4997 29.3994C36.4947 29.3967 34.6759 28.3563 33.9753 27.9551C33.2743 27.5555 29.3967 25.3363 28.4646 24.8037C27.8182 24.4334 25.023 22.8345 24.4543 22.5099C23.3853 21.8977 20.4436 20.2153 20.4436 20.2153Z" fill="white"/>
<path fill-rule="evenodd" clip-rule="evenodd" d="M20.4436 20.2153V20.4027C20.5759 20.9132 21.6549 23.4688 22.7016 24.1572C23.7471 24.8456 28.7099 26.9775 28.7099 26.9775L35.5019 29.6794C35.5019 29.6794 35.6303 29.7164 35.6807 29.7068C35.7607 29.6904 36.3609 29.487 36.4997 29.4005C36.4947 29.3975 34.6967 28.3692 33.9753 27.9555C33.2531 27.5429 29.4247 25.3531 28.4646 24.8041L24.4543 22.5103C23.3526 21.8798 20.4436 20.2157 20.4436 20.2157V20.2153ZM20.4436 20.2153V20.4046C20.5797 20.93 21.6903 23.4627 22.7681 24.1709C23.8456 24.8792 28.7299 26.9855 28.7299 26.9855L35.5053 29.6802C35.5053 29.6802 35.6311 29.7167 35.683 29.7061C35.7657 29.6897 36.3578 29.4893 36.4997 29.4005L33.9753 27.9555L28.4638 24.8041C27.7778 24.4109 25.0564 22.8551 24.4543 22.5103L20.4436 20.2157V20.2153Z" fill="white"/>
<path fill-rule="evenodd" clip-rule="evenodd" d="M20.4436 20.2153V20.4058C20.584 20.9468 21.7264 23.4562 22.8346 24.185C23.9421 24.9131 28.7507 26.9932 28.7507 26.9932L35.5073 29.6813C35.5073 29.6813 35.6322 29.7164 35.6853 29.7061C35.7703 29.6886 36.3528 29.492 36.4997 29.4005L33.9753 27.9555C33.2112 27.5189 29.4805 25.3847 28.4638 24.8041C27.7578 24.3999 25.0741 22.8642 24.4543 22.5103C23.2876 21.8424 20.4436 20.2157 20.4436 20.2157V20.2153Z" fill="white"/>
<path fill-rule="evenodd" clip-rule="evenodd" d="M20.4436 20.2153V20.4077C20.5878 20.9632 21.7629 23.4497 22.9004 24.1984C24.0394 24.9477 28.771 27.0019 28.771 27.0019L35.5103 29.6817C35.5103 29.6817 35.6338 29.716 35.6884 29.7049C35.7757 29.6874 36.3494 29.4935 36.5001 29.4001L33.9757 27.9551L28.4642 24.8037L24.4547 22.5091C23.2557 21.8241 20.444 20.2153 20.444 20.2153H20.4436Z" fill="white"/>
<path fill-rule="evenodd" clip-rule="evenodd" d="M20.4436 20.2153V20.4092C20.5916 20.9799 21.7975 23.4437 22.9669 24.2128C24.1363 24.9813 28.791 27.0099 28.791 27.0099L35.513 29.6832C35.513 29.6832 35.6334 29.7164 35.6899 29.7053C35.7799 29.687 36.3448 29.4973 36.4997 29.4005C36.494 29.3975 34.7813 28.4176 33.9753 27.9555C33.1685 27.4941 29.5366 25.4178 28.4638 24.8041L24.4543 22.5095C23.2222 21.8055 20.4436 20.2157 20.4436 20.2157V20.2153Z" fill="white"/>
<path fill-rule="evenodd" clip-rule="evenodd" d="M20.4436 20.2153V20.4111C20.5955 20.9971 21.8337 23.4372 23.0334 24.2266C24.2328 25.0156 28.8114 27.0179 28.8114 27.0179L35.5157 29.6847C35.5157 29.6847 35.6349 29.7164 35.6918 29.7046C35.7849 29.6863 36.3409 29.4996 36.4997 29.4005C36.494 29.3967 34.8032 28.4294 33.9753 27.9555C33.1478 27.4823 29.5651 25.4335 28.4638 24.803C27.6986 24.3656 25.1253 22.8939 24.4531 22.5091C23.1895 21.7868 20.4436 20.2153 20.4436 20.2153Z" fill="white"/>
<path fill-rule="evenodd" clip-rule="evenodd" d="M20.4436 20.2153V20.4123C20.6001 21.0134 21.8691 23.4307 23.0999 24.2399C24.3308 25.0494 28.8318 27.0256 28.8318 27.0256L35.5192 29.6851C35.5192 29.6851 35.6361 29.7164 35.6945 29.7045C35.7895 29.6851 36.3371 29.5022 36.4997 29.4005C36.494 29.3967 34.8239 28.4424 33.9745 27.9566C33.1259 27.4709 29.5932 25.4495 28.463 24.803C27.6786 24.3546 25.143 22.9042 24.4531 22.5091C23.1572 21.7685 20.4436 20.2153 20.4436 20.2153Z" fill="white"/>
<path fill-rule="evenodd" clip-rule="evenodd" d="M20.4436 20.2153V20.4138C20.6028 21.0298 21.9044 23.4246 23.1665 24.2544C24.4277 25.0841 28.8522 27.0339 28.8522 27.0339L35.5215 29.6863C35.5215 29.6863 35.6368 29.7164 35.6968 29.7038C35.7949 29.6844 36.3332 29.5042 36.5001 29.4005C36.4944 29.3967 34.8459 28.4542 33.9749 27.9567C33.1047 27.458 29.6205 25.4651 28.4634 24.803C27.6593 24.3435 25.1603 22.9133 24.4535 22.5091L20.444 20.2153H20.4436Z" fill="white"/>
<path fill-rule="evenodd" clip-rule="evenodd" d="M20.4436 20.2112V20.4124C20.607 21.0429 21.9402 23.4137 23.233 24.2636C24.5246 25.114 28.8722 27.0386 28.8722 27.0386L35.5242 29.6837C35.5242 29.6837 35.638 29.7115 35.6995 29.6997C35.7991 29.6799 36.3294 29.5027 36.5001 29.3965C36.4944 29.3926 34.8666 28.4619 33.9749 27.9526C33.0839 27.4421 29.6485 25.4774 28.4634 24.7989C27.6397 24.3284 25.1772 22.9196 24.4535 22.5051C23.093 21.7271 20.444 20.2112 20.444 20.2112H20.4436ZM20.4436 20.2112V20.4128C20.6113 21.0581 21.9756 23.4076 23.2988 24.2773C24.6227 25.1479 28.8929 27.0459 28.8929 27.0459L35.5261 29.6841C35.5261 29.6841 35.6384 29.7111 35.7018 29.6993C35.8041 29.6788 36.3252 29.5054 36.5001 29.3961C36.4936 29.3923 34.8885 28.4737 33.9749 27.9522L28.4634 24.7985L24.4535 22.5047C23.0607 21.7081 20.444 20.2108 20.444 20.2108L20.4436 20.2112Z" fill="white"/>
<path fill-rule="evenodd" clip-rule="evenodd" d="M20.4436 20.2112V20.4147C20.6151 21.0753 22.0117 23.4011 23.3653 24.2911C24.7196 25.1818 28.9133 27.0539 28.9133 27.0539L35.5288 29.6852C35.5288 29.6852 35.6395 29.7111 35.7041 29.6986C35.8083 29.678 36.3213 29.5085 36.5001 29.3961C36.4936 29.3923 34.9093 28.4859 33.9749 27.9522L28.4626 24.7985C27.5997 24.3048 25.2114 22.9386 24.4535 22.5047C23.028 21.6894 20.444 20.2108 20.444 20.2108L20.4436 20.2112ZM20.4436 20.2112V20.4162C20.619 21.092 22.0471 23.395 23.4318 24.3055C24.8165 25.2161 28.9329 27.0622 28.9329 27.0622L35.5319 29.6868C35.5319 29.6868 35.6399 29.7115 35.7064 29.6986C35.813 29.6772 36.3167 29.5104 36.4997 29.3961C36.4932 29.3923 34.9305 28.4981 33.9745 27.9522C33.0193 27.4051 29.7324 25.525 28.4623 24.7985C27.5798 24.2937 25.2279 22.9489 24.4531 22.5047L20.4436 20.2108V20.2112Z" fill="white"/>
<path fill-rule="evenodd" clip-rule="evenodd" d="M20.4436 20.2161V20.4233C20.6232 21.1133 22.0832 23.3922 23.4979 24.3237C24.9142 25.2552 28.9529 27.0747 28.9529 27.0747L35.5342 29.692C35.5342 29.692 35.6407 29.716 35.7088 29.7023C35.8176 29.6809 36.3125 29.5175 36.4997 29.4005C36.4932 29.3967 34.9516 28.5144 33.9745 27.9566C32.9986 27.3978 29.7612 25.5455 28.4623 24.8022C27.5601 24.2871 25.2456 22.9625 24.4531 22.5091L20.4436 20.2153V20.2161Z" fill="white"/>
<path fill-rule="evenodd" clip-rule="evenodd" d="M20.4437 20.2112V20.42C20.6264 21.1252 22.1184 23.3817 23.565 24.3326C25.0112 25.2842 28.973 27.0786 28.973 27.0786L35.5378 29.6883C35.5378 29.6883 35.6428 29.7115 35.7116 29.6978C35.8231 29.6757 36.3095 29.5161 36.5003 29.3961C36.4937 29.3923 34.9729 28.5217 33.975 27.9522L28.4616 24.7977C27.5411 24.2705 25.2631 22.9679 24.4525 22.5047C22.9301 21.6342 20.4434 20.2108 20.4434 20.2108L20.4437 20.2112Z" fill="white"/>
<path fill-rule="evenodd" clip-rule="evenodd" d="M20.4437 20.2153V20.426C20.6302 21.146 22.1545 23.3793 23.6315 24.3511C25.1081 25.323 28.993 27.0911 28.993 27.0911L35.5397 29.6935C35.5397 29.6935 35.6431 29.7156 35.7139 29.7015C35.8277 29.6794 36.3053 29.5228 36.5003 29.4005C36.4937 29.3967 34.9944 28.5392 33.975 27.9567C32.9564 27.373 29.8171 25.5779 28.4616 24.8022L24.4525 22.5091C22.8982 21.6192 20.4434 20.2153 20.4434 20.2153H20.4437Z" fill="white"/>
<path fill-rule="evenodd" clip-rule="evenodd" d="M20.4436 20.2153V20.4275C20.6344 21.1628 22.1898 23.3732 23.6975 24.3648C25.2057 25.3573 29.0137 27.0991 29.0137 27.0991L35.5419 29.695C35.5419 29.695 35.6434 29.7156 35.7161 29.7015C35.8322 29.6783 36.301 29.5251 36.4998 29.4005C36.4932 29.3967 35.0147 28.551 33.9746 27.9567C32.9344 27.3612 29.8451 25.5939 28.4611 24.8022L24.452 22.5091L20.4429 20.2153H20.4436Z" fill="white"/>
<path fill-rule="evenodd" clip-rule="evenodd" d="M20.4436 20.2161V20.4298C20.6382 21.1799 22.2259 23.3671 23.7645 24.3793C25.303 25.3908 29.0337 27.1071 29.0337 27.1071L35.5446 29.6958C35.5446 29.6958 35.6446 29.7156 35.7184 29.7015C35.8368 29.6775 36.2971 29.5285 36.4998 29.4005L33.9746 27.9566C32.9132 27.349 29.8727 25.6099 28.4611 24.8022C27.4802 24.2418 25.3137 23.0017 24.452 22.5084C22.8316 21.5826 20.4429 20.2153 20.4429 20.2153L20.4436 20.2161Z" fill="white"/>
<path fill-rule="evenodd" clip-rule="evenodd" d="M20.4436 20.2112V20.4265C20.6421 21.1918 22.2609 23.3558 23.8298 24.3882C25.3999 25.4202 29.0537 27.1114 29.0537 27.1114L35.5477 29.6932C35.5477 29.6932 35.6453 29.7115 35.7207 29.6963C35.8418 29.6723 36.2929 29.5264 36.4998 29.3961L33.9746 27.9522C32.8917 27.3327 29.9008 25.621 28.4604 24.7977L24.452 22.5039C22.7997 21.5595 20.4429 20.2108 20.4429 20.2108L20.4436 20.2112ZM20.4436 20.2112V20.4284C20.6467 21.2086 22.2971 23.35 23.8967 24.4027C25.4968 25.4545 29.0748 27.1194 29.0748 27.1194L35.5504 29.694C35.5504 29.694 35.6465 29.7115 35.7238 29.6967C35.8468 29.6719 36.2883 29.529 36.5002 29.3972C36.4929 29.3926 35.0793 28.5835 33.9749 27.9526C32.8717 27.3202 29.93 25.6374 28.4607 24.7981L24.4524 22.5043L20.4433 20.2112H20.4436Z" fill="white"/>
<path fill-rule="evenodd" clip-rule="evenodd" d="M20.4437 20.2112V20.4295C20.6506 21.225 22.3326 23.3432 23.963 24.4156C25.5938 25.4885 29.0946 27.127 29.0946 27.127L35.5528 29.6944C35.5528 29.6944 35.6481 29.7111 35.7258 29.6951C35.8508 29.6704 36.2842 29.531 36.5003 29.3968C36.493 29.3923 35.1002 28.5949 33.975 27.9522C32.8503 27.3084 29.9571 25.6534 28.4609 24.7977L24.4525 22.5039L20.4434 20.2108L20.4437 20.2112ZM20.4437 20.2112V20.4314C20.6537 21.2418 22.3687 23.3371 24.0295 24.4294C25.6915 25.5227 29.1149 27.135 29.1149 27.135L35.5555 29.6951C35.5555 29.6951 35.6485 29.7111 35.7285 29.6951C35.8569 29.6696 36.2807 29.534 36.5003 29.3968C36.493 29.3923 35.1217 28.6079 33.975 27.9522C32.8291 27.2965 29.9851 25.6698 28.4609 24.797C27.4022 24.192 25.3831 23.0365 24.4525 22.5039C22.7025 21.5035 20.4434 20.2108 20.4434 20.2108L20.4437 20.2112Z" fill="white"/>
<path fill-rule="evenodd" clip-rule="evenodd" d="M20.4436 20.2153V20.437C20.6578 21.2626 22.4039 23.3347 24.0963 24.4479C25.7882 25.5611 29.1348 27.1475 29.1348 27.1475L35.5588 29.7015C35.5588 29.7015 35.6499 29.7156 35.7311 29.6996C35.8606 29.6737 36.2767 29.5411 36.5005 29.4013C36.4932 29.3967 35.1427 28.6241 33.9753 27.9567C32.8078 27.288 30.0135 25.6899 28.4611 24.8014C27.3825 24.1847 25.4002 23.0509 24.4527 22.5084C22.6704 21.4893 20.4436 20.2153 20.4436 20.2153Z" fill="white"/>
<path fill-rule="evenodd" clip-rule="evenodd" d="M20.4436 20.2153V20.4386C20.6616 21.2797 22.4389 23.3282 24.1624 24.4616C25.8855 25.5954 29.1556 27.1562 29.1556 27.1562L35.5607 29.7023C35.5607 29.7023 35.6503 29.716 35.7322 29.6992C35.8653 29.6733 36.2725 29.5434 36.5001 29.4017L33.9749 27.957C32.7867 27.2766 30.0411 25.7062 28.4603 24.8018L24.452 22.5088C22.6377 21.4714 20.4436 20.2157 20.4436 20.2157V20.2153Z" fill="white"/>
<path fill-rule="evenodd" clip-rule="evenodd" d="M20.4436 20.2112V20.436C20.6655 21.2917 22.4751 23.3181 24.2293 24.4713C25.9832 25.6248 29.1759 27.1586 29.1759 27.1586L35.5634 29.6982C35.5634 29.6982 35.6515 29.7111 35.7357 29.6944C35.8703 29.6677 36.2686 29.5412 36.5001 29.3968L33.9749 27.9522C32.7648 27.2596 30.0692 25.7182 28.4603 24.797C27.3433 24.1581 25.4344 23.0662 24.452 22.5039C22.6051 21.4479 20.4436 20.2108 20.4436 20.2108V20.2112Z" fill="white"/>
<path fill-rule="evenodd" clip-rule="evenodd" d="M20.4437 20.2161V20.4424C20.6698 21.3133 22.5114 23.3164 24.2956 24.4898C26.0798 25.664 29.1968 27.1722 29.1968 27.1722L35.5666 29.7049C35.5666 29.7049 35.6524 29.716 35.737 29.6984C35.875 29.6714 36.2645 29.5483 36.5003 29.4013C36.493 29.396 35.2067 28.6607 33.975 27.9566L28.4605 24.8014C27.3234 24.1504 25.4515 23.0802 24.4521 22.5084C22.5729 21.4336 20.4437 20.2153 20.4437 20.2153V20.2161ZM20.4437 20.2161V20.4443C20.6737 21.3304 22.5464 23.3103 24.3621 24.5043C26.1771 25.6982 29.2157 27.1806 29.2157 27.1806L35.5685 29.7061C35.5685 29.7061 35.6528 29.7156 35.7393 29.6988C35.8796 29.671 36.2603 29.5522 36.4999 29.4017C36.4914 29.3963 35.2271 28.6729 33.9747 27.957C32.7222 27.2397 30.1251 25.7546 28.4593 24.8018C27.303 24.1397 25.4688 23.0909 24.4517 22.5088C22.5398 21.4157 20.4434 20.2157 20.4434 20.2157L20.4437 20.2161Z" fill="white"/>
<path fill-rule="evenodd" clip-rule="evenodd" d="M20.4437 20.2153V20.445C20.6775 21.346 22.5821 23.3031 24.4279 24.5172C26.274 25.7318 29.2368 27.1878 29.2368 27.1878L35.5712 29.7068C35.5712 29.7068 35.6539 29.7152 35.742 29.6977C35.8846 29.6699 36.2565 29.5537 36.5003 29.4013C36.4918 29.396 35.2494 28.6851 33.975 27.9567L28.4597 24.8011C27.2834 24.1286 25.4861 23.1004 24.4521 22.5088C22.5083 21.3963 20.4437 20.2157 20.4437 20.2157V20.2153ZM20.4437 20.2153V20.4466C20.681 21.3624 22.6175 23.2958 24.4944 24.5313C26.3717 25.7657 29.2568 27.1955 29.2568 27.1955L35.5735 29.7076C35.5735 29.7076 35.6543 29.7148 35.7439 29.6973C35.8892 29.6687 36.2519 29.5567 36.4999 29.4009C36.4914 29.3956 35.2698 28.6969 33.9747 27.9563C32.6796 27.2157 30.1812 25.7866 28.4593 24.8007C27.2626 24.1172 25.5026 23.1095 24.4517 22.5084C22.4748 21.3776 20.4434 20.2153 20.4434 20.2153H20.4437Z" fill="white"/>
<path fill-rule="evenodd" clip-rule="evenodd" d="M20.4437 20.2153V20.4481C20.6848 21.3796 22.6529 23.2905 24.5609 24.5451C26.4694 25.7992 29.2768 27.2046 29.2768 27.2046L35.577 29.7084C35.577 29.7084 35.6554 29.7148 35.7466 29.6966C35.8939 29.6676 36.248 29.559 36.4999 29.4009C36.4914 29.3956 35.2913 28.7087 33.9747 27.9563C32.6588 27.2027 30.2093 25.8023 28.4593 24.8007L24.4517 22.5084C22.4429 21.359 20.4434 20.2153 20.4434 20.2153H20.4437Z" fill="white"/>
<path fill-rule="evenodd" clip-rule="evenodd" d="M20.4437 20.2153V20.4507C20.6887 21.3959 22.689 23.2833 24.6275 24.5591C26.5659 25.8339 29.2976 27.2122 29.2976 27.2122L35.5789 29.7091C35.5789 29.7091 35.6566 29.7148 35.7489 29.6966C35.8989 29.6668 36.2438 29.5613 36.4999 29.4009L33.9747 27.9563C32.6373 27.1909 30.2374 25.8183 28.4585 24.8007L24.4517 22.5084C22.4099 21.3407 20.4434 20.2153 20.4434 20.2153H20.4437ZM20.4437 20.2153V20.4519C20.6929 21.4127 22.7244 23.2768 24.694 24.5721C26.6632 25.8674 29.3176 27.2199 29.3176 27.2199L35.5816 29.7106C35.5816 29.7106 35.6578 29.7145 35.7512 29.6966C35.9035 29.6661 36.2403 29.5636 36.4999 29.4009L33.9747 27.9563C32.6161 27.1787 30.2651 25.8339 28.4585 24.8007C27.2042 24.0829 25.5542 23.1389 24.4517 22.5084C22.3776 21.3213 20.4434 20.2153 20.4434 20.2153H20.4437Z" fill="white"/>
<path fill-rule="evenodd" clip-rule="evenodd" d="M20.4437 20.2153V20.4538C20.6972 21.4295 22.7602 23.2703 24.7605 24.5858C26.7605 25.9013 29.3376 27.2279 29.3376 27.2279L35.5847 29.7114C35.5847 29.7114 35.6585 29.7145 35.7535 29.6954C35.9081 29.6653 36.2361 29.5663 36.4999 29.4009C36.491 29.3956 35.3547 28.7453 33.9747 27.9563C32.5946 27.1669 30.2931 25.8499 28.4585 24.8007L24.451 22.5084L20.4434 20.2153H20.4437ZM20.4437 20.2153V20.4553C20.701 21.4462 22.7955 23.2642 24.8263 24.6003C26.8574 25.9356 29.3576 27.2362 29.3576 27.2362L35.587 29.7122C35.587 29.7122 35.6593 29.7148 35.7562 29.6954C35.9123 29.6646 36.2322 29.5693 36.4999 29.4009L33.9747 27.9563C32.5742 27.1543 30.3212 25.8659 28.4585 24.8007C27.1642 24.0608 25.588 23.1591 24.451 22.5084L20.4434 20.2153H20.4437Z" fill="white"/>
<path fill-rule="evenodd" clip-rule="evenodd" d="M20.4437 20.2112V20.4528C20.7048 21.4585 22.8317 23.2537 24.8935 24.6095C26.9554 25.9654 29.3787 27.2398 29.3787 27.2398L35.5897 29.7092C35.5897 29.7092 35.6604 29.7104 35.7589 29.6902C35.9173 29.6589 36.2284 29.5671 36.4999 29.3965C36.491 29.3911 35.397 28.7652 33.9747 27.9518C32.5523 27.1381 30.3493 25.8782 28.4574 24.7962C27.1438 24.0446 25.6053 23.1638 24.451 22.5039L20.4434 20.2108L20.4437 20.2112ZM20.4437 20.2112V20.4543C20.7083 21.4753 22.8671 23.2472 24.9601 24.624C27.0523 25.9997 29.3987 27.2485 29.3987 27.2485L35.5924 29.7108C35.5924 29.7108 35.6612 29.7108 35.7612 29.6909C35.9223 29.6593 36.2246 29.5702 36.5003 29.3972L33.975 27.9526C32.5319 27.127 30.3777 25.8946 28.4578 24.797L24.4513 22.5039C22.2476 21.244 20.4437 20.2116 20.4437 20.2116V20.2112Z" fill="white"/>
<path fill-rule="evenodd" clip-rule="evenodd" d="M20.4437 20.2153V20.4599C20.7121 21.495 22.9028 23.2452 25.0254 24.6418C27.1492 26.0385 29.4183 27.261 29.4183 27.261L35.5951 29.7156C35.5951 29.7156 35.6612 29.7148 35.7635 29.6943C35.9265 29.6619 36.2199 29.5769 36.4999 29.4013C36.491 29.396 35.4393 28.794 33.9747 27.9567L28.4574 24.7999C27.1046 24.0265 25.6392 23.1884 24.451 22.508L20.4434 20.2157L20.4437 20.2153Z" fill="white"/>
<path fill-rule="evenodd" clip-rule="evenodd" d="M20.4436 20.2112V20.4577C20.7159 21.5081 22.9381 23.2346 25.0922 24.6518C27.2464 26.0679 29.4386 27.2645 29.4386 27.2645L35.5976 29.7127C35.5976 29.7127 35.663 29.7104 35.766 29.6898C35.9322 29.6563 36.2163 29.5755 36.5005 29.3968C36.4909 29.3915 35.4611 28.8025 33.9753 27.9522C32.4898 27.1019 30.4345 25.9258 28.458 24.7955L24.4516 22.5035L20.444 20.2112H20.4436ZM20.4436 20.2112V20.4589C20.7201 21.5244 22.9742 23.2281 25.1583 24.6652C27.3429 26.1022 29.4593 27.2722 29.4593 27.2722L35.5999 29.7134C35.5999 29.7134 36.0325 29.6894 36.5001 29.3965L33.9749 27.9518C32.4675 27.0897 30.4618 25.9422 28.4576 24.7951C24.4481 22.5012 20.4436 20.2108 20.4436 20.2108V20.2112Z" fill="white"/>
<path fill-rule="evenodd" clip-rule="evenodd" d="M5.2868 29.717C5.2868 29.717 4.8492 29.6923 4.37354 29.3947C4.42775 29.362 20.4435 20.2019 20.4435 20.2019V23.6855L5.2868 29.717Z" fill="white"/>
<path fill-rule="evenodd" clip-rule="evenodd" d="M4.37441 29.3921C4.42824 29.3593 20.4405 20.2019 20.4405 20.2019C20.4413 20.2202 20.4359 23.6646 20.3467 23.7099C20.3233 23.7228 5.27921 29.7121 5.27921 29.7121C5.27921 29.7121 4.84584 29.6866 4.37441 29.3921ZM4.37441 29.3921C4.42824 29.3605 20.4371 20.203 20.4371 20.203C20.439 20.2396 20.4275 23.6447 20.2498 23.7369C20.2021 23.7606 5.26921 29.7087 5.26921 29.7087C5.26921 29.7087 4.83969 29.6831 4.37402 29.3921H4.37441Z" fill="white"/>
<path fill-rule="evenodd" clip-rule="evenodd" d="M4.37427 29.3939C4.42733 29.3622 20.4339 20.2064 20.4339 20.2064C20.4358 20.2612 20.4196 23.6275 20.1516 23.7646C20.0812 23.8012 5.26138 29.7078 5.26138 29.7078C5.26138 29.7078 4.83455 29.6819 4.37427 29.3935V29.3939Z" fill="white"/>
<path fill-rule="evenodd" clip-rule="evenodd" d="M4.37538 29.3957C4.42768 29.3644 20.4311 20.2108 20.4311 20.2108C20.4342 20.2832 20.4127 23.6099 20.0562 23.7931C19.962 23.8415 5.25366 29.7069 5.25366 29.7069C5.25366 29.7069 4.83067 29.6806 4.375 29.3957H4.37538Z" fill="white"/>
<path fill-rule="evenodd" clip-rule="evenodd" d="M4.37524 29.3942C4.42677 29.3629 20.4275 20.2108 20.4275 20.2108C20.4306 20.3011 20.4045 23.5889 19.958 23.8183C19.8411 23.8785 5.2439 29.702 5.2439 29.702C5.2439 29.702 4.82476 29.6757 4.37524 29.3938V29.3942ZM4.37601 29.3942C4.42716 29.3637 20.4252 20.2124 20.4252 20.2124C20.4291 20.3213 20.3972 23.5699 19.8615 23.8445C19.7208 23.9173 5.23621 29.6989 5.23621 29.6989C5.23621 29.6989 4.82053 29.6727 4.37563 29.3942H4.37601Z" fill="white"/>
<path fill-rule="evenodd" clip-rule="evenodd" d="M4.37587 29.3944C4.42625 29.3639 20.4216 20.2153 20.4216 20.2153C20.4255 20.3418 20.3889 23.5507 19.7645 23.8719C19.5995 23.9561 5.22761 29.6969 5.22761 29.6969C5.22761 29.6969 4.81462 29.6702 4.37587 29.3944ZM4.37587 29.3944C4.42509 29.3651 20.4186 20.2168 20.4186 20.2168C20.4232 20.3616 20.3809 23.5313 19.6668 23.8985C19.4791 23.9953 5.21838 29.695 5.21838 29.695C5.21838 29.695 4.80962 29.6672 4.37549 29.3948L4.37587 29.3944Z" fill="white"/>
<path fill-rule="evenodd" clip-rule="evenodd" d="M4.37695 29.3958C4.42579 29.3665 20.4158 20.2198 20.4158 20.2198C20.4216 20.3824 20.3739 23.5129 19.5714 23.9266C19.3599 24.0344 5.21139 29.6926 5.21139 29.6926C5.21139 29.6926 4.80609 29.664 4.37734 29.3955L4.37695 29.3958ZM4.37695 29.3958C4.42502 29.3673 20.4123 20.2224 20.4123 20.2224C20.4189 20.4026 20.3658 23.4938 19.4741 23.9529C19.2391 24.0737 5.20216 29.6896 5.20216 29.6896C5.20216 29.6896 4.80071 29.661 4.37695 29.3958Z" fill="white"/>
<path fill-rule="evenodd" clip-rule="evenodd" d="M4.37744 29.3916C4.42589 29.3631 20.4097 20.2198 20.4097 20.2198C20.4163 20.4182 20.3586 23.4702 19.3769 23.975C19.1189 24.1083 5.1938 29.6823 5.1938 29.6823C5.1938 29.6823 4.79581 29.6538 4.37744 29.3916ZM4.37744 29.3916C4.42474 29.3631 20.4067 20.2213 20.4067 20.2213C20.414 20.4381 20.3505 23.4508 19.28 24.0017C18.9977 24.1464 5.18534 29.6797 5.18534 29.6797C5.18534 29.6797 4.7912 29.6503 4.37744 29.3916Z" fill="white"/>
<path fill-rule="evenodd" clip-rule="evenodd" d="M4.37744 29.3931C4.42397 29.3653 20.4036 20.2242 20.4036 20.2242C20.4109 20.4597 20.3428 23.4332 19.1831 24.0298C18.877 24.1867 5.17611 29.6784 5.17611 29.6784C5.17611 29.6784 4.78505 29.6487 4.37744 29.3931ZM4.37821 29.3931C4.42397 29.3653 20.4005 20.2269 20.4005 20.2269C20.409 20.4791 20.3355 23.4137 19.0862 24.0568C18.7578 24.2252 5.16881 29.6762 5.16881 29.6762C5.16881 29.6762 4.78197 29.6461 4.37859 29.3935L4.37821 29.3931Z" fill="white"/>
<path fill-rule="evenodd" clip-rule="evenodd" d="M4.37817 29.3937C4.42393 29.3671 20.397 20.2287 20.397 20.2287C20.4055 20.5003 20.327 23.395 18.9889 24.0834C18.6366 24.2643 5.15954 29.673 5.15954 29.673C5.15954 29.673 4.7754 29.6429 4.37817 29.3934V29.3937ZM4.37933 29.3949C4.42393 29.3678 20.3947 20.2314 20.3947 20.2314C20.4043 20.5213 20.3201 23.3759 18.8923 24.1104C18.5174 24.3043 5.15185 29.6707 5.15185 29.6707C5.15185 29.6707 4.77193 29.6398 4.37971 29.3949H4.37933Z" fill="white"/>
<path fill-rule="evenodd" clip-rule="evenodd" d="M4.37953 29.3948C4.42337 29.3685 20.3907 20.2332 20.3907 20.2332C20.4011 20.541 20.3122 23.3571 18.7953 24.1374C18.3965 24.3423 5.14283 29.6687 5.14283 29.6687C5.14283 29.6687 4.76637 29.6371 4.37915 29.3948H4.37953ZM4.37953 29.3948C4.42337 29.3685 20.3876 20.2343 20.3876 20.2343C20.3988 20.5604 20.3045 23.3369 18.6984 24.1633C18.2754 24.3812 5.13399 29.6652 5.13399 29.6652C5.13399 29.6652 4.76137 29.6336 4.37953 29.3948Z" fill="white"/>
<path fill-rule="evenodd" clip-rule="evenodd" d="M4.38013 29.3954C4.42319 29.3691 20.3851 20.2376 20.3851 20.2376C20.3974 20.5812 20.2971 23.3189 18.6017 24.1913C18.1564 24.4207 5.12612 29.6636 5.12612 29.6636C5.12612 29.6636 4.75697 29.6312 4.38013 29.3954Z" fill="white"/>
<path fill-rule="evenodd" clip-rule="evenodd" d="M4.38013 29.3984C4.42281 29.3728 20.382 20.2421 20.382 20.2421C20.394 20.604 20.289 23.3028 18.5044 24.2202C18.0349 24.4614 5.11727 29.6635 5.11727 29.6635C5.11727 29.6635 4.75082 29.6308 4.38013 29.3984Z" fill="white"/>
<path fill-rule="evenodd" clip-rule="evenodd" d="M4.3811 29.3968C4.42263 29.3713 20.3799 20.2421 20.3799 20.2421C20.3926 20.6223 20.2823 23.2811 18.4084 24.245C17.9147 24.4987 5.10941 29.6586 5.10941 29.6586C5.10941 29.6586 4.74718 29.6258 4.3811 29.3965V29.3968ZM4.3811 29.3968C4.42263 29.3721 20.3757 20.2444 20.3757 20.2444C20.3896 20.6425 20.2738 23.2624 18.3108 24.272C17.7943 24.5372 5.10056 29.6563 5.10056 29.6563C5.10056 29.6563 4.74179 29.6231 4.3811 29.3968ZM4.3811 29.3968C4.42186 29.3721 20.3726 20.2463 20.3726 20.2463C20.3869 20.6623 20.2661 23.2426 18.2139 24.2983C17.6736 24.576 5.0921 29.6532 5.0921 29.6532C5.0921 29.6532 4.7368 29.6189 4.3811 29.3968Z" fill="white"/>
<path fill-rule="evenodd" clip-rule="evenodd" d="M4.38135 29.4C4.42134 29.376 20.3698 20.251 20.3698 20.251C20.384 20.6849 20.2583 23.2264 18.1176 24.3285C17.5535 24.6181 5.0835 29.653 5.0835 29.653C5.0835 29.653 4.73166 29.6191 4.38173 29.4H4.38135ZM4.38135 29.4C4.42057 29.376 20.3663 20.2533 20.3663 20.2533C20.3817 20.7051 20.2502 23.2073 18.0195 24.3548C17.432 24.6566 5.07466 29.6511 5.07466 29.6511C5.07466 29.6511 4.72704 29.616 4.38135 29.4Z" fill="white"/>
<path fill-rule="evenodd" clip-rule="evenodd" d="M4.38208 29.3958C4.4213 29.373 20.3632 20.251 20.3632 20.251C20.3794 20.7207 20.2433 23.1837 17.9234 24.3765C17.3127 24.6912 5.06655 29.6435 5.06655 29.6435C5.06655 29.6435 4.72162 29.6084 4.38208 29.3958Z" fill="white"/>
<path fill-rule="evenodd" clip-rule="evenodd" d="M4.38208 29.3992C4.42053 29.3763 20.3602 20.2555 20.3602 20.2555C20.3767 20.7439 20.2352 23.1673 17.8253 24.4069C17.1916 24.7327 5.0577 29.6441 5.0577 29.6441C5.0577 29.6441 4.71701 29.6083 4.38208 29.3988V29.3992ZM4.38208 29.3996C4.41976 29.3775 20.3571 20.2578 20.3571 20.2578C20.3736 20.7645 20.2271 23.1482 17.7284 24.434C17.0716 24.7719 5.04886 29.6422 5.04886 29.6422C5.04886 29.6422 4.71124 29.606 4.38208 29.3999V29.3996Z" fill="white"/>
<path fill-rule="evenodd" clip-rule="evenodd" d="M4.38344 29.3995C4.42036 29.3774 20.3546 20.2599 20.3546 20.2599C20.3723 20.7845 20.22 23.1294 17.6325 24.4598C16.9515 24.8107 5.04137 29.6387 5.04137 29.6387C5.04137 29.6387 4.7076 29.6029 4.38344 29.3995ZM4.38344 29.3995C4.41959 29.3774 20.3515 20.2615 20.3515 20.2615C20.37 20.8044 20.2119 23.11 17.5348 24.4868C16.8304 24.8488 5.03215 29.636 5.03215 29.636C5.03215 29.636 4.70222 29.5995 4.38306 29.3995H4.38344Z" fill="white"/>
<path fill-rule="evenodd" clip-rule="evenodd" d="M4.3833 29.4009C4.41945 29.3795 20.3475 20.2644 20.3475 20.2644C20.3668 20.8248 20.2041 23.0916 17.4378 24.5145C16.7102 24.8894 5.02355 29.6344 5.02355 29.6344C5.02355 29.6344 4.69708 29.5974 4.3833 29.4009ZM4.38407 29.4009C4.41945 29.3795 20.3448 20.2663 20.3448 20.2663C20.3648 20.8458 20.1968 23.0725 17.3416 24.5416C16.5899 24.9283 5.01547 29.631 5.01547 29.631C5.01547 29.631 4.69246 29.594 4.38407 29.4009Z" fill="white"/>
<path fill-rule="evenodd" clip-rule="evenodd" d="M4.38403 29.4011C4.41826 29.3809 20.3417 20.2689 20.3417 20.2689C20.3617 20.8658 20.1891 23.0538 17.2439 24.5677C16.4687 24.9666 5.00659 29.629 5.00659 29.629C5.00659 29.629 4.68781 29.5909 4.38403 29.4007V29.4011Z" fill="white"/>
<path fill-rule="evenodd" clip-rule="evenodd" d="M4.38501 29.3996C4.41962 29.3794 20.3389 20.2689 20.3389 20.2689C20.3604 20.8841 20.1816 23.0328 17.148 24.5933C16.3497 25.004 4.99911 29.6244 4.99911 29.6244C4.99911 29.6244 4.68302 29.5863 4.38501 29.3996Z" fill="white"/>
<path fill-rule="evenodd" clip-rule="evenodd" d="M4.38501 29.3977C4.41846 29.3779 20.3358 20.2689 20.3358 20.2689C20.3573 20.902 20.1735 23.0115 17.0511 24.6177C16.229 25.0409 4.98988 29.6202 4.98988 29.6202C4.98988 29.6202 4.67764 29.5813 4.38501 29.3977ZM4.38501 29.3977C4.41769 29.3779 20.3327 20.2704 20.3327 20.2704C20.355 20.9222 20.1658 22.992 16.9531 24.6451C16.1079 25.079 4.98142 29.6171 4.98142 29.6171C4.98142 29.6171 4.67264 29.5783 4.38501 29.3981V29.3977Z" fill="white"/>
<path fill-rule="evenodd" clip-rule="evenodd" d="M4.3855 29.3987C4.41741 29.3793 20.3297 20.2733 20.3297 20.2733C20.352 20.9427 20.1582 22.9737 16.857 24.6713C15.9884 25.1185 4.97268 29.6144 4.97268 29.6144C4.97268 29.6144 4.66736 29.5755 4.3855 29.3984V29.3987Z" fill="white"/>
<path fill-rule="evenodd" clip-rule="evenodd" d="M4.3855 29.4017C4.41741 29.3823 20.3267 20.2778 20.3267 20.2778C20.3501 20.9655 20.1505 22.9572 16.7601 24.7016C15.8672 25.1607 4.96422 29.615 4.96422 29.615C4.96422 29.615 4.66313 29.5754 4.3855 29.4017Z" fill="white"/>
<path fill-rule="evenodd" clip-rule="evenodd" d="M4.38696 29.3998C4.41811 29.3803 20.3239 20.2778 20.3239 20.2778C20.3481 20.9837 20.1435 22.9358 16.6635 24.726C15.7476 25.1969 4.95684 29.6105 4.95684 29.6105C4.95684 29.6105 4.65844 29.5708 4.38735 29.4002L4.38696 29.3998Z" fill="white"/>
<path fill-rule="evenodd" clip-rule="evenodd" d="M4.38696 29.3975C4.41734 29.3792 20.3204 20.2778 20.3204 20.2778C20.3454 21.0009 20.1355 22.9141 16.5662 24.7496C15.6268 25.2331 4.94761 29.6051 4.94761 29.6051C4.94761 29.6051 4.65344 29.564 4.38696 29.3975Z" fill="white"/>
<path fill-rule="evenodd" clip-rule="evenodd" d="M4.38686 29.4004C4.41647 29.3829 20.3173 20.2823 20.3173 20.2823C20.3422 21.0236 20.1273 22.8976 16.4685 24.7796C15.506 25.2745 4.93866 29.605 4.93866 29.605C4.93866 29.605 4.64796 29.5639 4.38647 29.4004H4.38686ZM4.38724 29.4012C4.41685 29.3837 20.3138 20.2849 20.3138 20.2849C20.3399 21.0446 20.1196 22.879 16.372 24.8071C15.3852 25.3145 4.93059 29.6031 4.93059 29.6031C4.93059 29.6031 4.64334 29.5616 4.38724 29.4016V29.4012Z" fill="white"/>
<path fill-rule="evenodd" clip-rule="evenodd" d="M4.38721 29.4011C4.41605 29.3836 20.3107 20.2867 20.3107 20.2867C20.3368 21.0643 20.1119 22.8598 16.275 24.8336C15.2648 25.3525 4.92171 29.6 4.92171 29.6C4.92171 29.6 4.63831 29.5577 4.38721 29.4007V29.4011ZM4.38798 29.4011C4.41605 29.3843 20.308 20.2886 20.308 20.2886C20.3353 21.0841 20.1046 22.84 16.1781 24.8599C15.1449 25.391 4.91363 29.5973 4.91363 29.5973C4.91363 29.5973 4.63408 29.555 4.38798 29.4015V29.4011Z" fill="white"/>
<path fill-rule="evenodd" clip-rule="evenodd" d="M4.3877 29.4021C4.415 29.3854 20.3046 20.2912 20.3046 20.2912C20.3319 21.1057 20.0962 22.8224 16.0809 24.8872C15.0239 25.4309 4.9045 29.596 4.9045 29.596C4.9045 29.596 4.62803 29.5534 4.3877 29.4021ZM4.3877 29.4021L20.3016 20.2927C20.3296 21.1255 20.0885 22.8022 15.984 24.9139C14.9039 25.4697 4.89566 29.5926 4.89566 29.5926C4.89566 29.5926 4.62341 29.5499 4.3877 29.4021Z" fill="white"/>
<path fill-rule="evenodd" clip-rule="evenodd" d="M4.38867 29.4024C4.4152 29.3868 20.2983 20.2957 20.2983 20.2957C20.3271 21.1456 20.0814 22.7834 15.8873 24.9408C14.7837 25.5085 4.88818 29.5898 4.88818 29.5898C4.88818 29.5898 4.61862 29.5464 4.38867 29.4024ZM4.38867 29.4024C4.41444 29.3875 20.2952 20.2972 20.2952 20.2972C20.3252 21.1658 20.0733 22.7647 15.7904 24.9675C14.6626 25.5473 4.87895 29.5872 4.87895 29.5872C4.87895 29.5872 4.61362 29.543 4.38867 29.4024Z" fill="white"/>
<path fill-rule="evenodd" clip-rule="evenodd" d="M4.38965 29.4038C4.41426 29.389 20.2927 20.3001 20.2927 20.3001C20.3231 21.1874 20.0659 22.7464 15.693 24.9956C14.5432 25.5873 4.87108 29.5859 4.87108 29.5859C4.87108 29.5859 4.60922 29.5417 4.38965 29.4042V29.4038ZM4.38965 29.4046L20.2897 20.3032C20.32 21.2076 20.0578 22.7277 15.5961 25.0223C14.4221 25.6265 4.86224 29.5836 4.86224 29.5836C4.86224 29.5836 4.60383 29.5391 4.38965 29.405V29.4046Z" fill="white"/>
<path fill-rule="evenodd" clip-rule="evenodd" d="M4.38965 29.3996C4.41349 29.3856 20.2858 20.3001 20.2858 20.3001C20.3177 21.2225 20.0501 22.7033 15.4992 25.0444C14.301 25.6604 4.85339 29.576 4.85339 29.576C4.85339 29.576 4.59883 29.5307 4.38965 29.3996Z" fill="white"/>
<path fill-rule="evenodd" clip-rule="evenodd" d="M4.39062 29.403C4.4137 29.3896 20.2833 20.3046 20.2833 20.3046C20.3152 21.2456 20.043 22.6872 15.4025 25.0736C14.182 25.7014 4.84553 29.5759 4.84553 29.5759C4.84553 29.5759 4.59481 29.5306 4.39062 29.403Z" fill="white"/>
<path fill-rule="evenodd" clip-rule="evenodd" d="M4.39062 29.4014C4.41293 29.3877 20.2803 20.3046 20.2803 20.3046C20.3129 21.2635 20.0353 22.6659 15.3056 25.0991C14.0608 25.7392 4.83668 29.571 4.83668 29.571C4.83668 29.571 4.58904 29.526 4.39062 29.4014Z" fill="white"/>
<path fill-rule="evenodd" clip-rule="evenodd" d="M4.39062 29.4032C4.41293 29.3895 20.2768 20.3091 20.2768 20.3091C20.3095 21.2855 20.0269 22.6482 15.2087 25.1272C13.9401 25.7787 4.82822 29.5705 4.82822 29.5705C4.82822 29.5705 4.58404 29.5244 4.39062 29.4032Z" fill="white"/>
<path fill-rule="evenodd" clip-rule="evenodd" d="M4.39136 29.4062C4.41289 29.3932 20.2748 20.3135 20.2748 20.3135C20.3083 21.3086 20.0199 22.6325 15.1113 25.1572C13.8209 25.8208 4.82011 29.5707 4.82011 29.5707C4.82011 29.5707 4.57939 29.5246 4.39136 29.4065V29.4062ZM4.39136 29.4062C4.41212 29.3932 20.2706 20.3147 20.2706 20.3147C20.3052 21.3277 20.0118 22.6123 15.0144 25.1831C13.6997 25.8593 4.81127 29.5677 4.81127 29.5677C4.81127 29.5677 4.57401 29.5208 4.39136 29.4062Z" fill="white"/>
<path fill-rule="evenodd" clip-rule="evenodd" d="M4.39233 29.4031C4.41233 29.3909 20.2685 20.3135 20.2685 20.3135C20.3039 21.3448 20.0047 22.5902 14.9189 25.2063C13.5796 25.8947 4.8034 29.5616 4.8034 29.5616C4.8034 29.5616 4.57037 29.514 4.39233 29.4031Z" fill="white"/>
<path fill-rule="evenodd" clip-rule="evenodd" d="M4.39233 29.4049C4.41233 29.3927 20.2654 20.318 20.2654 20.318C20.3008 21.3676 19.997 22.5733 14.8208 25.2356C13.4596 25.9358 4.79571 29.5607 4.79571 29.5607C4.79571 29.5607 4.5646 29.5127 4.39233 29.4049Z" fill="white"/>
<path fill-rule="evenodd" clip-rule="evenodd" d="M4.39233 29.4038C4.41195 29.3927 20.262 20.318 20.262 20.318C20.2981 21.3851 19.989 22.552 14.7239 25.26C13.3385 25.9728 4.78571 29.5565 4.78571 29.5565C4.78571 29.5565 4.55961 29.5082 4.39233 29.4034V29.4038Z" fill="white"/>
<path fill-rule="evenodd" clip-rule="evenodd" d="M4.39307 29.4019C4.41152 29.3908 20.2596 20.318 20.2596 20.318C20.2958 21.4038 19.982 22.5314 14.6278 25.2855C13.2181 26.0093 4.77798 29.552 4.77798 29.552C4.77798 29.552 4.55534 29.5036 4.39307 29.4019Z" fill="white"/>
<path fill-rule="evenodd" clip-rule="evenodd" d="M4.39297 29.4081C4.41065 29.3971 20.2553 20.3269 20.2553 20.3269C20.293 21.4302 19.9731 22.5183 14.5296 25.318C13.0976 26.0548 4.76827 29.5552 4.76827 29.5552C4.76827 29.5552 4.54947 29.5068 4.39258 29.4085L4.39297 29.4081ZM4.39373 29.4081C4.41142 29.3978 20.253 20.328 20.253 20.328C20.2911 21.4496 19.9661 22.4984 14.4335 25.3439C12.9773 26.0925 4.76058 29.5525 4.76058 29.5525C4.76058 29.5525 4.54524 29.5034 4.39373 29.4077V29.4081Z" fill="white"/>
<path fill-rule="evenodd" clip-rule="evenodd" d="M4.39355 29.4051C4.41009 29.3948 20.2486 20.3269 20.2486 20.3269C20.2878 21.4668 19.9579 22.4767 14.3356 25.3679C12.8571 26.1287 4.75232 29.5464 4.75232 29.5464C4.75232 29.5464 4.54006 29.4973 4.39355 29.4051Z" fill="white"/>
<path fill-rule="evenodd" clip-rule="evenodd" d="M4.39355 29.4035C4.40932 29.394 20.2455 20.3269 20.2455 20.3269C20.2847 21.4854 19.9498 22.4554 14.2387 25.3931C12.7364 26.1664 4.74271 29.5418 4.74271 29.5418C4.74271 29.5418 4.53429 29.4919 4.39355 29.4035Z" fill="white"/>
<path fill-rule="evenodd" clip-rule="evenodd" d="M4.39453 29.4013C4.40953 29.3917 20.2434 20.3269 20.2434 20.3269C20.2834 21.5026 19.9431 22.4337 14.1428 25.4171C12.6162 26.2019 4.73523 29.5365 4.73523 29.5365C4.73523 29.5365 4.53104 29.4858 4.39453 29.4009V29.4013Z" fill="white"/>
<path fill-rule="evenodd" clip-rule="evenodd" d="M4.39418 29.4042C4.40918 29.3959 20.2396 20.3314 20.2396 20.3314C20.2804 21.5254 19.9343 22.4172 14.044 25.4467C12.4955 26.2437 4.72642 29.5372 4.72642 29.5372C4.72642 29.5372 4.52416 29.4861 4.3938 29.4042H4.39418Z" fill="white"/>
<path fill-rule="evenodd" clip-rule="evenodd" d="M4.39502 29.4068C4.40925 29.3984 20.2374 20.3358 20.2374 20.3358C20.2785 21.5481 19.9274 22.4007 13.9487 25.4763C12.3756 26.2851 4.7188 29.5371 4.7188 29.5371C4.7188 29.5371 4.52115 29.4852 4.3954 29.4068H4.39502ZM4.39502 29.4068C4.40886 29.3988 20.2335 20.3377 20.2335 20.3377C20.2762 21.5675 19.9193 22.3817 13.8514 25.5022C12.2545 26.3232 4.70995 29.5336 4.70995 29.5336C4.70995 29.5336 4.51538 29.4822 4.39502 29.4064V29.4068Z" fill="white"/>
<path fill-rule="evenodd" clip-rule="evenodd" d="M4.39502 29.4074C4.40809 29.3994 20.23 20.3403 20.23 20.3403C20.2727 21.5884 19.9113 22.3621 13.7538 25.5291C12.1333 26.3631 4.70111 29.532 4.70111 29.532C4.70111 29.532 4.50961 29.4798 4.39502 29.4074ZM4.39579 29.4082C4.40886 29.4009 20.2281 20.343 20.2281 20.343C20.2712 21.6093 19.9043 22.3442 13.6576 25.5569C12.0141 26.4027 4.69303 29.5297 4.69303 29.5297C4.69303 29.5297 4.50576 29.4771 4.39579 29.4078V29.4082Z" fill="white"/>
<path fill-rule="evenodd" clip-rule="evenodd" d="M4.39589 29.4081C4.4082 29.4009 20.2248 20.3448 20.2248 20.3448C20.2678 21.6287 19.896 22.3239 13.5604 25.5831C11.8927 26.4403 4.68429 29.5266 4.68429 29.5266C4.68429 29.5266 4.50087 29.4732 4.39551 29.4081H4.39589ZM4.39666 29.4081C4.4082 29.402 20.2217 20.3467 20.2217 20.3467C20.2663 21.6485 19.8891 22.3053 13.4639 25.6102C11.7739 26.4796 4.6766 29.5243 4.6766 29.5243C4.6766 29.5243 4.49625 29.471 4.39666 29.4081Z" fill="white"/>
<path fill-rule="evenodd" clip-rule="evenodd" d="M4.39673 29.4047C4.40826 29.3986 20.2187 20.3448 20.2187 20.3448C20.2637 21.6649 19.8814 22.2828 13.3671 25.6331C11.6528 26.5146 4.66782 29.5174 4.66782 29.5174C4.66782 29.5174 4.49094 29.4637 4.39673 29.4047ZM4.39673 29.4058C4.40711 29.3993 20.2152 20.3475 20.2152 20.3475C20.261 21.6858 19.873 22.2637 13.2694 25.6601C11.5321 26.5539 4.65898 29.5155 4.65898 29.5155C4.65898 29.5155 4.48556 29.4614 4.39673 29.4058Z" fill="white"/>
<path fill-rule="evenodd" clip-rule="evenodd" d="M4.39771 29.4065C4.40693 29.4007 20.2127 20.3492 20.2127 20.3492C20.2585 21.707 19.8659 22.2453 13.1731 25.6878C11.4127 26.5934 4.65073 29.5135 4.65073 29.5135C4.65073 29.5135 4.48192 29.4587 4.39771 29.4065ZM4.39771 29.4065C4.40616 29.4007 20.2093 20.3519 20.2093 20.3519C20.2558 21.7268 19.8574 22.2255 13.0758 25.7137C11.2912 26.6315 4.64188 29.5101 4.64188 29.5101C4.64188 29.5101 4.47615 29.4556 4.39771 29.4061V29.4065Z" fill="white"/>
<path fill-rule="evenodd" clip-rule="evenodd" d="M4.39868 29.4067C4.40676 29.4018 20.2068 20.3537 20.2068 20.3537C20.2541 21.7469 19.8507 22.2067 12.9795 25.7414C11.1714 26.671 4.6344 29.5084 4.6344 29.5084C4.6344 29.5084 4.47136 29.4532 4.39868 29.4071V29.4067ZM4.39868 29.4067C4.40676 29.4018 20.2037 20.356 20.2037 20.356C20.2518 21.7667 19.843 22.1877 12.8826 25.7673C11.0507 26.7091 4.62555 29.505 4.62555 29.505C4.62555 29.505 4.46713 29.4498 4.39907 29.4067H4.39868Z" fill="white"/>
<path fill-rule="evenodd" clip-rule="evenodd" d="M4.39868 29.407C4.40599 29.4032 20.2003 20.3582 20.2003 20.3582C20.2483 21.7872 19.8349 22.1681 12.7853 25.7939C10.9303 26.7482 4.61671 29.5022 4.61671 29.5022C4.61671 29.5022 4.46098 29.4459 4.39868 29.407ZM4.39907 29.407C4.4056 29.4032 20.1968 20.3597 20.1968 20.3597C20.2464 21.807 19.8276 22.1491 12.688 25.8209C10.8096 26.7874 4.60864 29.4999 4.60864 29.4999C4.60864 29.4999 4.45713 29.4436 4.39945 29.407H4.39907Z" fill="white"/>
<path fill-rule="evenodd" clip-rule="evenodd" d="M4.39907 29.4084C4.4056 29.4046 20.1933 20.3626 20.1933 20.3626C20.2437 21.8282 19.8188 22.1303 12.5907 25.8486C10.6892 26.827 4.59902 29.498 4.59902 29.498C4.59902 29.498 4.45098 29.4408 4.39868 29.4084H4.39907ZM4.39983 29.4092C4.4056 29.4061 20.191 20.3657 20.191 20.3657C20.2418 21.8488 19.8119 22.1124 12.4942 25.8753C10.5693 26.8662 4.59172 29.496 4.59172 29.496C4.59172 29.496 4.44752 29.4385 4.39983 29.4092Z" fill="white"/>
<path fill-rule="evenodd" clip-rule="evenodd" d="M4.39966 29.4087C4.40466 29.4056 20.1878 20.3671 20.1878 20.3671C20.2393 21.8681 19.804 22.0933 12.3972 25.9022C10.4483 26.9049 4.58231 29.4933 4.58231 29.4933C4.58231 29.4933 4.44157 29.4354 4.39966 29.4091V29.4087ZM4.39966 29.4087C4.4035 29.406 20.1847 20.3682 20.1847 20.3682C20.2358 21.8879 19.7959 22.0727 12.3003 25.9281C10.3284 26.943 4.57385 29.4898 4.57385 29.4898C4.57385 29.4898 4.43696 29.4319 4.39966 29.4087Z" fill="white"/>
<path fill-rule="evenodd" clip-rule="evenodd" d="M4.40112 29.4101C4.40381 29.4074 20.1819 20.3716 20.1819 20.3716C20.2346 21.9095 19.7893 22.0554 12.2037 25.9566C10.2083 26.9833 4.56609 29.4878 4.56609 29.4878C4.56609 29.4878 4.43189 29.4299 4.40112 29.4101Z" fill="white"/>
<path fill-rule="evenodd" clip-rule="evenodd" d="M4.40102 29.4119C4.40371 29.4096 20.1784 20.376 20.1784 20.376C20.231 21.9312 19.7808 22.0375 12.1063 25.9851C10.0867 27.0236 4.55675 29.4877 4.55675 29.4877L4.40063 29.4119H4.40102Z" fill="white"/>
<path fill-rule="evenodd" clip-rule="evenodd" d="M4.40112 29.4108C4.40343 29.4092 20.1754 20.376 20.1754 20.376C20.2292 21.9494 19.7728 22.0173 12.0099 26.0102C9.96723 27.0609 4.54878 29.4832 4.54878 29.4832L4.40151 29.4108H4.40112Z" fill="white"/>
<path fill-rule="evenodd" clip-rule="evenodd" d="M4.40151 29.4089C4.40305 29.4074 20.1723 20.376 20.1723 20.376C20.2262 21.9677 19.7651 21.9952 11.9122 26.035C9.8461 27.0971 4.53955 29.4782 4.53955 29.4782L4.40112 29.4089H4.40151Z" fill="white"/>
<path fill-rule="evenodd" clip-rule="evenodd" d="M4.40161 29.4066C4.40238 29.4058 20.1693 20.376 20.1693 20.376C20.224 21.9853 19.7575 21.9742 11.8154 26.059C9.72661 27.1337 4.53159 29.4736 4.53159 29.4736L4.402 29.407L4.40161 29.4066ZM4.40238 29.4077C4.40315 29.4077 20.1663 20.3783 20.1663 20.3783C20.2216 22.0058 19.7506 21.9559 11.7196 26.0864C9.60625 27.1729 4.52351 29.471 4.52351 29.471L4.40238 29.4073V29.4077Z" fill="white"/>
<path fill-rule="evenodd" clip-rule="evenodd" d="M4.40259 29.4084L4.51449 29.4686C4.51449 29.4686 9.48533 27.2121 11.6214 26.1134C19.7423 21.9368 20.2192 22.0267 20.1634 20.3805L4.40259 29.4084Z" fill="white"/>
<path fill-rule="evenodd" clip-rule="evenodd" d="M4.52854 28.5125C4.52854 28.5125 4.33614 28.8538 4.37217 29.3914C4.5462 29.2928 20.4415 20.199 20.4415 20.199L17.3958 18.4563L4.52854 28.5125Z" fill="white"/>
<path fill-rule="evenodd" clip-rule="evenodd" d="M20.4417 20.198C20.4417 20.198 36.4436 29.3514 36.5099 29.3892C36.5365 28.8399 36.3625 28.5304 36.3625 28.5304L23.4873 18.4563L20.4417 20.198Z" fill="white"/>
<path fill-rule="evenodd" clip-rule="evenodd" d="M20.0259 2.09783C19.8335 2.25668 19.7084 2.44337 19.7084 2.44337L17.396 18.4585L20.4417 20.2012V1.82153C20.4417 1.82153 20.2694 1.89685 20.0259 2.09783Z" fill="white"/>
<path fill-rule="evenodd" clip-rule="evenodd" d="M17.9185 18.46C17.7935 18.3141 17.812 18.1064 17.8185 17.9788C17.8401 17.5056 19.8323 2.28583 19.8323 2.28583L19.765 2.36354L19.7074 2.43936L17.4044 18.3434C17.3905 18.4181 17.3617 18.4642 17.3048 18.5148L17.3063 18.5141L4.54833 28.4509C4.54833 28.4509 4.50911 28.5287 4.47681 28.6334C4.53372 28.5911 17.7055 18.6341 17.7055 18.6341L19.905 19.8231L20.103 19.8844C20.103 19.8844 18.0612 18.6268 17.9185 18.46Z" fill="white"/>
<path fill-rule="evenodd" clip-rule="evenodd" d="M23.4609 18.4712L23.5705 18.5205C23.5128 18.4712 23.4872 18.4237 23.4721 18.3491L23.4609 18.4712Z" fill="white"/>
<path fill-rule="evenodd" clip-rule="evenodd" d="M35.7092 29.7018L20.4436 23.394L5.17578 29.7018L5.2873 29.7155L20.3463 23.7228L20.3444 23.724C20.4159 23.6984 20.459 23.6969 20.5309 23.719L35.6 29.7155L35.7092 29.7018Z" fill="white"/>
<path fill-rule="evenodd" clip-rule="evenodd" d="M23.4895 18.4608L36.3386 28.4536C36.3386 28.4536 36.3705 28.5138 36.4086 28.6331C36.3544 28.5923 23.7306 19.0189 23.208 18.6307L23.4895 18.4608Z" fill="white"/>
<path fill-rule="evenodd" clip-rule="evenodd" d="M23.2079 18.6301C23.2079 18.6301 22.7065 18.9448 22.295 19.2L22.2446 19.1143C22.9041 18.7672 23.2336 18.5943 23.1829 18.2076C23.1421 17.902 21.1145 2.35727 21.1145 2.35727L21.1787 2.44222L23.489 18.4602L23.2075 18.6301H23.2079Z" fill="white"/>
<path fill-rule="evenodd" clip-rule="evenodd" d="M4.36967 29.29L19.8771 20.2385L19.9609 20.1893C19.9817 20.1775 20.0193 20.1261 19.9705 20.0465L20.1689 20.2069L4.37159 29.3544L4.3689 29.29H4.36967ZM36.5165 29.2892L20.9565 20.2137C20.9565 20.2137 20.8972 20.1844 20.8915 20.1455C20.883 20.0846 20.9403 20.0179 20.9403 20.0179L20.6896 20.1989L36.5142 29.3536L36.5165 29.2892ZM20.3562 1.86309L20.2085 19.7299C20.2085 19.7299 20.2116 19.8213 20.1959 19.8427C20.1612 19.891 20.1278 19.8853 20.0217 19.875L20.3012 19.9528L20.407 1.8349L20.3558 1.86271L20.3562 1.86309Z" fill="white"/>
<path fill-rule="evenodd" clip-rule="evenodd" d="M20.3015 20.4028H20.5779V23.6812H20.3015V20.4028Z" fill="white"/>
<path fill-rule="evenodd" clip-rule="evenodd" d="M22.1047 19.2083L20.4108 20.077L20.1897 20.0743L18.5005 19.2083C18.5005 19.2083 17.5976 18.7043 17.5653 18.7291C17.5334 18.7546 18.4505 19.2941 18.4505 19.2941L20.0552 20.3105L20.1855 20.4979V20.4987H20.4197V20.4979L20.5493 20.3105L22.1543 19.2941C22.1543 19.2941 23.0968 18.7519 23.0672 18.7241C23.0376 18.6963 22.1047 19.2083 22.1047 19.2083ZM20.5085 20.5901C20.487 20.5779 20.1105 20.5814 20.0894 20.5932L4.27742 29.5155L4.23281 29.4889L4.22974 29.4287L19.949 20.3215C19.9806 20.304 20.1486 20.0232 20.1486 19.9672L20.2543 1.94005L20.3028 1.91528L20.352 1.94157L20.4566 19.9669C20.4574 20.0362 20.6335 20.3036 20.6631 20.3212L36.3743 29.4271L36.3724 29.4873L36.3235 29.5171L20.5093 20.5894L20.5085 20.5901ZM20.427 20.8164C20.4324 20.7528 20.422 20.6496 20.4743 20.6225C20.5216 20.5977 20.6431 20.664 20.6673 20.6797C20.7427 20.6088 20.7961 20.517 20.8192 20.4137C20.7673 20.3772 20.6631 20.3383 20.6631 20.2789C20.6631 20.2225 20.7646 20.1802 20.8096 20.1448C20.7854 20.0663 20.7423 19.9943 20.6862 19.936C20.6573 19.9497 20.54 20.0236 20.4924 19.9962C20.4428 19.9669 20.4531 19.8651 20.4512 19.8129C20.4512 19.8099 20.3535 19.7699 20.2993 19.7699C20.247 19.7699 20.1486 19.7988 20.1486 19.8027C20.1486 19.8606 20.1571 19.9661 20.1109 19.9916C20.0613 20.0194 19.9371 19.9482 19.9136 19.9345C19.8579 19.9931 19.8141 20.0636 19.7894 20.1432C19.841 20.1756 19.9306 20.2198 19.9298 20.2789C19.9298 20.349 19.8337 20.3878 19.7806 20.4183C19.8048 20.5208 19.859 20.6115 19.9336 20.6816C19.9579 20.6663 20.0713 20.5974 20.1251 20.624C20.1797 20.6496 20.1736 20.7562 20.1736 20.8115C20.2151 20.8218 20.2555 20.8256 20.2993 20.8256L20.427 20.8164Z" fill="white"/>
</svg>
