<svg width="20" height="20" viewBox="0 0 20 20" fill="none" xmlns="http://www.w3.org/2000/svg">
<path d="M10 0C4.486 0 0 4.486 0 10C0 15.514 4.486 20 10 20C15.514 20 20 15.514 20 10C20 4.486 15.514 0 10 0ZM10 19.3333C4.85367 19.3333 0.666667 15.1463 0.666667 10C0.666667 4.85367 4.85367 0.666667 10 0.666667C15.1463 0.666667 19.3333 4.85367 19.3333 10C19.3333 15.1463 15.1463 19.3333 10 19.3333Z" fill="#00BFF3"/>
<path d="M10.3333 8.67372V5.29305C10.3333 5.10872 10.184 4.95972 10 4.95972C9.816 4.95972 9.66667 5.10872 9.66667 5.29305V8.67372C9.20033 8.79505 8.83533 9.16005 8.714 9.62638H6.33333C6.14933 9.62638 6 9.77538 6 9.95972C6 10.1441 6.14933 10.2931 6.33333 10.2931H8.714C8.863 10.8664 9.38067 11.2931 10 11.2931C10.7353 11.2931 11.3333 10.6951 11.3333 9.95972C11.3333 9.34005 10.9067 8.82272 10.3333 8.67372ZM10 10.6264C9.63233 10.6264 9.33333 10.3274 9.33333 9.95972C9.33333 9.59205 9.63233 9.29305 10 9.29305C10.3677 9.29305 10.6667 9.59205 10.6667 9.95972C10.6667 10.3274 10.3677 10.6264 10 10.6264Z" fill="#00BFF3"/>
<path d="M10.0013 3.29297C10.1853 3.29297 10.3346 3.14397 10.3346 2.95964V2.6263C10.3346 2.44197 10.1853 2.29297 10.0013 2.29297C9.8173 2.29297 9.66797 2.44197 9.66797 2.6263V2.95964C9.66797 3.14397 9.8173 3.29297 10.0013 3.29297Z" fill="#00BFF3"/>
<path d="M10.0013 16.627C9.8173 16.627 9.66797 16.776 9.66797 16.9603V17.2936C9.66797 17.478 9.8173 17.627 10.0013 17.627C10.1853 17.627 10.3346 17.478 10.3346 17.2936V16.9603C10.3346 16.776 10.1853 16.627 10.0013 16.627Z" fill="#00BFF3"/>
<path d="M17.3346 9.62695H17.0013C16.8173 9.62695 16.668 9.77595 16.668 9.96029C16.668 10.1446 16.8173 10.2936 17.0013 10.2936H17.3346C17.5186 10.2936 17.668 10.1446 17.668 9.96029C17.668 9.77595 17.5186 9.62695 17.3346 9.62695Z" fill="#00BFF3"/>
<path d="M2.9987 9.62695H2.66536C2.48136 9.62695 2.33203 9.77595 2.33203 9.96029C2.33203 10.1446 2.48136 10.2936 2.66536 10.2936H2.9987C3.1827 10.2936 3.33203 10.1446 3.33203 9.96029C3.33203 9.77595 3.1827 9.62695 2.9987 9.62695Z" fill="#00BFF3"/>
<path d="M14.9504 4.5383L14.7147 4.77397C14.5844 4.9043 14.5844 5.11497 14.7147 5.2453C14.7797 5.3103 14.865 5.34297 14.9504 5.34297C15.0357 5.34297 15.121 5.3103 15.186 5.2453L15.4217 5.00963C15.552 4.8793 15.552 4.66863 15.4217 4.5383C15.2914 4.40797 15.0807 4.4083 14.9504 4.5383Z" fill="#00BFF3"/>
<path d="M4.81364 14.6734L4.57797 14.9091C4.44764 15.0394 4.44764 15.2501 4.57797 15.3804C4.64297 15.4454 4.72831 15.4781 4.81364 15.4781C4.89898 15.4781 4.98431 15.4454 5.04931 15.3804L5.28498 15.1448C5.41531 15.0144 5.41531 14.8038 5.28498 14.6734C5.15464 14.5431 4.94364 14.5434 4.81364 14.6734Z" fill="#00BFF3"/>
<path d="M15.186 14.6732C15.0557 14.5429 14.845 14.5429 14.7147 14.6732C14.5844 14.8035 14.5844 15.0142 14.7147 15.1445L14.9504 15.3802C15.0154 15.4452 15.1007 15.4779 15.186 15.4779C15.2714 15.4779 15.3567 15.4452 15.4217 15.3802C15.552 15.2499 15.552 15.0392 15.4217 14.9089L15.186 14.6732Z" fill="#00BFF3"/>
<path d="M5.04931 4.53794C4.91898 4.4076 4.70831 4.4076 4.57797 4.53794C4.44764 4.66827 4.44764 4.87894 4.57797 5.00927L4.81364 5.24493C4.87864 5.30993 4.96398 5.3426 5.04931 5.3426C5.13464 5.3426 5.21998 5.30993 5.28498 5.24493C5.41531 5.1146 5.41531 4.90394 5.28498 4.7736L5.04931 4.53794Z" fill="#00BFF3"/>
</svg>
