<svg width="20" height="20" viewBox="0 0 20 20" fill="none" xmlns="http://www.w3.org/2000/svg">
<path d="M3.33333 8.48857H7.66667C7.851 8.48857 8 8.33923 8 8.15523C8 7.97123 7.851 7.8219 7.66667 7.8219H3.33333C3.149 7.8219 3 7.97123 3 8.15523C3 8.33923 3.149 8.48857 3.33333 8.48857Z" fill="#00BFF3"/>
<path d="M12 9.82178H3.33333C3.149 9.82178 3 9.97111 3 10.1551C3 10.3391 3.149 10.4884 3.33333 10.4884H12C12.1843 10.4884 12.3333 10.3391 12.3333 10.1551C12.3333 9.97111 12.1843 9.82178 12 9.82178Z" fill="#00BFF3"/>
<path d="M12 11.8218H3.33333C3.149 11.8218 3 11.9711 3 12.1551C3 12.3391 3.149 12.4884 3.33333 12.4884H12C12.1843 12.4884 12.3333 12.3391 12.3333 12.1551C12.3333 11.9711 12.1843 11.8218 12 11.8218Z" fill="#00BFF3"/>
<path d="M18.024 0.845111L6.64333 0.821777C5.55333 0.821777 4.66667 1.70844 4.66667 2.79844V4.50644L1.97667 4.51211C0.886667 4.51211 0 5.39878 0 6.48878V13.5358C0 14.6258 0.886667 15.5121 1.97667 15.5121H4V18.8454C4 18.9831 4.08467 19.1068 4.21333 19.1564C4.25233 19.1714 4.293 19.1788 4.33333 19.1788C4.42533 19.1788 4.51567 19.1404 4.58 19.0698L7.81467 15.5114L13.3567 15.4888C14.4467 15.4888 15.3333 14.6021 15.3333 13.5124V13.4748L17.0867 15.4034C17.151 15.4741 17.2413 15.5124 17.3333 15.5124C17.3737 15.5124 17.4143 15.5051 17.4533 15.4901C17.582 15.4404 17.6667 15.3168 17.6667 15.1791V11.8458H18.0233C19.1133 11.8458 20 10.9591 20 9.86944V2.82178C20 1.73211 19.1137 0.845444 18.024 0.845111ZM14.6667 13.5121C14.6667 14.2344 14.079 14.8218 13.3553 14.8218L7.66533 14.8451C7.572 14.8454 7.48267 14.8851 7.42 14.9541L4.66667 17.9831V15.1784C4.66667 14.9944 4.51767 14.8451 4.33333 14.8451H1.97667C1.25433 14.8451 0.666667 14.2574 0.666667 13.5354V6.48844C0.666667 5.76611 1.25433 5.17844 1.97733 5.17844L5 5.17211C5.00033 5.17211 5.00033 5.17211 5.00067 5.17211L13.3567 5.15478C14.079 5.15478 14.6667 5.74244 14.6667 6.46478V12.6118V13.5121ZM19.3333 9.86878C19.3333 10.5911 18.7457 11.1784 18.0233 11.1784H17.3333C17.149 11.1784 17 11.3278 17 11.5118V14.3164L15.3333 12.4831V6.46511C15.3333 5.37511 14.4467 4.48844 13.356 4.48844L5.33333 4.50478V2.79811C5.33333 2.07578 5.921 1.48811 6.64267 1.48811L18.023 1.51144C18.0233 1.51144 18.0233 1.51144 18.0237 1.51144C18.746 1.51144 19.3337 2.09911 19.3337 2.82144V9.86878H19.3333Z" fill="#00BFF3"/>
</svg>
