<svg width="20" height="20" viewBox="0 0 20 20" fill="none" xmlns="http://www.w3.org/2000/svg">
<path d="M0 2.83337V3.59704V16.403V17.1667H20V16.403V3.59704V2.83337H0ZM12.2083 10.188L10.393 12.012C10.1723 12.217 9.827 12.2167 9.61567 12.0207L7.79133 10.188L7.80733 10.1724L1.21567 3.50004H18.7887L12.1923 10.1727L12.2083 10.188ZM6.84133 10.1777L0.666667 16.1184V3.97437L6.84133 10.1777ZM7.31133 10.65L9.15233 12.4997C9.38867 12.72 9.692 12.8307 9.99667 12.8307C10.3043 12.8307 10.6133 12.7177 10.857 12.4907L12.689 10.65L18.768 16.5H1.22867L7.31133 10.65ZM13.159 10.178L19.3333 3.97404V16.1184L13.159 10.178Z" fill="#00BFF3"/>
</svg>
