<svg width="38" height="38" viewBox="0 0 38 38" fill="none" xmlns="http://www.w3.org/2000/svg">
<g clip-path="url(#clip0_2_792)">
<path d="M33.3896 7.69383L19.1075 0.0836138C18.8956 -0.0294681 18.6417 -0.0278811 18.4314 0.0875816L4.54454 7.6978C4.31679 7.82279 4.17554 8.06165 4.17554 8.32154V18.2624C4.18387 26.4341 9.02537 33.8269 16.5126 37.1007L18.4401 37.9407C18.6203 38.0193 18.8254 38.0197 19.0059 37.9415L21.1779 37.0035C28.804 33.8007 33.7653 26.3365 33.7661 18.0652V8.32154C33.7661 8.05887 33.6213 7.81723 33.3896 7.69383ZM25.9428 16.096L17.1954 23.2123C16.8963 23.4559 16.457 23.4162 16.2063 23.1226L12.4504 18.7243C12.1952 18.4255 12.2305 17.9768 12.5293 17.7216C12.8281 17.4669 13.2769 17.5022 13.532 17.8006L16.8368 21.6708L25.0449 14.993C25.3496 14.745 25.7976 14.791 26.0452 15.0957C26.2932 15.4005 26.2472 15.8484 25.9424 16.096H25.9428Z" fill="#00BFF3"/>
</g>
<defs>
<clipPath id="clip0_2_792">
<rect width="38" height="38" fill="white"/>
</clipPath>
</defs>
</svg>
