<svg width="40" height="40" viewBox="0 0 40 40" fill="none" xmlns="http://www.w3.org/2000/svg">
<path d="M20 0C8.97231 0 0 8.97154 0 20C0 31.0285 8.97231 40 20 40C31.0277 40 40 31.0285 40 20C40 8.97154 31.0277 0 20 0ZM20 38.4615C9.82077 38.4615 1.53846 30.1792 1.53846 20C1.53846 9.82077 9.82077 1.53846 20 1.53846C30.1792 1.53846 38.4615 9.82077 38.4615 20C38.4615 30.1792 30.1792 38.4615 20 38.4615Z" fill="white"/>
<path d="M29.4247 11.7968L17.6024 25.0968L10.4801 19.3991C10.1493 19.1337 9.66391 19.1883 9.39929 19.5191C9.13391 19.8514 9.18775 20.3353 9.51929 20.6006L17.2116 26.7545C17.3531 26.8676 17.5231 26.9229 17.6924 26.9229C17.9047 26.9229 18.1162 26.8353 18.2677 26.6645L30.5754 12.8183C30.8578 12.5014 30.8293 12.0145 30.5116 11.7329C30.1931 11.4499 29.7078 11.4783 29.4247 11.7968Z" fill="white"/>
</svg>
