<svg width="20" height="20" viewBox="0 0 20 20" fill="none" xmlns="http://www.w3.org/2000/svg">
<path d="M9.91845 10.7762C9.94279 10.7762 9.96714 10.7762 9.99635 10.7762C10.0061 10.7762 10.0158 10.7762 10.0256 10.7762C10.0402 10.7762 10.0597 10.7762 10.0743 10.7762C11.5009 10.7555 12.6549 10.3289 13.507 9.51306C15.3816 7.71564 15.0699 4.63436 15.0359 4.34031C14.9141 2.13288 13.6871 1.07679 12.6743 0.583954C11.9196 0.215359 11.0383 0.0165661 10.0548 0H10.0207C10.0158 0 10.0061 0 10.0012 0H9.97201C9.43154 0 8.37008 0.0745473 7.35244 0.567388C6.32993 1.06023 5.08345 2.11631 4.96172 4.34031C4.92764 4.63436 4.61602 7.71564 6.49061 9.51306C7.33783 10.3289 8.49181 10.7555 9.91845 10.7762ZM6.26177 4.44385C6.26177 4.43142 6.26664 4.419 6.26664 4.41071C6.42732 1.44125 8.90568 1.12235 9.96714 1.12235H9.98661C9.99635 1.12235 10.011 1.12235 10.0256 1.12235C11.3402 1.1472 13.5751 1.60277 13.7261 4.41071C13.7261 4.42314 13.7261 4.43556 13.7309 4.44385C13.7358 4.47284 14.0766 7.28907 12.5283 8.77173C11.9148 9.35982 11.0968 9.64973 10.0207 9.65801C10.011 9.65801 10.0061 9.65801 9.99635 9.65801C9.98661 9.65801 9.98175 9.65801 9.97201 9.65801C8.90081 9.64973 8.07793 9.35982 7.4693 8.77173C5.9258 7.29735 6.2569 4.46869 6.26177 4.44385Z" fill="#00BFF3"/>
<path d="M19.9986 15.8885C19.9986 15.8844 19.9986 15.8802 19.9986 15.8761C19.9986 15.8429 19.9938 15.8098 19.9938 15.7725C19.9646 14.9525 19.9013 13.035 17.7881 12.4221C17.7735 12.4179 17.754 12.4138 17.7394 12.4096C15.5434 11.9334 13.7175 10.8566 13.698 10.8441C13.401 10.666 12.992 10.7282 12.7827 10.9808C12.5733 11.2334 12.6463 11.5813 12.9433 11.7594C13.0261 11.8091 14.964 12.9563 17.3888 13.4864C18.5233 13.8302 18.6499 14.8614 18.684 15.8057C18.684 15.8429 18.684 15.8761 18.6889 15.9092C18.6937 16.2819 18.6645 16.8576 18.5866 17.1889C17.7978 17.57 14.7059 18.887 10.0024 18.887C5.31836 18.887 2.20702 17.5658 1.41336 17.1848C1.33545 16.8535 1.30137 16.2778 1.31111 15.9051C1.31111 15.8719 1.31598 15.8388 1.31598 15.8015C1.35006 14.8573 1.47666 13.826 2.61115 13.4823C5.03595 12.9522 6.97385 11.8008 7.05662 11.7553C7.35364 11.5772 7.42667 11.2293 7.2173 10.9767C7.00793 10.724 6.59893 10.6619 6.30191 10.84C6.28244 10.8524 4.46627 11.9292 2.26058 12.4055C2.2411 12.4096 2.22649 12.4138 2.21189 12.4179C0.0987069 13.035 0.0354089 14.9525 0.00619438 15.7684C0.00619438 15.8057 0.00619427 15.8388 0.00132519 15.8719C0.00132519 15.8761 0.00132519 15.8802 0.00132519 15.8844C-0.00354389 16.0997 -0.00841287 17.2055 0.249648 17.7605C0.298339 17.8681 0.385983 17.9593 0.502841 18.0214C0.648913 18.1042 4.14978 20.001 10.0073 20.001C15.8648 20.001 19.3657 18.1001 19.5117 18.0214C19.6237 17.9593 19.7162 17.8681 19.7649 17.7605C20.0084 17.2096 20.0035 16.1039 19.9986 15.8885Z" fill="#00BFF3"/>
</svg>
