<svg width="17" height="17" viewBox="0 0 17 17" fill="none" xmlns="http://www.w3.org/2000/svg">
<path d="M15.2997 14.6951L14.3262 3.73374C14.3054 3.49039 14.1003 3.30613 13.8604 3.30613H11.8579C11.8301 1.47751 10.3352 0 8.49965 0C6.66407 0 5.16918 1.47751 5.14137 3.30613H3.13892C2.89556 3.30613 2.69393 3.49039 2.67307 3.73374L1.69965 14.6951C1.69965 14.709 1.69617 14.7229 1.69617 14.7368C1.69617 15.9849 2.83994 17 4.24791 17H12.7514C14.1594 17 15.3031 15.9849 15.3031 14.7368C15.3031 14.7229 15.3031 14.709 15.2997 14.6951ZM8.49965 0.93865C9.81724 0.93865 10.8915 1.9955 10.9193 3.30613H6.08002C6.10783 1.9955 7.18206 0.93865 8.49965 0.93865ZM12.7514 16.0613H4.24791C3.36489 16.0613 2.64873 15.4773 2.63483 14.7577L3.56652 4.24826H5.13789V5.67362C5.13789 5.93436 5.34648 6.14294 5.60722 6.14294C5.86795 6.14294 6.07654 5.93436 6.07654 5.67362V4.24826H10.9193V5.67362C10.9193 5.93436 11.1279 6.14294 11.3886 6.14294C11.6493 6.14294 11.8579 5.93436 11.8579 5.67362V4.24826H13.4293L14.3645 14.7577C14.3506 15.4773 13.6309 16.0613 12.7514 16.0613Z" fill="#00BFF3"/>
</svg>
