<svg width="17" height="17" viewBox="0 0 17 17" fill="none" xmlns="http://www.w3.org/2000/svg">
<g clip-path="url(#clip0)">
<path d="M8.44014 9.16008C8.45775 9.16008 8.47535 9.16008 8.49647 9.16008C8.50351 9.16008 8.51055 9.16008 8.51759 9.16008C8.52815 9.16008 8.54224 9.16008 8.5528 9.16008C9.58427 9.14247 10.4186 8.77987 11.0347 8.08635C12.39 6.5585 12.1647 3.93933 12.1401 3.68938C12.0521 1.813 11.1649 0.915303 10.4327 0.496376C9.88703 0.183061 9.24984 0.0140816 8.53871 0H8.51407C8.51055 0 8.50351 0 8.49999 0H8.47887C8.0881 0 7.32066 0.0633672 6.58489 0.482294C5.84561 0.901222 4.94439 1.79892 4.85638 3.68938C4.83174 3.93933 4.60643 6.5585 5.96178 8.08635C6.57433 8.77987 7.40867 9.14247 8.44014 9.16008ZM5.79632 3.77739C5.79632 3.76683 5.79984 3.75626 5.79984 3.74922C5.91602 1.2251 7.7079 0.954028 8.47535 0.954028H8.48943C8.49647 0.954028 8.50703 0.954028 8.51759 0.954028C9.4681 0.97515 11.084 1.36239 11.1931 3.74922C11.1931 3.75978 11.1931 3.77035 11.1966 3.77739C11.2001 3.80203 11.4466 6.1959 10.3271 7.4562C9.88351 7.9561 9.29208 8.20253 8.51407 8.20957C8.50703 8.20957 8.50351 8.20957 8.49647 8.20957C8.48943 8.20957 8.48591 8.20957 8.47887 8.20957C7.70438 8.20253 7.10943 7.9561 6.66938 7.4562C5.55342 6.20294 5.7928 3.79851 5.79632 3.77739Z" fill="#00BFF3"/>
<path d="M15.7282 13.5045C15.7282 13.501 15.7282 13.4975 15.7282 13.494C15.7282 13.4658 15.7247 13.4376 15.7247 13.406C15.7036 12.7089 15.6578 11.079 14.1299 10.558C14.1194 10.5544 14.1053 10.5509 14.0947 10.5474C12.507 10.1426 11.1869 9.22725 11.1728 9.21669C10.9581 9.06531 10.6624 9.11812 10.511 9.33286C10.3596 9.5476 10.4124 9.84332 10.6271 9.99469C10.687 10.0369 12.0881 11.0121 13.8413 11.4627C14.6615 11.7549 14.7531 12.6315 14.7777 13.4341C14.7777 13.4658 14.7777 13.494 14.7812 13.5221C14.7847 13.839 14.7636 14.3283 14.7073 14.6099C14.137 14.9338 11.9015 16.0533 8.50083 16.0533C5.11421 16.0533 2.86467 14.9303 2.29085 14.6064C2.23452 14.3248 2.20988 13.8354 2.21692 13.5186C2.21692 13.4904 2.22044 13.4623 2.22044 13.4306C2.24508 12.628 2.33661 11.7514 3.15687 11.4592C4.91002 11.0086 6.31114 10.0299 6.37099 9.99117C6.58573 9.8398 6.63854 9.54408 6.48716 9.32934C6.33578 9.11459 6.04007 9.06179 5.82533 9.21317C5.81124 9.22373 4.49814 10.139 2.9034 10.5439C2.88932 10.5474 2.87875 10.5509 2.86819 10.5544C1.34034 11.079 1.29458 12.7089 1.27345 13.4024C1.27345 13.4341 1.27345 13.4623 1.26993 13.4904C1.26993 13.494 1.26993 13.4975 1.26993 13.501C1.26641 13.6841 1.26289 14.624 1.44947 15.0958C1.48468 15.1873 1.54804 15.2647 1.63253 15.3175C1.73815 15.3879 4.26931 17.0003 8.50435 17.0003C12.7394 17.0003 15.2706 15.3844 15.3762 15.3175C15.4571 15.2647 15.524 15.1873 15.5592 15.0958C15.7352 14.6275 15.7317 13.6876 15.7282 13.5045Z" fill="#00BFF3"/>
</g>
<defs>
<clipPath id="clip0">
<rect width="17" height="17" fill="white"/>
</clipPath>
</defs>
</svg>
