<svg width="20" height="20" viewBox="0 0 20 20" fill="none" xmlns="http://www.w3.org/2000/svg">
<path d="M4.07423 13.2947C6.04687 15.6527 8.42151 17.5093 11.1318 18.823C12.1637 19.3121 13.5438 19.8923 15.0813 19.9917C15.1766 19.9959 15.2678 20 15.3631 20C16.395 20 17.2238 19.6436 17.8993 18.9101C17.9035 18.9059 17.9118 18.8976 17.9159 18.8893C18.1563 18.5993 18.4298 18.3382 18.7158 18.0605C18.9105 17.874 19.1095 17.6792 19.3001 17.4803C20.1828 16.5603 20.1828 15.3916 19.2918 14.5006L16.8011 12.0099C16.3784 11.5707 15.8728 11.3386 15.3424 11.3386C14.8119 11.3386 14.3022 11.5707 13.867 12.0058L12.3834 13.4894C12.2466 13.4107 12.1057 13.3402 11.9731 13.2739C11.8073 13.191 11.654 13.1123 11.5172 13.0253C10.1662 12.1674 8.93954 11.0485 7.76672 9.61044C7.1741 8.86034 6.77626 8.23042 6.49859 7.58807C6.88815 7.23581 7.25284 6.86697 7.6051 6.50642C7.72943 6.37795 7.8579 6.24948 7.98637 6.12101C8.43394 5.67344 8.67431 5.15541 8.67431 4.62909C8.67431 4.10278 8.43809 3.58475 7.98637 3.13717L6.75139 1.9022C6.60634 1.75715 6.46958 1.61625 6.32868 1.4712C6.05516 1.18939 5.76921 0.899296 5.4874 0.63821C5.06055 0.219644 4.5591 0 4.02864 0C3.50232 0 2.99673 0.219644 2.5533 0.642354L1.00336 2.19229C0.439746 2.75591 0.120641 3.4397 0.0543331 4.23125C-0.024407 5.22172 0.157939 6.27435 0.63038 7.54662C1.35562 9.51513 2.44969 11.3427 4.07423 13.2947ZM1.06552 4.31828C1.11525 3.76709 1.32661 3.30709 1.72445 2.90924L3.2661 1.36759C3.50647 1.13552 3.7717 1.01533 4.02864 1.01533C4.28144 1.01533 4.53838 1.13552 4.7746 1.37588C5.05226 1.63282 5.31335 1.9022 5.59515 2.18815C5.73606 2.3332 5.8811 2.47824 6.02615 2.62743L7.26113 3.86241C7.51807 4.11935 7.65069 4.38044 7.65069 4.63738C7.65069 4.89432 7.51807 5.15541 7.26113 5.41235C7.13266 5.54082 7.00419 5.67344 6.87572 5.80191C6.4903 6.19146 6.12976 6.5603 5.73191 6.91256C5.72362 6.92085 5.71948 6.92499 5.71119 6.93328C5.36722 7.27725 5.4211 7.60464 5.50398 7.85329C5.50813 7.86573 5.51227 7.87402 5.51641 7.88645C5.83552 8.65313 6.27895 9.38251 6.97103 10.2528C8.2143 11.7862 9.52387 12.9755 10.9661 13.8914C11.1443 14.0075 11.3349 14.0986 11.5131 14.1898C11.6789 14.2727 11.8322 14.3514 11.969 14.4385C11.9855 14.4467 11.998 14.455 12.0145 14.4633C12.1513 14.5338 12.2839 14.5669 12.4165 14.5669C12.7481 14.5669 12.9636 14.3556 13.034 14.2851L14.584 12.7352C14.8243 12.4948 15.0854 12.3663 15.3424 12.3663C15.6573 12.3663 15.9143 12.5611 16.0759 12.7352L18.5748 15.23C19.0722 15.7273 19.068 16.2661 18.5624 16.7924C18.3884 16.9789 18.206 17.1571 18.0112 17.3436C17.7211 17.6254 17.4186 17.9155 17.1451 18.2429C16.6685 18.7567 16.1007 18.9971 15.3672 18.9971C15.2968 18.9971 15.2222 18.993 15.1517 18.9888C13.7924 18.9018 12.5284 18.3713 11.5794 17.9196C9.0017 16.6722 6.73896 14.9026 4.86163 12.6564C3.31583 10.7957 2.27563 9.06341 1.58769 7.2068C1.16084 6.06714 0.999215 5.15126 1.06552 4.31828Z" fill="#fff"/>
</svg>
