<svg width="21" height="20" viewBox="0 0 21 20" fill="none" xmlns="http://www.w3.org/2000/svg">
<g clip-path="url(#clip0)">
<path d="M10.2755 16.25C13.1729 16.25 12.1398 14.4183 12.3634 13.8917C12.3601 13.4983 12.3568 13.12 12.3701 12.89C12.5537 12.9417 12.9868 13.1608 13.8814 14.0292C15.2625 15.4208 15.6155 16.25 16.7312 16.25H18.7849C19.4358 16.25 19.7746 15.9808 19.944 15.755C20.1075 15.5367 20.2678 15.1533 20.0925 14.5567C19.6344 13.12 16.9623 10.6392 16.7963 10.3775C16.8213 10.3292 16.8614 10.265 16.8822 10.2317H16.8806C17.408 9.53583 19.4207 6.52417 19.717 5.31917C19.7178 5.3175 19.7187 5.315 19.7187 5.3125C19.8789 4.7625 19.732 4.40583 19.5801 4.20417C19.3515 3.9025 18.9876 3.75 18.4961 3.75H16.4424C15.7548 3.75 15.2333 4.09583 14.9696 4.72667C14.5281 5.8475 13.2881 8.1525 12.3584 8.96833C12.3301 7.8125 12.3493 6.93 12.3643 6.27417C12.3943 4.995 12.4911 3.75 11.1618 3.75H7.93395C7.10113 3.75 6.30419 4.65833 7.16706 5.73667C7.92144 6.68167 7.43827 7.20833 7.60099 9.83C6.96678 9.15083 5.83854 7.31667 5.04077 4.9725C4.81712 4.33833 4.47832 3.75083 3.52449 3.75083H1.47081C0.637983 3.75083 0.140625 4.20417 0.140625 4.96333C0.140625 6.66833 3.92004 16.25 10.2755 16.25ZM3.52449 5.00083C3.70558 5.00083 3.72394 5.00083 3.85829 5.38167C4.67526 7.78417 6.50781 11.3392 7.84633 11.3392C8.8519 11.3392 8.8519 10.31 8.8519 9.9225L8.85106 6.8375C8.79599 5.81667 8.4238 5.30833 8.1793 5L11.1067 5.00333C11.1084 5.0175 11.09 8.41583 11.115 9.23917C11.115 10.4083 12.0447 11.0783 13.4959 9.61167C15.0271 7.88583 16.0861 5.30583 16.1287 5.20083C16.1913 5.05083 16.2455 5 16.4424 5H18.4961H18.5045C18.5036 5.0025 18.5036 5.005 18.5028 5.0075C18.315 5.8825 16.4616 8.67083 15.8416 9.53667C15.8316 9.55 15.8224 9.56417 15.8132 9.57833C15.5404 10.0233 15.3184 10.515 15.8508 11.2067H15.8516C15.9 11.265 16.026 11.4017 16.2096 11.5917C16.7804 12.18 18.7381 14.1917 18.9117 14.9917C18.7965 15.01 18.6714 14.9967 16.7312 15.0008C16.3181 15.0008 15.9952 14.3842 14.7626 13.1425C13.6544 12.0658 12.9351 11.6258 12.28 11.6258C11.0082 11.6258 11.1009 12.6567 11.1125 13.9033C11.1167 15.255 11.1084 14.8275 11.1175 14.9125C11.0433 14.9417 10.8305 15 10.2755 15C4.98068 15 1.53256 6.6075 1.39987 5.00333C1.44577 4.99917 2.07748 5.00167 3.52449 5.00083Z" fill="white"/>
</g>
<defs>
<clipPath id="clip0">
<rect width="20.0278" height="20" fill="white" transform="translate(0.140625)"/>
</clipPath>
</defs>
</svg>
