<svg width="60" height="60" fill="none" xmlns="http://www.w3.org/2000/svg"><path d="M52.717 12.148L30.167.132a1.12 1.12 0 00-1.068.006L7.172 12.155a1.12 1.12 0 00-.582.985v15.696A32.5 32.5 0 0026.07 58.58l3.043 1.327c.284.124.608.124.893 0l3.43-1.48a32.436 32.436 0 0019.876-29.903V13.14c0-.414-.229-.796-.595-.99zm-1.65 16.376a30.196 30.196 0 01-18.51 27.837l-.008.004-2.986 1.29-2.595-1.133A30.252 30.252 0 018.835 28.836V13.804L29.646 2.398l21.42 11.414v14.712z" fill="#00BFF3"/><path d="M21.367 28.107a1.123 1.123 0 00-1.708 1.458l5.93 6.945c.397.463 1.09.527 1.563.142l13.811-11.237a1.122 1.122 0 10-1.417-1.741l-12.96 10.543-5.219-6.11z" fill="#00BFF3"/></svg>