<svg width="50" height="43" fill="none" xmlns="http://www.w3.org/2000/svg"><path d="M29.028 15.946c-.81 0-1.465-.655-1.465-1.465V.004h-5.126V14.48c0 .81-.655 1.465-1.465 1.465H0v5.126h20.972c.81 0 1.465.655 1.465 1.465V37.01h5.126V22.537c0-.81.655-1.465 1.465-1.465H50v-5.126H29.028z" fill="#00BFF3"/><path d="M30.492 10.945L41.314.124a10.268 10.268 0 00-1.568-.12h-9.254v10.941zm2.072 2.072H50v-2.76c0-3.964-2.261-7.409-5.562-9.115L32.564 13.017zm-.006 10.985l11.848 11.887C47.724 34.19 50 30.734 50 26.756v-2.755H32.558zm-13.05-13.057V.004h-9.254c-.533 0-1.057.04-1.568.12l10.822 10.821zm10.984 15.134V37.01h9.254c.52 0 1.03-.039 1.527-.113l-10.78-10.818zM17.436 13.017L5.561 1.142C2.261 2.848 0 6.293 0 10.258v2.759h17.436zm0 10.985H0v2.754c0 3.966 2.263 7.412 5.564 9.118L17.436 24zm2.072 2.071L8.689 36.891c.51.078 1.033.12 1.565.12h1.521l3.567 4.524a1.465 1.465 0 002.3 0l1.866-2.365V26.072z" fill="#00BFF3"/></svg>