<svg width="50" height="50" fill="none" xmlns="http://www.w3.org/2000/svg"><g clip-path="url(#clip0)" fill="#00BFF3"><path d="M10.916 27.043v17.124a1.844 1.844 0 103.69 0V27.043a1.846 1.846 0 00-3.69 0z"/><path d="M5.125 46.032h4.062v-20.33c.012-.097.03-.194.03-.294 0-8.77 7.079-15.905 15.78-15.905 8.699 0 15.778 7.134 15.778 15.905 0 .134.02.264.04.394v20.23h4.063c2.828 0 5.122-2.373 5.122-5.3V30.13c0-2.415-1.564-4.449-3.699-5.09-.196-11.65-9.675-21.072-21.304-21.072-11.632 0-21.112 9.422-21.307 21.077C1.558 25.686 0 27.72 0 30.131v10.6c0 2.927 2.294 5.301 5.125 5.301z"/><path d="M35.398 27.043v17.124a1.844 1.844 0 103.69 0V27.043a1.845 1.845 0 00-3.69 0z"/></g><defs><clipPath id="clip0"><path fill="#fff" d="M0 0h50v50H0z"/></clipPath></defs></svg>