<svg width="50" height="50" fill="none" xmlns="http://www.w3.org/2000/svg"><g clip-path="url(#clip0)" fill="#00BFF3"><path d="M25.465 19.873c0-.808-.657-1.465-1.465-1.465s-1.465.657-1.465 1.465.657 1.465 1.465 1.465 1.465-.657 1.465-1.465zM24 25.673a4.4 4.4 0 00-4.384 4.103 10.19 10.19 0 004.384.986 10.19 10.19 0 004.384-.986A4.4 4.4 0 0024 25.673z"/><path d="M24 10.254c-5.654 0-10.254 4.6-10.254 10.254 0 2.94 1.245 5.597 3.236 7.468a7.357 7.357 0 014.255-4.69 4.388 4.388 0 01-1.631-3.413A4.4 4.4 0 0124 15.478a4.4 4.4 0 014.395 4.395 4.388 4.388 0 01-1.632 3.414 7.357 7.357 0 014.255 4.69 10.226 10.226 0 003.236-7.47c0-5.653-4.6-10.253-10.254-10.253z"/><path d="M24 0C12.692 0 3.492 9.2 3.492 20.508c0 9.117 6.008 17.11 14.692 19.67l4.506 9.012a1.465 1.465 0 002.62 0l4.506-9.011c8.684-2.56 14.692-10.554 14.692-19.671C44.508 9.2 35.308 0 24 0zm0 33.691c-7.27 0-13.184-5.914-13.184-13.183 0-7.27 5.915-13.184 13.184-13.184 7.27 0 13.184 5.915 13.184 13.184 0 7.27-5.915 13.183-13.184 13.183z"/></g><defs><clipPath id="clip0"><path fill="#fff" d="M0 0h50v50H0z"/></clipPath></defs></svg>