<svg width="21" height="20" fill="none" xmlns="http://www.w3.org/2000/svg"><g clip-path="url(#clip0)" fill="#fff"><path d="M3.004 20h14.16a2.935 2.935 0 002.934-2.93V2.93A2.935 2.935 0 0017.164 0H3.004A2.935 2.935 0 00.07 2.93v14.14A2.935 2.935 0 003.004 20zM1.244 2.93c0-.97.79-1.758 1.76-1.758h14.16c.971 0 1.76.788 1.76 1.758v14.14a1.76 1.76 0 01-1.76 1.758H3.004a1.76 1.76 0 01-1.76-1.758V2.93z"/><path d="M10.085 15.273A5.283 5.283 0 0015.366 10a5.283 5.283 0 00-5.28-5.273A5.283 5.283 0 004.804 10a5.283 5.283 0 005.28 5.273zm0-9.375A4.109 4.109 0 0114.194 10a4.109 4.109 0 01-4.107 4.102A4.109 4.109 0 015.978 10a4.109 4.109 0 014.107-4.102zm5.867 0c.97 0 1.76-.788 1.76-1.757a1.761 1.761 0 00-3.52 0c0 .969.79 1.757 1.76 1.757zm0-2.343a.587.587 0 11-.001 1.174.587.587 0 010-1.174z"/></g><defs><clipPath id="clip0"><path fill="#fff" transform="translate(.07)" d="M0 0h20.028v20H0z"/></clipPath></defs></svg>