<svg width="141" height="28" fill="none" xmlns="http://www.w3.org/2000/svg"><path d="M51.105 14.02c0 1.671-.28 3.132-.843 4.382-.563 1.242-1.36 2.192-2.39 2.848-1.032.656-2.235.984-3.61.984-1.344 0-2.535-.328-3.575-.984-1.039-.664-1.847-1.605-2.425-2.824-.57-1.227-.864-2.645-.88-4.254v-1.23c0-1.641.286-3.09.856-4.348.57-1.258 1.375-2.219 2.414-2.883 1.047-.672 2.242-1.008 3.586-1.008 1.367 0 2.57.332 3.61.996 1.047.656 1.851 1.614 2.414 2.871.562 1.25.843 2.707.843 4.371v1.079zm-2.238-1.102c0-2.023-.406-3.574-1.219-4.652-.812-1.086-1.949-1.63-3.41-1.63-1.422 0-2.543.544-3.363 1.63-.813 1.078-1.23 2.578-1.254 4.5v1.254c0 1.96.41 3.503 1.23 4.628.829 1.118 1.965 1.676 3.41 1.676 1.454 0 2.579-.527 3.376-1.582.797-1.062 1.207-2.582 1.23-4.558v-1.266zm15.985 2.883c0 1.93-.442 3.484-1.325 4.664-.883 1.18-2.078 1.77-3.586 1.77-1.539 0-2.75-.489-3.632-1.465v6.105H54.14V9.32h1.98l.106 1.407c.882-1.094 2.109-1.641 3.68-1.641 1.523 0 2.726.574 3.609 1.723.89 1.148 1.336 2.746 1.336 4.793v.199zm-2.168-.246c0-1.43-.305-2.559-.914-3.387-.61-.828-1.446-1.242-2.508-1.242-1.313 0-2.297.582-2.953 1.746v6.058c.648 1.157 1.64 1.735 2.976 1.735 1.04 0 1.863-.41 2.473-1.23.617-.829.926-2.055.926-3.68zm10.195 6.68c-1.719 0-3.117-.563-4.195-1.688-1.078-1.133-1.618-2.645-1.618-4.535v-.399c0-1.258.239-2.379.715-3.363.485-.992 1.156-1.766 2.016-2.32a5.07 5.07 0 012.812-.844c1.649 0 2.93.543 3.844 1.629.914 1.086 1.371 2.64 1.371 4.664v.902h-8.59c.032 1.25.395 2.262 1.09 3.035.703.766 1.594 1.149 2.672 1.149.766 0 1.414-.156 1.945-.469a4.887 4.887 0 001.395-1.242l1.324 1.031c-1.062 1.633-2.656 2.45-4.781 2.45zm-.27-11.368c-.875 0-1.609.32-2.203.961-.594.633-.96 1.524-1.101 2.672h6.351v-.164c-.062-1.102-.36-1.953-.89-2.555-.532-.61-1.25-.914-2.157-.914zm9.785-1.547l.07 1.594c.97-1.219 2.235-1.828 3.798-1.828 2.68 0 4.031 1.512 4.054 4.535V22h-2.168v-8.39c-.007-.915-.218-1.59-.632-2.028-.407-.438-1.043-.656-1.91-.656-.704 0-1.32.187-1.852.562a3.82 3.82 0 00-1.242 1.477V22h-2.168V9.32h2.05zm30.036 7.266c-.211 1.805-.879 3.2-2.004 4.184-1.117.976-2.606 1.464-4.465 1.464-2.016 0-3.633-.722-4.852-2.168-1.21-1.445-1.816-3.378-1.816-5.8v-1.641c0-1.586.281-2.98.844-4.184.57-1.203 1.375-2.125 2.414-2.765 1.039-.649 2.242-.973 3.609-.973 1.813 0 3.266.508 4.36 1.524 1.093 1.007 1.73 2.406 1.91 4.195h-2.262c-.195-1.36-.621-2.344-1.277-2.953-.649-.61-1.559-.914-2.731-.914-1.437 0-2.566.53-3.387 1.593-.812 1.063-1.218 2.575-1.218 4.536v1.652c0 1.851.386 3.324 1.16 4.418.773 1.094 1.855 1.64 3.246 1.64 1.25 0 2.207-.28 2.871-.843.672-.57 1.117-1.559 1.336-2.965h2.262zM123 22c-.125-.25-.227-.695-.305-1.336-1.007 1.047-2.211 1.57-3.609 1.57-1.25 0-2.277-.351-3.082-1.054-.797-.711-1.195-1.61-1.195-2.696 0-1.32.5-2.343 1.5-3.07 1.007-.734 2.421-1.101 4.242-1.101h2.109v-.997c0-.757-.226-1.359-.68-1.804-.453-.453-1.121-.68-2.003-.68-.774 0-1.422.195-1.946.586-.523.39-.785.863-.785 1.418h-2.18c0-.633.223-1.242.668-1.828.454-.594 1.063-1.063 1.828-1.406.774-.344 1.622-.516 2.543-.516 1.461 0 2.606.367 3.434 1.101.828.727 1.258 1.731 1.289 3.012v5.836c0 1.164.149 2.09.445 2.777V22H123zm-3.598-1.652a3.81 3.81 0 001.934-.528c.609-.351 1.051-.808 1.324-1.37v-2.602h-1.699c-2.656 0-3.984.777-3.984 2.332 0 .68.226 1.21.679 1.593.453.383 1.035.575 1.746.575zm19.559-4.547c0 1.937-.445 3.496-1.336 4.676-.891 1.171-2.086 1.757-3.586 1.757-1.601 0-2.84-.566-3.715-1.699L130.219 22h-1.992V4h2.168v6.715c.875-1.086 2.082-1.63 3.621-1.63 1.539 0 2.746.583 3.621 1.747.883 1.164 1.324 2.758 1.324 4.781v.188zm-2.168-.246c0-1.477-.285-2.617-.855-3.422-.571-.805-1.391-1.207-2.461-1.207-1.43 0-2.457.664-3.082 1.992v5.484c.664 1.328 1.699 1.992 3.105 1.992 1.039 0 1.848-.402 2.426-1.206.578-.805.867-2.016.867-3.633zM15.346 24c0 8.312 8.247 0 0 0 0-8.247 21.311-24 13-24-8.247 0-28 .688-28 9s6.688 15 15 15z" fill="#fff"/><circle cx="14.5" cy="15.5" r="8.5" fill="#DBF7FF"/><path d="M13.95 12.432h-2.454v6.805h-1.002v-6.805H8.046v-.828h5.903v.828zm6.6 4.383c-.095.807-.394 1.431-.897 1.871-.5.437-1.165.656-1.997.656-.902 0-1.626-.324-2.17-.97-.543-.647-.813-1.512-.813-2.595v-.734c0-.71.125-1.334.377-1.872.255-.538.615-.95 1.08-1.237.465-.29 1.003-.435 1.615-.435.81 0 1.46.227 1.95.681.49.451.774 1.077.854 1.877h-1.011c-.088-.608-.278-1.048-.572-1.321-.29-.273-.697-.409-1.221-.409-.643 0-1.148.238-1.515.713-.364.475-.546 1.152-.546 2.029v.74c0 .828.173 1.486.52 1.976.345.489.83.734 1.452.734.559 0 .987-.126 1.284-.378.3-.255.5-.697.598-1.326h1.011z" fill="#fff"/></svg>