<svg width="18" height="30" fill="none" xmlns="http://www.w3.org/2000/svg"><path d="M11.5 1.5h-5a.5.5 0 000 1h5a.5.5 0 000-1zm3.499 0h-.5a.5.5 0 000 1h.5a.5.5 0 000-1zm-5.378 24H8.379C7.62 25.5 7 26.12 7 26.88v.242c0 .76.619 1.378 1.379 1.378H9.62A1.38 1.38 0 0011 27.122v-.242c0-.76-.619-1.38-1.379-1.38zM10 27.122a.38.38 0 01-.379.378H8.379A.38.38 0 018 27.122v-.242c0-.21.17-.38.38-.38h1.24c.21 0 .38.17.38.38v.242z" fill="#00BFF3"/><path d="M15.693 0H2.307A1.81 1.81 0 00.5 1.808v26.384A1.81 1.81 0 002.307 30h13.385a1.81 1.81 0 001.808-1.807V1.807A1.81 1.81 0 0015.693 0zm.807 28.192a.808.808 0 01-.807.808H2.307a.808.808 0 01-.807-.807V1.807c0-.445.362-.807.807-.807h13.385a.81.81 0 01.808.808v26.384z" fill="#00BFF3"/><path d="M17 3H1a.5.5 0 00-.5.5v21a.5.5 0 00.5.5h16a.5.5 0 00.5-.5v-21A.5.5 0 0017 3zm-.5 21h-15V4h15v20z" fill="#00BFF3"/></svg>