<svg width="22" height="30" fill="none" xmlns="http://www.w3.org/2000/svg"><path d="M11.097 6.574a3.84 3.84 0 00-3.835 3.835 3.84 3.84 0 003.835 3.835 3.84 3.84 0 003.835-3.835 3.84 3.84 0 00-3.835-3.835zm0 6.575a2.742 2.742 0 01-2.74-2.74c0-1.51 1.23-2.739 2.74-2.739 1.51 0 2.74 1.229 2.74 2.74 0 1.51-1.23 2.739-2.74 2.739z" fill="#00BFF3"/><path d="M18.428 3.077A10.438 10.438 0 0011 0a10.437 10.437 0 00-7.43 3.077C-.102 6.75-.558 13.658 2.582 17.844L11 30l8.405-12.14c3.153-4.202 2.697-11.11-.976-14.783zm.087 14.143L11 28.075 3.471 17.203c-2.849-3.798-2.44-10.037.874-13.35A9.349 9.349 0 0111 1.095a9.35 9.35 0 016.655 2.756c3.314 3.314 3.722 9.553.861 13.368z" fill="#00BFF3"/></svg>