<svg width="41" height="41" fill="none" xmlns="http://www.w3.org/2000/svg"><path fill-rule="evenodd" clip-rule="evenodd" d="M20.444.11C9.21.11.102 9.133.102 20.263c0 11.13 9.108 20.152 20.342 20.152 11.233 0 20.34-9.022 20.34-20.152S31.678.11 20.445.11zm0 40.407c-5.46 0-10.595-2.106-14.456-5.932C2.127 30.76 0 25.673 0 20.263 0 14.853 2.126 9.767 5.988 5.94 9.849 2.116 14.983.01 20.444.01c5.46 0 10.594 2.107 14.455 5.932 3.861 3.826 5.988 8.912 5.988 14.322 0 5.41-2.127 10.497-5.988 14.322-3.861 3.825-8.995 5.932-14.455 5.932zm0-2.535c4.777 0 9.268-1.843 12.646-5.19 3.379-3.346 5.239-7.796 5.239-12.53 0-4.731-1.86-9.181-5.239-12.528-3.378-3.347-7.869-5.19-12.646-5.19-4.777 0-9.269 1.843-12.647 5.19C4.42 11.08 2.56 15.53 2.56 20.263s1.86 9.183 5.238 12.53c3.379 3.346 7.87 5.19 12.647 5.19zm17.99-17.72c0 9.845-8.055 17.824-17.99 17.824-9.936 0-17.99-7.98-17.99-17.823 0-9.844 8.054-17.823 17.99-17.823 9.935 0 17.99 7.98 17.99 17.823z" fill="#fff"/><path fill-rule="evenodd" clip-rule="evenodd" d="M.056 20.203c0 11.155 9.128 20.199 20.388 20.199 11.26 0 20.387-9.044 20.387-20.199C40.831 9.048 31.703.004 20.444.004 9.184.004.056 9.048.056 20.204zm2.447 0c0-9.816 8.032-17.774 17.94-17.774 9.91 0 17.941 7.958 17.941 17.774 0 9.817-8.032 17.775-17.94 17.775-9.909 0-17.941-7.958-17.941-17.775z" fill="#fff"/><path fill-rule="evenodd" clip-rule="evenodd" d="M.056 20.203c0 11.155 9.128 20.199 20.388 20.199 11.26 0 20.387-9.044 20.387-20.199C40.831 9.048 31.703.004 20.444.004 9.184.004.056 9.048.056 20.204zm1.223 0c0-10.486 8.58-18.986 19.165-18.986 10.584 0 19.164 8.5 19.164 18.986S31.028 39.19 20.444 39.19c-10.585 0-19.165-8.501-19.165-18.987z" fill="#fff"/><path fill-rule="evenodd" clip-rule="evenodd" d="M2.318 21.079c-.604 9.711 8.579 17.955 18.124 17.955v-1.06c-9.908 0-17.94-7.958-17.94-17.774 0-1.119.105-2.213.304-3.275-.319 1.333-.399 2.726-.488 4.154z" fill="#fff"/><path fill-rule="evenodd" clip-rule="evenodd" d="M6.98 6.962c-3.445 3.428-5.576 8.154-5.576 13.35 0 5.197 2.131 9.902 5.577 13.307a19.088 19.088 0 0013.462 5.512 19.088 19.088 0 0013.462-5.512c3.445-3.405 5.577-8.11 5.577-13.306 0-5.197-2.132-9.923-5.577-13.35a19.034 19.034 0 00-13.462-5.555A19.035 19.035 0 006.981 6.962zm-5.827 13.35c0-10.53 8.635-19.153 19.29-19.153 10.654 0 19.29 8.622 19.29 19.154 0 10.531-8.636 19.067-19.29 19.067s-19.29-8.536-19.29-19.068zM6.98 6.826c-3.446 3.427-5.577 8.153-5.577 13.35 0 5.197 2.131 9.9 5.577 13.307a19.09 19.09 0 0013.462 5.512 19.087 19.087 0 0013.462-5.512c3.445-3.406 5.577-8.11 5.577-13.307 0-5.197-2.132-9.923-5.577-13.35a19.033 19.033 0 00-13.462-5.554A19.035 19.035 0 006.981 6.826zm-5.828 13.35c0-10.531 8.635-19.154 19.29-19.154 10.654 0 19.29 8.623 19.29 19.154s-8.636 19.069-19.29 19.069-19.29-8.538-19.29-19.069z" fill="#fff"/><path fill-rule="evenodd" clip-rule="evenodd" d="M6.994 6.906c-3.443 3.424-5.57 8.146-5.572 13.338.001 5.191 2.13 9.891 5.572 13.294a19.07 19.07 0 0013.45 5.507 19.071 19.071 0 0013.449-5.507c3.442-3.403 5.57-8.103 5.57-13.294 0-5.192-2.128-9.914-5.57-13.338a19.022 19.022 0 00-13.45-5.55 19.023 19.023 0 00-13.45 5.55zM1.135 20.244c0-10.542 8.645-19.172 19.31-19.174 10.664.001 19.307 8.631 19.307 19.172 0 10.542-8.645 19.087-19.307 19.087-10.664 0-19.308-8.545-19.308-19.086z" fill="#fff"/><path fill-rule="evenodd" clip-rule="evenodd" d="M.055 20.198c0 11.154 9.127 20.197 20.387 20.197 11.259 0 20.386-9.043 20.386-20.197C40.828 9.043 31.7 0 20.442 0 9.182 0 .055 9.043.055 20.198zm.12 0C.175 9.109 9.25.119 20.442.119s20.266 8.99 20.266 20.079c0 11.09-9.074 20.078-20.266 20.078C9.249 40.276.175 31.287.175 20.198z" fill="#fff"/><path fill-rule="evenodd" clip-rule="evenodd" d="M2.382 20.2c0 9.88 8.085 17.89 18.06 17.89 9.973 0 18.058-8.01 18.058-17.89 0-9.882-8.085-17.892-18.059-17.892S2.382 10.318 2.382 20.2zm.119 0c0-9.816 8.032-17.774 17.94-17.774 9.908 0 17.94 7.957 17.94 17.773 0 9.817-8.032 17.774-17.94 17.774-9.908 0-17.94-7.957-17.94-17.773z" fill="#fff"/><path fill-rule="evenodd" clip-rule="evenodd" d="M20.444 1.817V20.41l3.046-1.742L21.178 2.44s-.229-.364-.734-.622zm0 0l.001 18.586c.02-.013 3.025-1.755 3.02-1.835L21.171 2.436c0-.001-.228-.363-.728-.619z" fill="#fff"/><path fill-rule="evenodd" clip-rule="evenodd" d="M20.444 1.817l.002 18.582c.038-.027 3.006-1.77 2.993-1.929L21.167 2.435c0-.003-.228-.366-.723-.618z" fill="#fff"/><path fill-rule="evenodd" clip-rule="evenodd" d="M20.444 1.817l.003 18.576c.057-.04 2.985-1.782 2.966-2.022-.001-.02-2.25-15.933-2.251-15.938a1.898 1.898 0 00-.719-.616z" fill="#fff"/><path fill-rule="evenodd" clip-rule="evenodd" d="M20.444 1.817l.004 18.57c.076-.052 2.965-1.795 2.94-2.114a43987.7 43987.7 0 00-2.232-15.842c0-.007-.229-.367-.713-.614z" fill="#fff"/><path fill-rule="evenodd" clip-rule="evenodd" d="M20.444 1.817l.005 18.565c.095-.066 2.945-1.809 2.914-2.208-.003-.034-2.211-15.736-2.212-15.745a1.854 1.854 0 00-.707-.612z" fill="#fff"/><path fill-rule="evenodd" clip-rule="evenodd" d="M20.444 1.817l.006 18.56c.114-.08 2.926-1.822 2.887-2.302-.003-.04-2.19-15.637-2.191-15.647a1.82 1.82 0 00-.702-.61v-.001z" fill="#fff"/><path fill-rule="evenodd" clip-rule="evenodd" d="M20.444 1.817l.008 18.555c.132-.093 2.904-1.836 2.86-2.395-.004-.048-2.17-15.54-2.172-15.552-.002-.012-.23-.37-.696-.608zm0 0l.008 18.549c.152-.105 2.885-1.85 2.834-2.487-.003-.054-2.15-15.442-2.151-15.455-.002-.014-.23-.37-.691-.607z" fill="#fff"/><path fill-rule="evenodd" clip-rule="evenodd" d="M20.444 1.817l.01 18.544c.17-.119 2.864-1.862 2.807-2.58-.005-.062-2.13-15.344-2.132-15.359-.002-.016-.23-.372-.686-.605z" fill="#fff"/><path fill-rule="evenodd" clip-rule="evenodd" d="M20.444 1.822l.01 18.538c.19-.132 2.845-1.875 2.781-2.674-.004-.068-2.109-15.244-2.111-15.261-.003-.018-.23-.373-.68-.603z" fill="#fff"/><path fill-rule="evenodd" clip-rule="evenodd" d="M20.444 1.817l.012 18.533c.208-.145 2.824-1.889 2.755-2.766-.006-.076-2.09-15.147-2.092-15.166-.003-.018-.23-.374-.675-.601z" fill="#fff"/><path fill-rule="evenodd" clip-rule="evenodd" d="M20.444 1.817l.013 18.527c.227-.157 2.804-1.902 2.728-2.86-.007-.081-2.069-15.047-2.072-15.068-.003-.02-.23-.375-.67-.599z" fill="#fff"/><path fill-rule="evenodd" clip-rule="evenodd" d="M20.444 1.817l.014 18.522c.246-.172 2.784-1.916 2.702-2.953-.007-.088-2.05-14.95-2.052-14.97-.003-.023-.23-.377-.664-.599zm0 0l.015 18.516c.265-.184 2.765-1.928 2.675-3.046-.007-.095-2.028-14.85-2.032-14.874-.003-.024-.23-.378-.659-.596z" fill="#fff"/><path fill-rule="evenodd" clip-rule="evenodd" d="M20.444 1.817l.017 18.511c.283-.197 2.743-1.942 2.648-3.14-.009-.1-2.009-14.751-2.012-14.777-.003-.025-.231-.378-.654-.594z" fill="#fff"/><path fill-rule="evenodd" clip-rule="evenodd" d="M20.444 1.822l.017 18.506c.303-.211 2.724-1.956 2.623-3.233-.009-.109-1.988-14.654-1.992-14.681-.004-.028-.23-.38-.648-.592z" fill="#fff"/><path fill-rule="evenodd" clip-rule="evenodd" d="M20.444 1.822l.018 18.5c.322-.224 2.704-1.969 2.596-3.326-.008-.115-1.968-14.555-1.972-14.584-.002-.03-.231-.38-.642-.59z" fill="#fff"/><path fill-rule="evenodd" clip-rule="evenodd" d="M20.444 1.817l.02 18.495c.34-.237 2.683-1.983 2.57-3.419-.01-.122-1.949-14.457-1.953-14.488-.003-.031-.232-.38-.637-.588z" fill="#fff"/><path fill-rule="evenodd" clip-rule="evenodd" d="M20.444 1.822l.02 18.49c.36-.251 2.664-1.996 2.544-3.513-.01-.129-1.927-14.359-1.932-14.39-.004-.033-.232-.383-.632-.587z" fill="#fff"/><path fill-rule="evenodd" clip-rule="evenodd" d="M20.444 1.817l.021 18.484c.378-.263 2.644-2.009 2.517-3.605-.01-.136-1.907-14.26-1.911-14.294-.006-.034-.233-.383-.627-.585z" fill="#fff"/><path fill-rule="evenodd" clip-rule="evenodd" d="M20.444 1.817l.023 18.48c.396-.278 2.624-2.023 2.49-3.699-.012-.143-1.887-14.162-1.892-14.198-.005-.036-.233-.384-.621-.583z" fill="#fff"/><path fill-rule="evenodd" clip-rule="evenodd" d="M20.444 1.817l.024 18.473c.416-.29 2.603-2.035 2.464-3.791a7763.4 7763.4 0 00-1.872-14.1c-.005-.038-.232-.386-.616-.582z" fill="#fff"/><path fill-rule="evenodd" clip-rule="evenodd" d="M20.444 1.817l.025 18.468c.434-.303 2.583-2.05 2.437-3.885-.012-.156-1.846-13.964-1.851-14.004-.006-.04-.233-.386-.611-.579z" fill="#fff"/><path fill-rule="evenodd" clip-rule="evenodd" d="M20.444 1.817l.026 18.462c.454-.316 2.563-2.061 2.41-3.977-.012-.163-1.825-13.867-1.83-13.908-.006-.04-.234-.387-.606-.577z" fill="#fff"/><path fill-rule="evenodd" clip-rule="evenodd" d="M20.444 1.817l.027 18.458c.473-.33 2.542-2.077 2.384-4.072-.014-.17-1.806-13.768-1.811-13.81-.006-.043-.234-.389-.6-.576z" fill="#fff"/><path fill-rule="evenodd" clip-rule="evenodd" d="M20.444 1.817l.028 18.452c.491-.342 2.523-2.09 2.358-4.164-.014-.177-1.785-13.67-1.792-13.714-.005-.044-.233-.39-.594-.574z" fill="#fff"/><path fill-rule="evenodd" clip-rule="evenodd" d="M20.444 1.817l.03 18.446c.51-.354 2.502-2.102 2.331-4.257-.015-.184-1.765-13.571-1.771-13.617-.007-.045-.234-.39-.59-.572z" fill="#fff"/><path fill-rule="evenodd" clip-rule="evenodd" d="M20.444 1.817l.03 18.441c.53-.368 2.482-2.116 2.306-4.35-.016-.19-1.746-13.473-1.752-13.521-.007-.048-.234-.391-.584-.57z" fill="#fff"/><path fill-rule="evenodd" clip-rule="evenodd" d="M20.444 1.817l.032 18.435c.547-.38 2.462-2.128 2.278-4.443-.016-.197-1.725-13.374-1.732-13.423-.006-.05-.234-.393-.578-.569z" fill="#fff"/><path fill-rule="evenodd" clip-rule="evenodd" d="M20.444 1.817l.032 18.43c.568-.394 2.443-2.142 2.253-4.537-.017-.204-1.705-13.275-1.712-13.327-.007-.05-.235-.393-.574-.566z" fill="#fff"/><path fill-rule="evenodd" clip-rule="evenodd" d="M20.444 1.817l.033 18.425c.587-.408 2.423-2.155 2.226-4.63a5607.9 5607.9 0 00-1.691-13.23c-.007-.053-.235-.395-.568-.565zm0 0l.035 18.42c.605-.421 2.401-2.17 2.2-4.723-.018-.218-1.665-13.08-1.673-13.134-.007-.054-.234-.395-.562-.563z" fill="#fff"/><path fill-rule="evenodd" clip-rule="evenodd" d="M20.444 1.817l.036 18.414c.624-.434 2.382-2.182 2.173-4.816-.018-.224-1.644-12.981-1.651-13.038-.008-.055-.236-.395-.558-.56z" fill="#fff"/><path fill-rule="evenodd" clip-rule="evenodd" d="M20.444 1.817l.037 18.409c.643-.447 2.362-2.196 2.146-4.909-.018-.23-1.623-12.883-1.631-12.94-.008-.059-.236-.398-.552-.56z" fill="#fff"/><path fill-rule="evenodd" clip-rule="evenodd" d="M20.444 1.817l.038 18.403c.662-.46 2.341-2.209 2.12-5.002C22.583 14.98 21 2.434 20.99 2.374c-.008-.059-.234-.398-.546-.557z" fill="#fff"/><path fill-rule="evenodd" clip-rule="evenodd" d="M20.444 1.817l.039 18.398c.68-.474 2.322-2.223 2.094-5.096-.02-.245-1.584-12.685-1.592-12.746-.008-.062-.236-.4-.541-.556z" fill="#fff"/><path fill-rule="evenodd" clip-rule="evenodd" d="M20.444 1.817l.04 18.392c.7-.486 2.302-2.235 2.067-5.189-.02-.25-1.563-12.587-1.571-12.65-.009-.062-.236-.4-.536-.553z" fill="#fff"/><path fill-rule="evenodd" clip-rule="evenodd" d="M20.444 1.822l.041 18.387c.719-.5 2.282-2.249 2.041-5.282-.02-.258-1.543-12.49-1.551-12.553-.01-.065-.237-.402-.531-.552z" fill="#fff"/><path fill-rule="evenodd" clip-rule="evenodd" d="M20.444 1.817l.042 18.382c.738-.514 2.262-2.263 2.015-5.375-.02-.265-1.523-12.39-1.531-12.457-.01-.066-.237-.402-.526-.55zm0 0l.043 18.377c.757-.527 2.242-2.277 1.988-5.469a4018.63 4018.63 0 00-1.512-12.36c-.009-.068-.236-.403-.52-.548z" fill="#fff"/><path fill-rule="evenodd" clip-rule="evenodd" d="M20.444 1.817l.044 18.37c.776-.539 2.222-2.289 1.962-5.56a4305.16 4305.16 0 00-1.492-12.264c-.01-.07-.236-.404-.514-.546z" fill="#fff"/><path fill-rule="evenodd" clip-rule="evenodd" d="M20.444 1.822l.045 18.365c.795-.552 2.201-2.302 1.935-5.655-.022-.285-1.461-12.094-1.47-12.166-.011-.07-.238-.405-.51-.544z" fill="#fff"/><path fill-rule="evenodd" clip-rule="evenodd" d="M20.444 1.817l.047 18.36c.813-.565 2.18-2.316 1.909-5.748a4366.47 4366.47 0 00-1.452-12.07c-.01-.072-.238-.405-.504-.542z" fill="#fff"/><path fill-rule="evenodd" clip-rule="evenodd" d="M20.444 1.822l.048 18.354c.833-.579 2.16-2.328 1.882-5.84a3699.02 3699.02 0 00-1.432-11.973c-.01-.075-.237-.408-.498-.541zm0 0l.05 18.35c.85-.593 2.14-2.344 1.854-5.935-.024-.305-1.4-11.8-1.41-11.876-.011-.077-.239-.408-.494-.54z" fill="#fff"/><path fill-rule="evenodd" clip-rule="evenodd" d="M20.444 1.817l.05 18.344c.87-.605 2.12-2.356 1.83-6.027a3825.69 3825.69 0 00-1.393-11.78c-.01-.078-.237-.41-.488-.537z" fill="#fff"/><path fill-rule="evenodd" clip-rule="evenodd" d="M20.444 1.822l.05 18.338c.89-.618 2.101-2.369 1.804-6.12-.026-.32-1.36-11.603-1.372-11.683-.01-.08-.238-.41-.482-.535z" fill="#fff"/><path fill-rule="evenodd" clip-rule="evenodd" d="M20.444 1.817l.052 18.333c.908-.631 2.08-2.383 1.776-6.213-.025-.326-1.34-11.504-1.35-11.586-.013-.082-.24-.411-.478-.534z" fill="#fff"/><path fill-rule="evenodd" clip-rule="evenodd" d="M20.444 1.817l.053 18.328c.927-.645 2.06-2.396 1.75-6.307-.026-.333-1.32-11.406-1.331-11.49-.012-.082-.238-.412-.472-.53z" fill="#fff"/><path fill-rule="evenodd" clip-rule="evenodd" d="M20.444 1.817l.054 18.323c.945-.658 2.04-2.41 1.724-6.4-.027-.34-1.3-11.308-1.312-11.393-.011-.085-.238-.413-.467-.53zm0 0l.056 18.317c.964-.67 2.02-2.423 1.696-6.493-.027-.346-1.28-11.21-1.291-11.296-.013-.086-.239-.414-.46-.528h-.001z" fill="#fff"/><path fill-rule="evenodd" clip-rule="evenodd" d="M20.444 1.817l.056 18.311c.984-.684 2-2.435 1.671-6.586-.028-.353-1.26-11.11-1.272-11.198-.012-.09-.238-.417-.455-.527z" fill="#fff"/><path fill-rule="evenodd" clip-rule="evenodd" d="M20.444 1.817l.057 18.307c1.003-.698 1.98-2.45 1.644-6.68-.028-.36-1.238-11.012-1.25-11.103-.013-.09-.24-.416-.451-.524z" fill="#fff"/><path fill-rule="evenodd" clip-rule="evenodd" d="M20.444 1.817l.059 18.3c1.021-.71 1.96-2.462 1.617-6.771-.03-.367-1.219-10.914-1.232-11.006-.012-.092-.239-.418-.444-.523z" fill="#fff"/><path fill-rule="evenodd" clip-rule="evenodd" d="M20.444 1.817l.06 18.296c1.04-.724 1.939-2.476 1.59-6.866-.029-.374-1.198-10.816-1.21-10.909-.014-.094-.24-.418-.44-.52v-.001z" fill="#fff"/><path fill-rule="evenodd" clip-rule="evenodd" d="M20.444 1.817l.06 18.29c1.06-.736 1.92-2.49 1.565-6.958a2795.12 2795.12 0 00-1.191-10.813c-.013-.095-.24-.42-.434-.519z" fill="#fff"/><path fill-rule="evenodd" clip-rule="evenodd" d="M20.444 1.817l.062 18.284c1.078-.75 1.9-2.502 1.538-7.051a3001.2 3001.2 0 00-1.17-10.716c-.015-.097-.241-.42-.43-.517zm0 0l.063 18.279c1.097-.763 1.88-2.516 1.512-7.145a2548.61 2548.61 0 00-1.152-10.619c-.013-.098-.24-.421-.423-.515z" fill="#fff"/><path fill-rule="evenodd" clip-rule="evenodd" d="M20.444 1.817l.064 18.274c1.116-.776 1.859-2.53 1.485-7.238-.032-.401-1.118-10.422-1.131-10.522-.014-.1-.24-.423-.418-.514z" fill="#fff"/><path fill-rule="evenodd" clip-rule="evenodd" d="M20.444 1.817l.065 18.268c1.135-.79 1.84-2.543 1.459-7.331a2422.77 2422.77 0 00-1.112-10.426c-.014-.101-.24-.423-.412-.51z" fill="#fff"/><path fill-rule="evenodd" clip-rule="evenodd" d="M20.444 1.817l.066 18.263c1.154-.803 1.819-2.556 1.433-7.425-.033-.414-1.078-10.225-1.091-10.328-.015-.104-.242-.425-.408-.51z" fill="#fff"/><path fill-rule="evenodd" clip-rule="evenodd" d="M20.444 1.817l.068 18.258c1.172-.816 1.798-2.57 1.405-7.518-.034-.422-1.057-10.127-1.071-10.232-.015-.105-.241-.426-.403-.508z" fill="#fff"/><path fill-rule="evenodd" clip-rule="evenodd" d="M20.444 1.817l.069 18.253c1.191-.83 1.778-2.584 1.38-7.611-.035-.429-1.037-10.029-1.052-10.136-.015-.107-.24-.426-.397-.506zm0 0l.07 18.247c1.21-.842 1.759-2.596 1.353-7.704a2538.3 2538.3 0 00-1.032-10.04c-.015-.109-.242-.428-.392-.504z" fill="#fff"/><path fill-rule="evenodd" clip-rule="evenodd" d="M20.444 1.817l.071 18.242c1.23-.856 1.738-2.61 1.326-7.798-.035-.441-.996-9.831-1.01-9.941-.016-.11-.243-.429-.387-.503z" fill="#fff"/><path fill-rule="evenodd" clip-rule="evenodd" d="M20.444 1.817l.072 18.236c1.248-.869 1.718-2.623 1.3-7.89-.036-.449-.976-9.733-.991-9.846-.016-.111-.242-.43-.381-.5z" fill="#fff"/><path fill-rule="evenodd" clip-rule="evenodd" d="M20.444 1.817l.072 18.231c1.268-.881 1.7-2.636 1.274-7.984-.036-.455-.956-9.635-.97-9.748-.017-.114-.243-.43-.376-.499z" fill="#fff"/><path fill-rule="evenodd" clip-rule="evenodd" d="M20.444 1.817l.074 18.226c1.286-.896 1.678-2.65 1.247-8.077-.036-.462-.935-9.537-.951-9.652-.016-.116-.242-.432-.37-.497z" fill="#fff"/><path fill-rule="evenodd" clip-rule="evenodd" d="M20.444 1.817l.075 18.22c1.306-.908 1.658-2.663 1.22-8.17a2162.8 2162.8 0 00-.93-9.555c-.017-.117-.243-.432-.365-.495z" fill="#fff"/><path fill-rule="evenodd" clip-rule="evenodd" d="M20.444 1.817l.076 18.215c1.325-.922 1.638-2.677 1.195-8.263-.038-.476-.896-9.34-.912-9.459-.016-.119-.242-.434-.36-.493zm0 0l.077 18.21c1.343-.935 1.618-2.69 1.168-8.357-.038-.482-.874-9.24-.891-9.361-.017-.12-.243-.435-.354-.492z" fill="#fff"/><path fill-rule="evenodd" clip-rule="evenodd" d="M20.444 1.817l.078 18.204c1.363-.948 1.598-2.703 1.142-8.45-.04-.49-.855-9.142-.872-9.264-.017-.123-.243-.436-.349-.49z" fill="#fff"/><path fill-rule="evenodd" clip-rule="evenodd" d="M20.444 1.817l.08 18.2c1.38-.962 1.577-2.718 1.114-8.544-.039-.496-.834-9.043-.85-9.168-.018-.124-.244-.437-.344-.488z" fill="#fff"/><path fill-rule="evenodd" clip-rule="evenodd" d="M20.444 1.817l.08 18.193c1.4-.974 1.558-2.73 1.089-8.636-.04-.502-.814-8.945-.831-9.07-.017-.126-.244-.438-.338-.487z" fill="#fff"/><path fill-rule="evenodd" clip-rule="evenodd" d="M20.444 1.817l.082 18.188c1.418-.987 1.537-2.743 1.062-8.73-.041-.509-.794-8.847-.812-8.973-.017-.128-.243-.44-.332-.485z" fill="#fff"/><path fill-rule="evenodd" clip-rule="evenodd" d="M20.444 1.817l.083 18.182c1.438-1 1.517-2.756 1.035-8.821-.04-.518-.773-8.75-.79-8.879-.02-.128-.245-.439-.329-.482zm0 0l.084 18.177c1.457-1.013 1.497-2.77 1.01-8.915-.042-.523-.754-8.65-.772-8.781-.018-.131-.244-.44-.322-.48v-.001z" fill="#fff"/><path fill-rule="evenodd" clip-rule="evenodd" d="M20.444 1.822l.085 18.172c1.476-1.027 1.477-2.784.983-9.01-.043-.53-.733-8.55-.752-8.684-.019-.132-.244-.442-.317-.478z" fill="#fff"/><path fill-rule="evenodd" clip-rule="evenodd" d="M20.444 1.822l.086 18.166c1.495-1.04 1.457-2.797.956-9.102-.043-.537-.713-8.454-.73-8.588-.02-.134-.246-.442-.312-.476z" fill="#fff"/><path fill-rule="evenodd" clip-rule="evenodd" d="M20.444 1.817l.087 18.16c1.514-1.052 1.437-2.81.93-9.194-.043-.543-.693-8.356-.712-8.491-.018-.136-.244-.444-.306-.475z" fill="#fff"/><path fill-rule="evenodd" clip-rule="evenodd" d="M20.444 1.822l.088 18.155c1.532-1.066 1.417-2.823.904-9.288-.043-.55-.673-8.257-.692-8.394-.018-.137-.245-.445-.3-.473z" fill="#fff"/><path fill-rule="evenodd" clip-rule="evenodd" d="M20.444 1.822l.09 18.15c1.55-1.08 1.396-2.837.876-9.382-.044-.557-.651-8.158-.672-8.297-.018-.14-.244-.446-.295-.471z" fill="#fff"/><path fill-rule="evenodd" clip-rule="evenodd" d="M20.444 1.822l.09 18.144c1.57-1.092 1.377-2.85.85-9.474-.044-.563-.632-8.06-.65-8.2-.02-.141-.246-.447-.29-.47zm0 0l.092 18.14c1.588-1.107 1.355-2.865.824-9.568-.046-.57-.612-7.962-.631-8.105-.02-.143-.246-.447-.285-.467z" fill="#fff"/><path fill-rule="evenodd" clip-rule="evenodd" d="M20.444 1.817l.093 18.134c1.607-1.119 1.336-2.877.798-9.66-.047-.578-.593-7.863-.611-8.008-.02-.144-.247-.45-.28-.466z" fill="#fff"/><path fill-rule="evenodd" clip-rule="evenodd" d="M20.444 1.817l.093 18.128c1.628-1.13 1.316-2.89.772-9.753-.046-.584-.571-7.765-.591-7.911-.02-.146-.246-.45-.274-.464z" fill="#fff"/><path fill-rule="evenodd" clip-rule="evenodd" d="M20.444 1.817l.095 18.123c1.645-1.145 1.296-2.904.744-9.847-.047-.592-.55-7.666-.571-7.813-.02-.148-.246-.452-.268-.463z" fill="#fff"/><path fill-rule="evenodd" clip-rule="evenodd" d="M20.444 1.817l.096 18.118c1.664-1.159 1.276-2.917.718-9.94-.048-.599-.53-7.568-.55-7.717-.021-.15-.247-.452-.264-.46zm0 0l.097 18.112c1.683-1.17 1.256-2.93.692-10.033-.048-.605-.51-7.47-.531-7.621-.021-.15-.247-.452-.258-.458z" fill="#fff"/><path fill-rule="evenodd" clip-rule="evenodd" d="M20.444 1.817l.098 18.107c1.702-1.185 1.236-2.943.665-10.126-.048-.611-.49-7.371-.511-7.524-.02-.153-.247-.454-.252-.457z" fill="#fff"/><path fill-rule="evenodd" clip-rule="evenodd" d="M20.69 2.272c-.02-.155-.247-.455-.247-.455l.1 18.102c1.721-1.198 1.215-2.957.638-10.22-.049-.618-.47-7.272-.49-7.427zm-.246 17.943v3.471L35.6 29.718l.899-.32-16.055-9.183z" fill="#fff"/><path fill-rule="evenodd" clip-rule="evenodd" d="M20.444 20.215v.134c.004.014.035 3.33.066 3.35.03.021 7.532 3.011 7.532 3.011l7.374 2.934.186.074.897-.32-2.524-1.443-5.504-3.149-4.014-2.295c-.031-.019-4.014-2.296-4.014-2.296z" fill="#fff"/><path fill-rule="evenodd" clip-rule="evenodd" d="M20.444 20.215v.136c.008.03.071 3.323.133 3.363.061.04 7.486 3.005 7.486 3.005l7.355 2.926.187.072c.005-.001.886-.314.894-.318l-2.523-1.444a22799.788 22799.788 0 01-9.518-5.444l-4.014-2.296zm0 0v.137c.012.045.107 3.315.2 3.376.091.06 7.439 2.998 7.439 2.998l7.337 2.92.187.071c.007-.001.88-.31.892-.318l-2.524-1.444-5.505-3.148-4.012-2.295-4.015-2.296z" fill="#fff"/><path fill-rule="evenodd" clip-rule="evenodd" d="M20.444 20.215v.139c.015.06.142 3.307.266 3.388.123.081 7.393 2.992 7.393 2.992l7.32 2.913s.181.07.187.069c.01-.002.873-.308.89-.317l-2.524-1.444-5.505-3.149-4.013-2.295-4.014-2.296zm0 0v.14c.019.076.178 3.3.332 3.4.154.102 7.348 2.988 7.348 2.988l7.302 2.905s.178.07.186.068c.012-.003.867-.305.887-.317l-2.523-1.444a16461.206 16461.206 0 01-9.518-5.444l-4.014-2.296z" fill="#fff"/><path fill-rule="evenodd" clip-rule="evenodd" d="M20.444 20.215v.142c.023.09.214 3.291.399 3.412.184.122 7.3 2.982 7.3 2.982l7.286 2.898s.176.069.185.067c.015-.003.861-.303.885-.317 0-.002-2.396-1.37-2.524-1.444a23301.488 23301.488 0 01-9.519-5.444l-4.013-2.296zm0 0v.144c.027.105.249 3.283.465 3.424.215.142 7.255 2.976 7.255 2.976l7.268 2.892s.174.067.185.065c.017-.004.854-.299.882-.317l-2.523-1.444-5.506-3.148c-.137-.079-3.892-2.227-4.013-2.295l-4.013-2.296z" fill="#fff"/><path fill-rule="evenodd" clip-rule="evenodd" d="M20.444 20.215v.145c.031.12.285 3.275.53 3.438.248.16 7.21 2.969 7.21 2.969l7.25 2.885s.173.065.185.063c.02-.004.848-.296.88-.316a13938.591 13938.591 0 01-8.029-4.593l-4.014-2.295c-.258-.149-4.013-2.296-4.013-2.296zm0 0v.147c.035.135.321 3.266.598 3.45.276.181 7.163 2.963 7.163 2.963l7.231 2.878s.172.064.186.062c.02-.004.841-.293.877-.316l-2.523-1.444-5.506-3.149-4.013-2.295-4.013-2.295z" fill="#fff"/><path fill-rule="evenodd" clip-rule="evenodd" d="M20.444 20.215v.148c.039.151.356 3.26.664 3.462.307.202 7.117 2.958 7.117 2.958l7.215 2.87s.17.064.184.062c.024-.005.835-.29.875-.316l-2.523-1.444-5.506-3.149-4.013-2.295-4.013-2.295z" fill="#fff"/><path fill-rule="evenodd" clip-rule="evenodd" d="M20.444 20.215v.15c.042.165.391 3.25.73 3.474.339.222 7.07 2.952 7.07 2.952l7.198 2.864s.167.062.184.059c.026-.005.829-.287.873-.315 0-.002-2.29-1.31-2.523-1.444a15279.318 15279.318 0 01-9.52-5.444l-4.012-2.296z" fill="#fff"/><path fill-rule="evenodd" clip-rule="evenodd" d="M20.444 20.211v.152c.047.18.428 3.242.797 3.485.369.243 7.024 2.947 7.024 2.947l7.18 2.856s.166.061.184.058c.028-.005.822-.284.87-.314 0-.002-2.269-1.298-2.523-1.444a15565.939 15565.939 0 01-9.52-5.445l-4.012-2.295z" fill="#fff"/><path fill-rule="evenodd" clip-rule="evenodd" d="M20.444 20.215v.154c.05.195.463 3.234.863 3.497.4.263 6.978 2.941 6.978 2.941l7.162 2.85s.165.06.184.056c.03-.005.816-.28.868-.314l-2.523-1.444a35886.169 35886.169 0 00-13.532-7.74z" fill="#fff"/><path fill-rule="evenodd" clip-rule="evenodd" d="M20.444 20.215v.155c.054.21.499 3.227.93 3.51.43.284 6.932 2.935 6.932 2.935l7.144 2.843s.163.06.184.055c.033-.007.81-.279.865-.314-.001-.002-2.226-1.274-2.523-1.444l-5.507-3.15-4.013-2.294-4.012-2.295zm0 0v.157c.058.225.534 3.218.995 3.522.462.304 6.886 2.93 6.886 2.93l7.128 2.835s.16.058.183.054c.035-.007.803-.275.863-.314l-2.523-1.444-5.508-3.15-4.012-2.294-4.012-2.295z" fill="#fff"/><path fill-rule="evenodd" clip-rule="evenodd" d="M20.444 20.215v.158c.062.24.57 3.211 1.062 3.535.492.324 6.84 2.923 6.84 2.923l7.109 2.829s.16.057.183.053c.038-.008.797-.273.861-.313l-2.523-1.444a33550.816 33550.816 0 01-13.532-7.74zm0 0v.16c.066.256.605 3.203 1.129 3.547.523.344 6.793 2.918 6.793 2.918l7.092 2.822s.157.055.182.05c.041-.008.79-.27.859-.313l-2.523-1.444-5.508-3.15-4.012-2.294-4.012-2.295z" fill="#fff"/><path fill-rule="evenodd" clip-rule="evenodd" d="M20.444 20.215v.162c.07.27.64 3.195 1.195 3.559.554.364 6.747 2.912 6.747 2.912l7.075 2.814s.155.055.181.05c.043-.009.785-.267.857-.313l-2.524-1.444-5.507-3.15-4.012-2.294-4.013-2.295z" fill="#fff"/><path fill-rule="evenodd" clip-rule="evenodd" d="M20.444 20.215v.163c.074.285.677 3.187 1.262 3.571.584.385 6.7 2.906 6.7 2.906l7.057 2.808s.154.053.182.048c.045-.01.777-.264.854-.312l-2.524-1.444a15323.013 15323.013 0 01-9.52-5.445l-4.012-2.295z" fill="#fff"/><path fill-rule="evenodd" clip-rule="evenodd" d="M20.444 20.215v.165c.077.3.712 3.178 1.328 3.584.616.405 6.655 2.9 6.655 2.9l7.038 2.8s.153.053.182.047c.048-.01.771-.26.853-.311l-2.525-1.444-5.508-3.15-4.011-2.295-4.013-2.295z" fill="#fff"/><path fill-rule="evenodd" clip-rule="evenodd" d="M20.444 20.215v.166c.082.316.748 3.172 1.394 3.596.646.425 6.609 2.895 6.609 2.895l7.021 2.793s.151.052.181.046c.05-.01.765-.258.85-.312l-2.524-1.444-5.509-3.15-4.01-2.295-4.013-2.294z" fill="#fff"/><path fill-rule="evenodd" clip-rule="evenodd" d="M20.444 20.215v.168c.085.33.783 3.163 1.46 3.608.678.445 6.563 2.889 6.563 2.889l7.004 2.786s.15.05.181.045c.052-.012.758-.256.848-.312l-2.525-1.444-5.508-3.15-4.012-2.295-4.012-2.294z" fill="#fff"/><path fill-rule="evenodd" clip-rule="evenodd" d="M20.444 20.215v.17c.09.345.82 3.155 1.527 3.62.707.465 6.516 2.883 6.516 2.883l6.986 2.78s.147.049.18.042c.055-.01.753-.252.846-.31l-2.524-1.444-5.509-3.15-4.012-2.295-4.011-2.295zm0 0v.171c.094.36.855 3.147 1.594 3.633.739.485 6.47 2.877 6.47 2.877l6.969 2.773s.145.048.18.04c.057-.01.746-.248.844-.31a7636.89 7636.89 0 00-2.525-1.444c-.51-.29-4.831-2.763-5.509-3.15a16605.404 16605.404 0 00-8.023-4.589z" fill="#fff"/><path fill-rule="evenodd" clip-rule="evenodd" d="M20.444 20.215v.173c.097.375.89 3.139 1.66 3.645.77.506 6.424 2.871 6.424 2.871l6.951 2.765s.144.047.18.04c.06-.01.74-.246.841-.31l-2.524-1.444-5.51-3.15-4.01-2.294-4.012-2.295zm0 0v.175c.1.39.926 3.13 1.726 3.656.8.526 6.378 2.866 6.378 2.866l6.933 2.758s.142.046.18.039c.063-.013.733-.244.84-.31l-2.525-1.444c-.552-.314-4.775-2.73-5.509-3.15l-4.011-2.295-4.012-2.294z" fill="#fff"/><path fill-rule="evenodd" clip-rule="evenodd" d="M20.444 20.215v.177c.105.405.962 3.121 1.793 3.668.83.547 6.331 2.861 6.331 2.861l6.916 2.751s.14.044.18.037c.065-.014.727-.24.837-.31l-2.525-1.444-5.509-3.15-4.011-2.294-4.012-2.295z" fill="#fff"/><path fill-rule="evenodd" clip-rule="evenodd" d="M20.444 20.215v.179c.108.42.998 3.113 1.86 3.68.86.567 6.284 2.855 6.284 2.855l6.899 2.744s.138.043.18.036c.066-.014.72-.238.833-.31a23330.031 23330.031 0 01-8.034-4.595l-4.01-2.293-4.012-2.295z" fill="#fff"/><path fill-rule="evenodd" clip-rule="evenodd" d="M20.444 20.215v.18c.113.435 1.033 3.105 1.925 3.693.893.587 6.24 2.849 6.24 2.849l6.88 2.736s.138.043.18.035c.07-.014.714-.235.832-.309-.005-.002-1.91-1.091-2.525-1.444-.616-.351-4.69-2.682-5.51-3.15l-4.01-2.295-4.012-2.294z" fill="#fff"/><path fill-rule="evenodd" clip-rule="evenodd" d="M20.444 20.215v.182c.117.45 1.069 3.097 1.992 3.705.923.607 6.193 2.843 6.193 2.843l6.864 2.73s.134.042.178.033c.071-.014.707-.232.83-.308l-2.525-1.444-5.51-3.151c-.588-.337-3.494-2-4.01-2.294l-4.012-2.295zm0 0v.183c.12.465 1.105 3.09 2.058 3.718.954.627 6.148 2.837 6.148 2.837l6.845 2.723s.133.04.179.032c.073-.016.7-.23.826-.309l-2.524-1.444-5.511-3.151a7706.2 7706.2 0 01-4.01-2.294l-4.011-2.295z" fill="#fff"/><path fill-rule="evenodd" clip-rule="evenodd" d="M20.444 20.215v.185c.124.48 1.14 3.082 2.125 3.73.985.647 6.1 2.832 6.1 2.832l6.828 2.715s.132.04.18.03c.074-.014.693-.225.823-.307l-2.524-1.444-5.511-3.152c-.627-.36-3.46-1.978-4.01-2.294l-4.011-2.294zm0 0v.186c.128.496 1.176 3.074 2.191 3.742 1.016.668 6.055 2.826 6.055 2.826l6.81 2.709s.13.038.178.028c.078-.015.688-.222.822-.307l-2.525-1.444-5.51-3.151-4.01-2.294-4.011-2.295z" fill="#fff"/><path fill-rule="evenodd" clip-rule="evenodd" d="M20.444 20.215v.188c.132.51 1.21 3.066 2.258 3.754 1.045.689 6.008 2.82 6.008 2.82l6.792 2.702s.128.037.179.028c.08-.017.68-.22.819-.306l-2.525-1.445-5.51-3.152-4.01-2.294-4.011-2.294zm0 0v.19c.136.525 1.246 3.058 2.324 3.766 1.078.708 5.962 2.814 5.962 2.814l6.775 2.695s.126.037.178.026c.083-.016.675-.217.817-.305l-2.525-1.445-5.511-3.152-4.01-2.294-4.01-2.294z" fill="#fff"/><path fill-rule="evenodd" clip-rule="evenodd" d="M20.444 20.215v.19c.14.542 1.282 3.051 2.39 3.78 1.108.728 5.917 2.808 5.917 2.808l6.756 2.688s.125.035.178.025c.085-.017.668-.214.815-.305l-2.525-1.445-5.511-3.152-4.01-2.294-4.01-2.294z" fill="#fff"/><path fill-rule="evenodd" clip-rule="evenodd" d="M20.444 20.215v.193c.144.555 1.319 3.042 2.456 3.79 1.14.75 5.871 2.804 5.871 2.804l6.74 2.68s.123.034.177.023c.088-.018.661-.211.812-.305l-2.524-1.445-5.512-3.151-4.01-2.295-4.01-2.294z" fill="#fff"/><path fill-rule="evenodd" clip-rule="evenodd" d="M20.444 20.215v.194c.148.57 1.354 3.035 2.523 3.804 1.17.768 5.824 2.797 5.824 2.797l6.722 2.673s.12.033.177.022c.09-.018.655-.208.81-.304l-2.525-1.445-5.511-3.152-4.01-2.294-4.01-2.294z" fill="#fff"/><path fill-rule="evenodd" clip-rule="evenodd" d="M20.444 20.215v.196c.152.586 1.39 3.026 2.59 3.816 1.199.789 5.777 2.79 5.777 2.79l6.705 2.668s.119.031.176.02c.093-.019.649-.205.808-.304l-2.525-1.445a22396.515 22396.515 0 01-9.522-5.447l-4.01-2.294z" fill="#fff"/><path fill-rule="evenodd" clip-rule="evenodd" d="M20.444 20.215v.197c.156.601 1.425 3.019 2.656 3.828 1.23.81 5.732 2.786 5.732 2.786l6.687 2.66s.117.03.175.018c.095-.019.643-.202.806-.303l-2.526-1.444a47225.889 47225.889 0 00-9.52-5.448c-1.297-.74-4.01-2.294-4.01-2.294z" fill="#fff"/><path fill-rule="evenodd" clip-rule="evenodd" d="M20.444 20.215v.199c.159.616 1.46 3.01 2.723 3.84 1.26.83 5.685 2.78 5.685 2.78l6.67 2.652s.115.03.175.018c.098-.02.636-.2.803-.303l-2.525-1.444c-.87-.499-4.355-2.492-5.512-3.154l-4.01-2.294-4.009-2.294z" fill="#fff"/><path fill-rule="evenodd" clip-rule="evenodd" d="M20.444 20.211v.201c.163.63 1.496 3.002 2.789 3.852 1.292.85 5.64 2.775 5.64 2.775l6.651 2.645s.114.027.175.016c.1-.02.63-.197.801-.303l-2.525-1.444-5.512-3.154-4.01-2.294-4.009-2.294zm0 0v.202c.167.645 1.532 2.995 2.855 3.864 1.324.87 5.594 2.769 5.594 2.769l6.633 2.638s.112.027.176.015c.102-.02.623-.194.798-.303l-2.525-1.444-5.512-3.154-4.01-2.293-4.009-2.294z" fill="#fff"/><path fill-rule="evenodd" clip-rule="evenodd" d="M20.444 20.211v.204c.171.66 1.568 2.986 2.921 3.876 1.355.89 5.548 2.763 5.548 2.763l6.616 2.631s.11.026.175.014c.104-.021.617-.19.796-.303l-2.525-1.444-5.512-3.154-4.01-2.293-4.009-2.294zm0 0v.205c.175.676 1.603 2.979 2.988 3.89 1.385.91 5.5 2.756 5.5 2.756l6.6 2.625s.108.024.174.012c.107-.022.61-.189.794-.303l-2.526-1.444-5.512-3.154-4.009-2.293-4.01-2.294z" fill="#fff"/><path fill-rule="evenodd" clip-rule="evenodd" d="M20.444 20.216v.207c.18.69 1.64 2.97 3.054 3.9 1.416.932 5.455 2.752 5.455 2.752l6.581 2.617s.107.024.175.01c.109-.021.603-.185.79-.302-.006-.003-1.547-.886-2.525-1.443-.975-.56-4.213-2.412-5.512-3.155l-4.009-2.293-4.01-2.294v.001z" fill="#fff"/><path fill-rule="evenodd" clip-rule="evenodd" d="M20.444 20.211v.209c.182.705 1.674 2.962 3.121 3.913 1.446.951 5.408 2.746 5.408 2.746l6.565 2.61s.105.023.174.009c.111-.022.597-.182.788-.302l-2.525-1.444-5.513-3.154-4.01-2.293-4.009-2.294z" fill="#fff"/><path fill-rule="evenodd" clip-rule="evenodd" d="M20.444 20.215v.211c.186.72 1.71 2.953 3.188 3.925 1.476.972 5.361 2.74 5.361 2.74l6.547 2.602s.103.023.174.008c.114-.022.591-.178.786-.3l-2.525-1.444-5.513-3.155-4.01-2.293-4.009-2.294z" fill="#fff"/><path fill-rule="evenodd" clip-rule="evenodd" d="M20.444 20.215v.212c.19.736 1.746 2.946 3.254 3.938s5.316 2.734 5.316 2.734l6.528 2.596s.101.02.174.006c.116-.023.585-.176.784-.3l-2.525-1.444-5.514-3.155-4.009-2.293-4.01-2.294h.002z" fill="#fff"/><path fill-rule="evenodd" clip-rule="evenodd" d="M20.444 20.216v.214c.194.75 1.782 2.937 3.32 3.95 1.539 1.01 5.27 2.727 5.27 2.727l6.51 2.589s.1.02.174.005c.119-.024.58-.172.782-.3l-2.525-1.444-5.514-3.155-4.009-2.294c-1.62-.925-4.01-2.293-4.01-2.293l.002.001z" fill="#fff"/><path fill-rule="evenodd" clip-rule="evenodd" d="M20.444 20.211v.216c.198.765 1.817 2.929 3.386 3.961 1.57 1.032 5.224 2.723 5.224 2.723l6.494 2.582s.097.018.173.003c.12-.024.572-.17.779-.3l-2.525-1.444-5.515-3.154-4.008-2.294-4.01-2.293h.002zm0 0v.217c.203.78 1.853 2.922 3.453 3.975 1.6 1.052 5.178 2.716 5.178 2.716l6.475 2.575s.097.018.174.003c.123-.025.564-.168.776-.3l-2.525-1.444c-1.103-.633-4.045-2.316-5.514-3.155l-4.009-2.294-4.009-2.293z" fill="#fff"/><path fill-rule="evenodd" clip-rule="evenodd" d="M20.444 20.211v.219c.207.795 1.889 2.913 3.519 3.986 1.63 1.072 5.132 2.711 5.132 2.711l6.458 2.567s.095.017.173.001c.125-.025.558-.164.774-.298l-2.525-1.445-5.514-3.154-4.008-2.294-4.01-2.293zm0 0v.22c.21.81 1.925 2.906 3.585 3.998 1.663 1.094 5.086 2.706 5.086 2.706l6.44 2.56s.093.016.173 0c.129-.025.553-.161.772-.298-.007-.005-1.378-.79-2.525-1.445l-5.514-3.155-4.008-2.293-4.01-2.293z" fill="#fff"/><path fill-rule="evenodd" clip-rule="evenodd" d="M20.444 20.215v.222c.214.826 1.96 2.898 3.652 4.01 1.692 1.114 5.039 2.7 5.039 2.7l6.424 2.555s.09.014.172-.002c.13-.026.546-.159.77-.299l-2.526-1.444-5.514-3.156-4.008-2.293-4.01-2.293z" fill="#fff"/><path fill-rule="evenodd" clip-rule="evenodd" d="M20.444 20.215v.224c.218.84 1.995 2.89 3.718 4.023 1.724 1.133 4.994 2.694 4.994 2.694l6.405 2.546s.09.014.171-.003c.133-.026.54-.156.768-.297l-2.525-1.445-5.515-3.155-4.008-2.293-4.008-2.293z" fill="#fff"/><path fill-rule="evenodd" clip-rule="evenodd" d="M20.444 20.211v.225c.222.856 2.031 2.882 3.785 4.035 1.754 1.154 4.947 2.688 4.947 2.688l6.387 2.54s.088.012.173-.005a2.98 2.98 0 00.764-.297l-2.525-1.445-5.515-3.155c-1.117-.639-3.026-1.73-4.008-2.293l-4.008-2.293z" fill="#fff"/><path fill-rule="evenodd" clip-rule="evenodd" d="M20.444 20.216v.226c.226.871 2.067 2.874 3.852 4.048 1.784 1.174 4.9 2.682 4.9 2.682l6.37 2.533s.086.011.171-.007a2.9 2.9 0 00.763-.297l-2.525-1.444L28.46 24.8c-1.137-.65-3.009-1.72-4.008-2.293-1.88-1.074-4.008-2.293-4.008-2.293v.001zm0 0v.228c.23.886 2.102 2.866 3.918 4.06 1.815 1.194 4.854 2.677 4.854 2.677l6.352 2.525s.085.01.171-.007a2.83 2.83 0 00.76-.297c-.008-.006-1.272-.73-2.524-1.445l-5.516-3.155-4.007-2.293-4.009-2.293z" fill="#fff"/><path fill-rule="evenodd" clip-rule="evenodd" d="M20.444 20.215v.23c.233.901 2.138 2.858 3.984 4.072 1.846 1.215 4.809 2.67 4.809 2.67l6.334 2.52s.083.008.171-.01c.143-.027.515-.143.758-.296l-2.525-1.444L28.46 24.8l-4.008-2.292-4.008-2.293zm0 0v.232c.237.915 2.174 2.849 4.05 4.084 1.878 1.235 4.763 2.665 4.763 2.665l6.317 2.512s.08.007.17-.01a2.73 2.73 0 00.756-.297l-2.525-1.445-5.516-3.155-4.007-2.293-4.009-2.293z" fill="#fff"/><path fill-rule="evenodd" clip-rule="evenodd" d="M20.444 20.215v.233c.24.932 2.209 2.843 4.117 4.097 1.908 1.254 4.716 2.66 4.716 2.66l6.3 2.503s.078.007.17-.011a2.67 2.67 0 00.753-.296l-2.525-1.445-5.516-3.155-4.007-2.293-4.009-2.293z" fill="#fff"/><path fill-rule="evenodd" clip-rule="evenodd" d="M20.444 20.215v.236c.245.945 2.245 2.832 4.184 4.108 1.938 1.275 4.67 2.653 4.67 2.653l6.28 2.497s.079.006.17-.012c.15-.03.496-.136.752-.296l-2.525-1.445-5.517-3.155-4.006-2.293-4.009-2.293zm0 0v.237c.249.96 2.28 2.825 4.25 4.12 1.97 1.295 4.624 2.648 4.624 2.648l6.264 2.49s.076.005.17-.013c.151-.03.488-.133.748-.296l-2.525-1.445a22620.235 22620.235 0 00-9.523-5.448l-4.009-2.293z" fill="#fff"/><path fill-rule="evenodd" clip-rule="evenodd" d="M20.444 20.215v.239c.253.976 2.316 2.816 4.317 4.132 2 1.315 4.577 2.642 4.577 2.642l6.247 2.483s.073.004.169-.016a2.48 2.48 0 00.746-.294l-2.525-1.445-5.517-3.155-4.007-2.293-4.008-2.293zm0 0v.24c.257.991 2.352 2.81 4.382 4.145 2.031 1.336 4.532 2.636 4.532 2.636l6.229 2.476s.072.003.17-.017c.155-.03.475-.126.743-.294l-2.525-1.445a12805.622 12805.622 0 00-9.524-5.448l-4.008-2.293z" fill="#fff"/><path fill-rule="evenodd" clip-rule="evenodd" d="M20.444 20.211v.242c.26 1.006 2.388 2.8 4.45 4.157 2.061 1.355 4.485 2.63 4.485 2.63l6.21 2.47s.071 0 .17-.02c.158-.031.47-.123.74-.294l-2.524-1.444-5.518-3.156-4.006-2.292-4.008-2.293zm0 0v.243c.264 1.021 2.423 2.793 4.516 4.17 2.092 1.376 4.44 2.625 4.44 2.625l6.193 2.462s.07 0 .17-.02c.16-.032.463-.12.738-.294l-2.525-1.444-5.517-3.156-4.007-2.293-4.007-2.292z" fill="#fff"/><path fill-rule="evenodd" clip-rule="evenodd" d="M20.444 20.215v.245c.268 1.035 2.459 2.785 4.581 4.182a67.072 67.072 0 004.393 2.619l6.177 2.455s.066-.001.169-.022c.162-.032.456-.117.736-.293l-2.525-1.444-5.518-3.157-4.006-2.292-4.008-2.292z" fill="#fff"/><path fill-rule="evenodd" clip-rule="evenodd" d="M20.444 20.211v.247c.272 1.05 2.494 2.777 4.648 4.194a70.592 70.592 0 004.347 2.613l6.159 2.448s.065-.003.168-.023a2.25 2.25 0 00.735-.293l-2.526-1.445-5.517-3.157-4.006-2.292-4.008-2.292zm0 0v.248c.276 1.065 2.53 2.77 4.714 4.206a74.14 74.14 0 004.301 2.607l6.14 2.441s.434-.024.901-.317l-2.525-1.444-5.517-3.157-8.014-4.584z" fill="#fff"/><path fill-rule="evenodd" clip-rule="evenodd" d="M5.287 29.717s-.438-.025-.913-.322c.054-.033 16.07-9.193 16.07-9.193v3.483L5.287 29.718z" fill="#fff"/><path fill-rule="evenodd" clip-rule="evenodd" d="M4.374 29.392c.054-.033 16.066-9.19 16.066-9.19.001.018-.004 3.463-.093 3.508-.024.013-15.068 6.002-15.068 6.002s-.433-.025-.905-.32zm0 0l16.063-9.189c.002.037-.01 3.442-.187 3.534-.048.024-14.98 5.972-14.98 5.972s-.43-.026-.896-.317z" fill="#fff"/><path fill-rule="evenodd" clip-rule="evenodd" d="M4.374 29.394c.053-.032 16.06-9.188 16.06-9.188.002.055-.014 3.422-.282 3.559-.07.036-14.89 5.943-14.89 5.943s-.427-.026-.888-.314z" fill="#fff"/><path fill-rule="evenodd" clip-rule="evenodd" d="M4.375 29.396c.053-.032 16.056-9.185 16.056-9.185.003.072-.018 3.399-.375 3.582-.094.049-14.802 5.914-14.802 5.914s-.423-.026-.879-.311z" fill="#fff"/><path fill-rule="evenodd" clip-rule="evenodd" d="M4.375 29.394c.052-.031 16.052-9.183 16.052-9.183.004.09-.023 3.378-.469 3.607-.117.06-14.714 5.884-14.714 5.884s-.42-.026-.869-.308zm.001 0l16.05-9.182c.003.11-.029 3.358-.564 3.633-.141.072-14.626 5.854-14.626 5.854s-.415-.026-.86-.305z" fill="#fff"/><path fill-rule="evenodd" clip-rule="evenodd" d="M4.376 29.394c.05-.03 16.046-9.179 16.046-9.179.003.127-.033 3.336-.657 3.657-.166.084-14.537 5.825-14.537 5.825s-.413-.027-.852-.303zm0 0l16.043-9.177c.004.145-.038 3.314-.752 3.681-.188.097-14.449 5.797-14.449 5.797s-.408-.028-.843-.3z" fill="#fff"/><path fill-rule="evenodd" clip-rule="evenodd" d="M4.377 29.396c.049-.03 16.039-9.176 16.039-9.176.006.162-.042 3.293-.845 3.707-.211.107-14.36 5.766-14.36 5.766s-.405-.029-.834-.298zm0 0c.048-.029 16.035-9.174 16.035-9.174.007.18-.046 3.272-.938 3.73-.235.122-14.272 5.738-14.272 5.738s-.401-.029-.825-.294z" fill="#fff"/><path fill-rule="evenodd" clip-rule="evenodd" d="M4.377 29.392L20.41 20.22c.006.198-.051 3.25-1.033 3.755-.258.133-14.183 5.707-14.183 5.707s-.398-.028-.817-.29zm0 0c.048-.029 16.03-9.17 16.03-9.17.007.216-.056 3.229-1.127 3.78-.282.144-14.095 5.678-14.095 5.678s-.394-.03-.808-.288z" fill="#fff"/><path fill-rule="evenodd" clip-rule="evenodd" d="M4.377 29.393l16.027-9.169c.007.236-.061 3.21-1.22 3.806-.307.157-14.008 5.648-14.008 5.648s-.391-.03-.799-.285zm.001 0c.046-.028 16.023-9.166 16.023-9.166.008.252-.066 3.187-1.315 3.83-.328.168-13.917 5.62-13.917 5.62s-.387-.03-.79-.284z" fill="#fff"/><path fill-rule="evenodd" clip-rule="evenodd" d="M4.378 29.394l16.019-9.165c.009.271-.07 3.166-1.408 3.854-.352.181-13.83 5.59-13.83 5.59s-.384-.03-.78-.28zm.001 0l16.016-9.163c.01.29-.075 3.145-1.503 3.88-.375.193-13.74 5.56-13.74 5.56s-.38-.031-.772-.276z" fill="#fff"/><path fill-rule="evenodd" clip-rule="evenodd" d="M4.38 29.395c.043-.026 16.01-9.162 16.01-9.162.011.308-.078 3.124-1.595 3.904-.399.205-13.652 5.532-13.652 5.532s-.377-.032-.764-.274zm0 0c.043-.026 16.008-9.16 16.008-9.16.01.325-.084 3.102-1.69 3.928-.423.218-13.564 5.502-13.564 5.502s-.373-.031-.754-.27z" fill="#fff"/><path fill-rule="evenodd" clip-rule="evenodd" d="M4.38 29.395c.043-.026 16.005-9.157 16.005-9.157.012.343-.088 3.08-1.783 3.953-.446.23-13.476 5.473-13.476 5.473s-.369-.033-.746-.269z" fill="#fff"/><path fill-rule="evenodd" clip-rule="evenodd" d="M4.38 29.398l16.002-9.156c.012.362-.093 3.06-1.878 3.978-.47.241-13.387 5.444-13.387 5.444s-.366-.033-.737-.266z" fill="#fff"/><path fill-rule="evenodd" clip-rule="evenodd" d="M4.381 29.397c.042-.026 15.999-9.155 15.999-9.155.013.38-.098 3.04-1.972 4.003-.493.254-13.299 5.414-13.299 5.414s-.362-.033-.728-.262zm0 0l15.995-9.153c.014.398-.102 3.018-2.065 4.028-.517.265-13.21 5.384-13.21 5.384s-.36-.033-.72-.26zm0 0c.04-.025 15.992-9.15 15.992-9.15.014.415-.107 2.996-2.16 4.051-.54.278-13.12 5.355-13.12 5.355s-.356-.034-.712-.256z" fill="#fff"/><path fill-rule="evenodd" clip-rule="evenodd" d="M4.381 29.4l15.989-9.149c.014.434-.112 2.975-2.252 4.077-.564.29-13.034 5.325-13.034 5.325s-.352-.034-.702-.253zm0 0l15.985-9.147c.016.452-.116 2.954-2.346 4.102-.588.302-12.945 5.296-12.945 5.296s-.348-.035-.694-.251z" fill="#fff"/><path fill-rule="evenodd" clip-rule="evenodd" d="M4.382 29.396l15.981-9.145c.016.47-.12 2.933-2.44 4.125-.61.315-12.856 5.267-12.856 5.267s-.345-.035-.685-.247z" fill="#fff"/><path fill-rule="evenodd" clip-rule="evenodd" d="M4.382 29.4c.039-.024 15.978-9.144 15.978-9.144.017.488-.125 2.911-2.535 4.15-.633.327-12.767 5.238-12.767 5.238s-.341-.036-.676-.245zm0 0l15.975-9.142c.017.507-.13 2.89-2.629 4.176-.656.338-12.68 5.208-12.68 5.208s-.337-.036-.666-.242z" fill="#fff"/><path fill-rule="evenodd" clip-rule="evenodd" d="M4.383 29.4c.037-.023 15.972-9.14 15.972-9.14.017.524-.135 2.87-2.723 4.2-.68.35-12.59 5.179-12.59 5.179s-.334-.036-.659-.24zm0 0c.037-.023 15.969-9.138 15.969-9.138.018.542-.14 2.848-2.817 4.225-.705.362-12.503 5.149-12.503 5.149s-.33-.037-.649-.236z" fill="#fff"/><path fill-rule="evenodd" clip-rule="evenodd" d="M4.383 29.4l15.965-9.136c.019.56-.144 2.828-2.91 4.25-.728.375-12.414 5.12-12.414 5.12s-.327-.037-.64-.233zm.001 0l15.96-9.134c.02.58-.147 2.807-3.002 4.276-.752.386-12.327 5.089-12.327 5.089s-.323-.037-.63-.23z" fill="#fff"/><path fill-rule="evenodd" clip-rule="evenodd" d="M4.384 29.401l15.958-9.132c.02.597-.153 2.785-3.098 4.299-.775.399-12.237 5.061-12.237 5.061s-.32-.038-.623-.228z" fill="#fff"/><path fill-rule="evenodd" clip-rule="evenodd" d="M4.385 29.4l15.954-9.131c.021.615-.157 2.764-3.191 4.324-.798.411-12.149 5.031-12.149 5.031s-.316-.038-.614-.224z" fill="#fff"/><path fill-rule="evenodd" clip-rule="evenodd" d="M4.385 29.398l15.95-9.13c.022.634-.162 2.744-3.284 4.35C16.23 25.04 4.99 29.62 4.99 29.62s-.312-.039-.605-.222zm0 0l15.948-9.128c.022.652-.167 2.722-3.38 4.375-.845.434-11.972 4.972-11.972 4.972s-.308-.039-.596-.219z" fill="#fff"/><path fill-rule="evenodd" clip-rule="evenodd" d="M4.386 29.399c.031-.02 15.944-9.126 15.944-9.126.022.67-.172 2.7-3.473 4.398-.869.448-11.884 4.943-11.884 4.943s-.306-.038-.587-.216z" fill="#fff"/><path fill-rule="evenodd" clip-rule="evenodd" d="M4.386 29.402c.031-.02 15.94-9.124 15.94-9.124.024.688-.175 2.68-3.566 4.424-.893.459-11.796 4.913-11.796 4.913s-.3-.04-.579-.213z" fill="#fff"/><path fill-rule="evenodd" clip-rule="evenodd" d="M4.387 29.4c.031-.02 15.937-9.122 15.937-9.122.024.706-.18 2.658-3.66 4.448-.916.47-11.707 4.884-11.707 4.884s-.299-.04-.57-.21z" fill="#fff"/><path fill-rule="evenodd" clip-rule="evenodd" d="M4.387 29.398c.03-.019 15.933-9.12 15.933-9.12.025.723-.184 2.636-3.754 4.472-.94.483-11.618 4.855-11.618 4.855s-.295-.041-.561-.207z" fill="#fff"/><path fill-rule="evenodd" clip-rule="evenodd" d="M4.387 29.4l15.93-9.118c.025.742-.19 2.616-3.849 4.498-.962.494-11.53 4.825-11.53 4.825s-.29-.041-.552-.205zm0 .001l15.927-9.116c.026.76-.194 2.594-3.942 4.522-.987.508-11.441 4.796-11.441 4.796s-.288-.041-.544-.201z" fill="#fff"/><path fill-rule="evenodd" clip-rule="evenodd" d="M4.387 29.401l15.924-9.114c.026.777-.2 2.573-4.036 4.547-1.01.518-11.353 4.766-11.353 4.766s-.284-.042-.535-.2v.001zm.001 0l15.92-9.112c.027.795-.203 2.551-4.13 4.57-1.033.532-11.264 4.738-11.264 4.738s-.28-.042-.526-.196z" fill="#fff"/><path fill-rule="evenodd" clip-rule="evenodd" d="M4.388 29.402c.027-.017 15.917-9.11 15.917-9.11.027.814-.209 2.53-4.224 4.595-1.057.544-11.177 4.709-11.177 4.709s-.276-.043-.516-.194zm0 0l15.914-9.11c.028.833-.213 2.51-4.318 4.622-1.08.556-11.088 4.679-11.088 4.679s-.273-.043-.508-.19z" fill="#fff"/><path fill-rule="evenodd" clip-rule="evenodd" d="M4.389 29.402l15.91-9.106c.028.85-.218 2.487-4.412 4.645-1.103.568-10.999 4.649-10.999 4.649s-.27-.044-.5-.188zm0 0l15.906-9.105c.03.869-.222 2.468-4.505 4.67-1.127.58-10.911 4.62-10.911 4.62s-.265-.044-.49-.185z" fill="#fff"/><path fill-rule="evenodd" clip-rule="evenodd" d="M4.39 29.404c.024-.015 15.903-9.104 15.903-9.104.03.887-.227 2.446-4.6 4.696-1.15.591-10.822 4.59-10.822 4.59s-.262-.044-.481-.182zm0 0l15.9-9.1c.03.904-.232 2.424-4.694 4.718-1.174.605-10.734 4.562-10.734 4.562s-.258-.045-.472-.179z" fill="#fff"/><path fill-rule="evenodd" clip-rule="evenodd" d="M4.39 29.4l15.896-9.1c.032.922-.236 2.403-4.787 4.744-1.198.616-10.646 4.532-10.646 4.532s-.254-.045-.463-.176z" fill="#fff"/><path fill-rule="evenodd" clip-rule="evenodd" d="M4.39 29.403l15.893-9.098c.032.94-.24 2.382-4.88 4.769-1.221.627-10.557 4.502-10.557 4.502s-.251-.045-.455-.173z" fill="#fff"/><path fill-rule="evenodd" clip-rule="evenodd" d="M4.39 29.401l15.89-9.096c.033.959-.245 2.36-4.974 4.794-1.245.64-10.47 4.472-10.47 4.472s-.247-.045-.445-.17z" fill="#fff"/><path fill-rule="evenodd" clip-rule="evenodd" d="M4.39 29.403l15.887-9.094c.032.976-.25 2.34-5.068 4.818-1.269.652-10.38 4.444-10.38 4.444s-.245-.047-.438-.168z" fill="#fff"/><path fill-rule="evenodd" clip-rule="evenodd" d="M4.391 29.406l15.884-9.092c.033.995-.255 2.319-5.164 4.843-1.29.664-10.29 4.414-10.29 4.414s-.242-.046-.43-.165zm0 0l15.88-9.091c.034 1.013-.26 2.297-5.257 4.868-1.314.676-10.203 4.385-10.203 4.385s-.237-.047-.42-.162z" fill="#fff"/><path fill-rule="evenodd" clip-rule="evenodd" d="M4.392 29.403l15.876-9.09c.036 1.032-.263 2.277-5.35 4.893-1.338.689-10.115 4.356-10.115 4.356s-.233-.048-.41-.159z" fill="#fff"/><path fill-rule="evenodd" clip-rule="evenodd" d="M4.392 29.405l15.873-9.087c.036 1.05-.268 2.255-5.444 4.918-1.361.7-10.025 4.325-10.025 4.325s-.231-.048-.404-.156z" fill="#fff"/><path fill-rule="evenodd" clip-rule="evenodd" d="M4.392 29.404l15.87-9.086c.036 1.067-.273 2.234-5.538 4.942-1.386.713-9.938 4.296-9.938 4.296s-.226-.048-.394-.153z" fill="#fff"/><path fill-rule="evenodd" clip-rule="evenodd" d="M4.393 29.402l15.867-9.084c.036 1.086-.278 2.213-5.632 4.967-1.41.724-9.85 4.267-9.85 4.267s-.223-.048-.385-.15z" fill="#fff"/><path fill-rule="evenodd" clip-rule="evenodd" d="M4.393 29.408l15.862-9.081c.038 1.103-.282 2.191-5.725 4.991-1.432.737-9.762 4.237-9.762 4.237s-.219-.048-.375-.146zm0 0l15.86-9.08c.038 1.122-.287 2.17-5.82 5.016-1.456.748-9.672 4.208-9.672 4.208s-.216-.049-.367-.144z" fill="#fff"/><path fill-rule="evenodd" clip-rule="evenodd" d="M4.394 29.405l15.855-9.078c.039 1.14-.291 2.15-5.913 5.04-1.479.762-9.584 4.18-9.584 4.18s-.212-.05-.358-.142z" fill="#fff"/><path fill-rule="evenodd" clip-rule="evenodd" d="M4.394 29.404c.015-.01 15.851-9.077 15.851-9.077.04 1.158-.295 2.128-6.006 5.066-1.503.773-9.496 4.149-9.496 4.149s-.209-.05-.35-.139z" fill="#fff"/><path fill-rule="evenodd" clip-rule="evenodd" d="M4.395 29.401c.015-.01 15.848-9.074 15.848-9.074.04 1.176-.3 2.107-6.1 5.09-1.527.785-9.408 4.12-9.408 4.12s-.204-.051-.34-.136z" fill="#fff"/><path fill-rule="evenodd" clip-rule="evenodd" d="M4.394 29.404l15.846-9.073c.04 1.194-.306 2.086-6.196 5.116-1.549.797-9.318 4.09-9.318 4.09s-.202-.05-.332-.133z" fill="#fff"/><path fill-rule="evenodd" clip-rule="evenodd" d="M4.395 29.407l15.842-9.071c.042 1.212-.31 2.065-6.288 5.14-1.573.81-9.23 4.061-9.23 4.061s-.198-.052-.324-.13zm0 0l15.838-9.07c.043 1.23-.314 2.045-6.382 5.165-1.597.821-9.141 4.032-9.141 4.032s-.195-.052-.315-.128z" fill="#fff"/><path fill-rule="evenodd" clip-rule="evenodd" d="M4.395 29.407L20.23 20.34c.043 1.248-.319 2.022-6.476 5.19-1.62.833-9.053 4.002-9.053 4.002s-.191-.052-.306-.125zm0 .001l15.833-9.065c.043 1.266-.324 2.001-6.57 5.214-1.644.846-8.965 3.973-8.965 3.973s-.187-.053-.297-.122z" fill="#fff"/><path fill-rule="evenodd" clip-rule="evenodd" d="M4.396 29.408l15.829-9.063c.043 1.284-.329 1.979-6.665 5.238-1.667.857-8.876 3.944-8.876 3.944s-.183-.054-.288-.119zm0 0l15.826-9.061c.044 1.301-.333 1.958-6.758 5.263-1.69.87-8.787 3.914-8.787 3.914s-.18-.053-.28-.116z" fill="#fff"/><path fill-rule="evenodd" clip-rule="evenodd" d="M4.397 29.405l15.822-9.06c.045 1.32-.338 1.938-6.852 5.288-1.714.882-8.7 3.884-8.7 3.884s-.176-.053-.27-.112zm0 0l15.818-9.058c.046 1.339-.342 1.917-6.946 5.313-1.737.894-8.61 3.855-8.61 3.855s-.173-.054-.262-.11z" fill="#fff"/><path fill-rule="evenodd" clip-rule="evenodd" d="M4.398 29.407l15.815-9.058c.046 1.358-.347 1.896-7.04 5.339-1.76.905-8.522 3.826-8.522 3.826s-.17-.055-.253-.107zm0 0c.008-.006 15.811-9.055 15.811-9.055.047 1.375-.352 1.873-7.133 5.362-1.785.918-8.434 3.796-8.434 3.796s-.166-.054-.244-.104z" fill="#fff"/><path fill-rule="evenodd" clip-rule="evenodd" d="M4.399 29.407l15.808-9.053c.047 1.393-.356 1.853-7.228 5.387-1.808.93-8.345 3.767-8.345 3.767s-.163-.055-.235-.1v-.001zm0 0l15.805-9.051c.048 1.41-.361 1.832-7.321 5.411-1.832.942-8.257 3.738-8.257 3.738s-.159-.055-.227-.098z" fill="#fff"/><path fill-rule="evenodd" clip-rule="evenodd" d="M4.399 29.407L20.2 20.358c.048 1.43-.365 1.81-7.415 5.436-1.855.954-8.168 3.708-8.168 3.708s-.156-.056-.218-.095zm0 0l15.798-9.047c.05 1.447-.37 1.79-7.509 5.46-1.878.967-8.08 3.68-8.08 3.68s-.15-.056-.209-.093z" fill="#fff"/><path fill-rule="evenodd" clip-rule="evenodd" d="M4.4 29.408l15.793-9.045c.05 1.465-.374 1.767-7.602 5.486-1.902.978-7.992 3.649-7.992 3.649s-.148-.057-.2-.09zm0 .001l15.791-9.043c.05 1.483-.38 1.746-7.697 5.51-1.925.99-7.902 3.62-7.902 3.62s-.144-.057-.192-.087z" fill="#fff"/><path fill-rule="evenodd" clip-rule="evenodd" d="M4.4 29.409l15.788-9.042c.051 1.501-.384 1.726-7.79 5.535-1.95 1.003-7.816 3.591-7.816 3.591s-.14-.058-.182-.084zm0 0c.003-.003 15.785-9.04 15.785-9.04.05 1.519-.39 1.704-7.885 5.56-1.972 1.014-7.726 3.56-7.726 3.56s-.137-.057-.174-.08z" fill="#fff"/><path fill-rule="evenodd" clip-rule="evenodd" d="M4.401 29.41c.003-.003 15.78-9.038 15.78-9.038.054 1.538-.392 1.683-7.977 5.585-1.996 1.026-7.638 3.53-7.638 3.53s-.134-.057-.165-.077z" fill="#fff"/><path fill-rule="evenodd" clip-rule="evenodd" d="M4.401 29.412l15.777-9.036c.053 1.555-.397 1.662-8.072 5.61-2.02 1.038-7.55 3.502-7.55 3.502l-.155-.076z" fill="#fff"/><path fill-rule="evenodd" clip-rule="evenodd" d="M4.401 29.41l15.774-9.034c.054 1.573-.402 1.641-8.165 5.634-2.043 1.05-7.461 3.473-7.461 3.473l-.147-.072z" fill="#fff"/><path fill-rule="evenodd" clip-rule="evenodd" d="M4.402 29.409c.001-.002 15.77-9.033 15.77-9.033.054 1.592-.407 1.62-8.26 5.659-2.066 1.062-7.372 3.443-7.372 3.443l-.139-.07z" fill="#fff"/><path fill-rule="evenodd" clip-rule="evenodd" d="M4.402 29.407l15.767-9.031c.055 1.61-.412 1.598-8.354 5.683-2.088 1.075-7.283 3.415-7.283 3.415l-.13-.067zm0 0l15.764-9.029c.056 1.628-.415 1.578-8.446 5.708-2.114 1.087-7.196 3.385-7.196 3.385l-.122-.064z" fill="#fff"/><path fill-rule="evenodd" clip-rule="evenodd" d="M4.403 29.408l.111.06s4.971-2.256 7.107-3.355c8.121-4.176 8.598-4.086 8.542-5.732l-15.76 9.027zm.126-.896s-.193.342-.157.88l16.07-9.193-3.046-1.743L4.529 28.512zm15.913-8.314l16.068 9.191c.026-.55-.148-.859-.148-.859L23.487 18.456l-3.045 1.742z" fill="#fff"/><path fill-rule="evenodd" clip-rule="evenodd" d="M20.026 2.098a1.82 1.82 0 00-.318.345l-2.312 16.015 3.046 1.743V1.821s-.173.076-.416.277z" fill="#fff"/><path fill-rule="evenodd" clip-rule="evenodd" d="M17.919 18.46c-.125-.146-.107-.354-.1-.481.021-.473 2.013-15.693 2.013-15.693l-.067.078-.058.075-2.303 15.904a.275.275 0 01-.1.172h.002L4.548 28.45s-.039.078-.071.182l13.229-9.999 2.199 1.19.198.06s-2.042-1.257-2.184-1.424zm5.541.011l.11.05a.272.272 0 01-.098-.172l-.011.122zm12.25 11.231l-15.266-6.308-15.268 6.308.111.013 15.06-5.992-.003.001a.252.252 0 01.187-.005L35.6 29.715l.11-.013z" fill="#fff"/><path fill-rule="evenodd" clip-rule="evenodd" d="M23.49 18.46l12.849 9.994s.032.06.07.18c-.055-.042-12.678-9.615-13.201-10.003l.282-.17z" fill="#fff"/><path fill-rule="evenodd" clip-rule="evenodd" d="M23.208 18.63s-.502.315-.913.57l-.05-.086c.66-.347.989-.52.938-.906l-2.069-15.85.065.084 2.31 16.018-.282.17zM4.37 29.29l15.507-9.052.084-.049c.02-.012.058-.063.01-.142l.198.16-15.797 9.147-.003-.064zm32.147 0l-15.56-9.076s-.06-.03-.066-.069c-.008-.06.05-.127.05-.127l-.251.18 15.824 9.156.002-.065zM20.357 1.862l-.148 17.867s.003.091-.013.113c-.035.048-.068.042-.174.032l.28.078.105-18.118-.051.028zm-.055 18.541h.276v3.278h-.276v-3.278z" fill="#fff"/><path fill-rule="evenodd" clip-rule="evenodd" d="M22.105 19.208l-1.694.869-.221-.003-1.69-.866s-.902-.504-.935-.479c-.032.026.886.565.886.565l1.604 1.017.13.187h.235l.13-.188 1.604-1.016s.943-.542.913-.57c-.03-.028-.962.484-.962.484zm-1.596 1.382a2.444 2.444 0 00-.42.003L4.277 29.515l-.044-.026-.003-.06 15.719-9.107c.032-.018.2-.299.2-.355l.105-18.027.049-.025.049.027.105 18.025c0 .07.177.337.206.354l15.711 9.106-.002.06-.048.03-15.815-8.928v.001zm-.082.226c.005-.063-.005-.166.047-.194.048-.024.17.042.193.058a.52.52 0 00.152-.266c-.052-.037-.156-.076-.156-.135 0-.056.102-.099.147-.134a.527.527 0 00-.124-.209c-.029.014-.146.088-.194.06-.05-.03-.039-.13-.04-.183a.446.446 0 00-.153-.043.502.502 0 00-.15.033c0 .058.008.163-.038.189-.05.027-.174-.044-.197-.058a.533.533 0 00-.125.21c.052.032.142.076.14.135 0 .07-.095.109-.148.14a.528.528 0 00.153.263c.024-.016.137-.085.191-.058.055.026.049.132.049.188a.51.51 0 00.125.014l.128-.01z" fill="#fff"/></svg>