<svg width="128" height="128" fill="none" xmlns="http://www.w3.org/2000/svg"><g clip-path="url(#clip0_2_837)" fill="#00BFF3"><path d="M44.846 61.818C40 56.346 33.54 53.333 26.653 53.333c-6.889 0-13.349 3.013-18.191 8.485-9.84 11.116-9.84 29.2 0 40.317l18.19 20.551 18.192-20.551c9.84-11.116 9.84-29.2.002-40.317zM41.65 99.307l-14.995 16.94-14.998-16.94c-8.46-9.556-8.46-25.105 0-34.66 4.022-4.545 9.349-7.047 14.996-7.047s10.976 2.502 14.995 7.046c8.46 9.556 8.46 25.103.002 34.66zm62.348-47.025l13.79-15.544c7.42-8.363 7.42-21.965 0-30.327C114.118 2.276 109.22 0 103.996 0c-5.223 0-10.12 2.276-13.79 6.41-7.42 8.363-7.42 21.965 0 30.328l13.792 15.544zm-10.6-43.038c2.847-3.21 6.611-4.977 10.598-4.977 3.989 0 7.752 1.766 10.6 4.977 6.033 6.799 6.033 17.862 0 24.661l-10.598 11.949-10.6-11.949c-6.034-6.799-6.034-17.862 0-24.661zm18.823 107.059a2.132 2.132 0 00-2.549 1.612 7.403 7.403 0 01-1.415 2.97 2.132 2.132 0 001.675 3.452c.633 0 1.259-.28 1.679-.815a11.765 11.765 0 002.223-4.668 2.133 2.133 0 00-1.613-2.551zM68.256 66.134a7.505 7.505 0 01-2.67-.49 2.141 2.141 0 00-2.755 1.232 2.137 2.137 0 001.233 2.754 11.78 11.78 0 004.188.77h.761c1.18 0 2.134-.953 2.134-2.133 0-1.18-.954-2.133-2.134-2.133h-.757zm-5.064-13.493c.386 0 .775-.105 1.127-.322a7.363 7.363 0 013.101-1.073 2.136 2.136 0 001.888-2.355 2.136 2.136 0 00-2.355-1.888 11.57 11.57 0 00-4.894 1.693 2.134 2.134 0 001.133 3.945zm-24.651 71.092h-4.267c-1.18 0-2.133.954-2.133 2.134 0 1.179.954 2.133 2.133 2.133h4.267a2.133 2.133 0 100-4.267zm38.243-38.4c-.184 0-.365.005-.546.013a2.132 2.132 0 00.085 4.265c.03 0 .06 0 .09-.002l4.179-.009c1.18 0 2.133-.954 2.133-2.133 0-1.18-.953-2.134-2.133-2.134h-3.808zM75.716 51.2h4.267a2.13 2.13 0 002.133-2.133c0-1.18-.954-2.133-2.133-2.133h-4.267a2.13 2.13 0 00-2.133 2.133 2.13 2.13 0 002.133 2.133zm26.211 34.133c-1.18 0-2.134.954-2.134 2.133 0 1.18.954 2.134 2.134 2.134h4.266c1.18 0 2.134-.954 2.134-2.134s-.954-2.133-2.134-2.133h-4.266zm7.622-17.067c0-1.18-.954-2.133-2.133-2.133h-4.267a2.13 2.13 0 00-2.133 2.133 2.13 2.13 0 002.133 2.134h4.267a2.133 2.133 0 002.133-2.134zM89.125 89.6h4.267c1.18 0 2.133-.954 2.133-2.133 0-1.18-.953-2.134-2.133-2.134h-4.267c-1.18 0-2.133.954-2.133 2.134s.956 2.133 2.133 2.133zm3.659-38.4c1.18 0 2.133-.954 2.133-2.133 0-1.18-.954-2.133-2.133-2.133h-4.267a2.13 2.13 0 00-2.133 2.133 2.13 2.13 0 002.133 2.133h4.267zM77.548 66.133a2.13 2.13 0 00-2.133 2.133 2.13 2.13 0 002.133 2.133h4.266c1.18 0 2.134-.953 2.134-2.133 0-1.18-.954-2.133-2.133-2.133h-4.267zm19.202 2.133c0-1.18-.954-2.133-2.134-2.133h-4.267c-1.18 0-2.133.954-2.133 2.133 0 1.18.953 2.134 2.133 2.134h4.267a2.133 2.133 0 002.133-2.134zm30.029 7.748a2.133 2.133 0 00-2.445-1.768 2.132 2.132 0 00-1.769 2.444c.06.38.094.766.09 1.178a7.49 7.49 0 01-.303 2.108 2.133 2.133 0 104.096 1.199c.313-1.073.473-2.185.473-3.292a11.29 11.29 0 00-.142-1.869zM89.74 123.733h-4.267c-1.18 0-2.133.954-2.133 2.134 0 1.179.953 2.133 2.133 2.133h4.267a2.133 2.133 0 100-4.267zm-12.8 0h-4.267c-1.18 0-2.133.954-2.133 2.134 0 1.179.954 2.133 2.133 2.133h4.267a2.133 2.133 0 000-4.267zm23.469-17.066c0-1.18-.954-2.134-2.134-2.134H94.01c-1.18 0-2.133.954-2.133 2.134 0 1.179.953 2.133 2.133 2.133h4.266a2.133 2.133 0 002.134-2.133zm-12.801 0c0-1.18-.954-2.134-2.133-2.134h-4.267c-1.18 0-2.133.954-2.133 2.134 0 1.179.953 2.133 2.133 2.133h4.267a2.133 2.133 0 002.133-2.133zm14.776 17.066h-4.117c-1.18 0-2.133.954-2.133 2.134 0 1.179.953 2.133 2.133 2.133l4.205-.002.062-2.134v2.134c1.179 0 2.058-.954 2.058-2.134 0-1.177-1.028-2.131-2.208-2.131zm7.549-11.268a2.132 2.132 0 001.675-3.451 11.828 11.828 0 00-4.009-3.26 2.135 2.135 0 00-1.9 3.821 7.47 7.47 0 012.553 2.078 2.14 2.14 0 001.681.812zm8.134-27.71a7.413 7.413 0 01-2.885.578h-.458c-1.18 0-2.134.954-2.134 2.133 0 1.18.954 2.134 2.134 2.134h.458c1.57 0 3.096-.307 4.534-.911a2.133 2.133 0 00-1.649-3.934zM59.794 63.691a2.138 2.138 0 001.36-2.694 7.454 7.454 0 01-.31-3.28 2.132 2.132 0 00-1.85-2.382c-1.206-.135-2.238.685-2.383 1.85a11.743 11.743 0 00.489 5.146 2.136 2.136 0 002.694 1.36zm-8.452 60.042h-4.267c-1.18 0-2.133.954-2.133 2.134 0 1.179.953 2.133 2.133 2.133h4.267a2.133 2.133 0 100-4.267zm21.453-15.798a2.133 2.133 0 00.89-4.073 7.54 7.54 0 01-2.62-1.997 2.133 2.133 0 10-3.266 2.746 11.819 11.819 0 004.11 3.13c.289.13.59.194.886.194zm48.265-40.227a11.609 11.609 0 00-4.943-1.54 2.133 2.133 0 10-.333 4.254 7.35 7.35 0 013.136.977 2.133 2.133 0 102.14-3.69zm-56.921 56.025h-4.267c-1.18 0-2.133.954-2.133 2.134 0 1.179.953 2.133 2.133 2.133h4.267a2.133 2.133 0 100-4.267zm5.315-28.077a7.411 7.411 0 011.32-3.014 2.134 2.134 0 00-3.437-2.528 11.69 11.69 0 00-2.076 4.74 2.135 2.135 0 002.098 2.537 2.147 2.147 0 002.095-1.735z"/><path d="M104.515 32c6.468 0 11.733-5.265 11.733-11.733 0-6.469-5.265-11.734-11.733-11.734-6.468 0-11.733 5.265-11.733 11.734 0 6.468 5.265 11.733 11.733 11.733zm0-19.2c4.117 0 7.467 3.35 7.467 7.466 0 4.118-3.35 7.467-7.467 7.467-4.117 0-7.467-3.35-7.467-7.466 0-4.118 3.352-7.467 7.467-7.467zM26.652 66.133c-7.06 0-12.8 5.74-12.8 12.8 0 7.059 5.74 12.8 12.8 12.8 7.06 0 12.8-5.741 12.8-12.8 0-7.06-5.74-12.8-12.8-12.8zm0 21.333c-4.706 0-8.533-3.827-8.533-8.533 0-4.706 3.827-8.534 8.533-8.534 4.706 0 8.533 3.828 8.533 8.534 0 4.706-3.827 8.533-8.533 8.533z"/></g><defs><clipPath id="clip0_2_837"><path fill="#fff" d="M0 0h128v128H0z"/></clipPath></defs></svg>