<svg width="20" height="20" fill="none" xmlns="http://www.w3.org/2000/svg"><path d="M3.333 8.489h4.334a.333.333 0 100-.667H3.333a.333.333 0 100 .667zM12 9.822H3.333a.333.333 0 100 .666H12a.333.333 0 100-.666zm0 2H3.333a.333.333 0 100 .666H12a.333.333 0 100-.666z" fill="#00BFF3"/><path d="M18.024.845L6.644.822c-1.09 0-1.977.886-1.977 1.976v1.708l-2.69.006A1.98 1.98 0 000 6.49v7.047c0 1.09.887 1.976 1.977 1.976H4v3.333a.333.333 0 00.58.225l3.235-3.559 5.542-.022c1.09 0 1.976-.887 1.976-1.977v-.037l1.754 1.928a.334.334 0 00.58-.224v-3.333h.356A1.98 1.98 0 0020 9.87V2.822c0-1.09-.886-1.977-1.976-1.977zm-3.357 12.667c0 .722-.588 1.31-1.312 1.31l-5.69.023a.333.333 0 00-.245.11l-2.753 3.028v-2.805a.333.333 0 00-.334-.333H1.977c-.723 0-1.31-.588-1.31-1.31V6.488c0-.722.587-1.31 1.31-1.31L5 5.172l8.357-.017c.722 0 1.31.587 1.31 1.31v7.047zm4.666-3.643c0 .722-.587 1.31-1.31 1.31h-.69a.333.333 0 00-.333.333v2.804l-1.667-1.833V6.465c0-1.09-.886-1.977-1.977-1.977l-8.023.017V2.798c0-.722.588-1.31 1.31-1.31l11.38.023c.723 0 1.31.588 1.31 1.31V9.87z" fill="#00BFF3"/></svg>