<svg width="20" height="20" fill="none" xmlns="http://www.w3.org/2000/svg"><path d="M10 0C4.486 0 0 4.486 0 10s4.486 10 10 10 10-4.486 10-10S15.514 0 10 0zm0 19.333C4.854 19.333.667 15.146.667 10S4.854.667 10 .667 19.333 4.854 19.333 10 15.146 19.333 10 19.333z" fill="#00BFF3"/><path d="M10.333 8.674v-3.38a.333.333 0 10-.666 0v3.38a1.332 1.332 0 00-.953.952h-2.38a.333.333 0 100 .667h2.38c.149.573.667 1 1.286 1a1.33 1.33 0 00.333-2.619zM10 10.626a.667.667 0 11.001-1.334.667.667 0 01-.001 1.334zm.001-7.333a.333.333 0 00.334-.333v-.334a.333.333 0 10-.667 0v.334c0 .184.15.333.333.333zm0 13.334a.333.333 0 00-.333.333v.334a.333.333 0 10.667 0v-.334a.333.333 0 00-.334-.333zm7.334-7H17a.333.333 0 100 .667h.334a.333.333 0 100-.667zm-14.336 0h-.334a.333.333 0 100 .667H3a.333.333 0 100-.667zM14.95 4.538l-.235.236a.333.333 0 10.471.471l.236-.235a.333.333 0 10-.472-.472zM4.814 14.673l-.236.236a.333.333 0 10.471.471l.236-.235a.333.333 0 10-.471-.472zm10.372 0a.333.333 0 10-.471.472l.235.235a.332.332 0 00.472 0 .333.333 0 000-.471l-.236-.236zM5.05 4.538a.333.333 0 10-.472.471l.236.236a.332.332 0 00.471 0 .333.333 0 000-.471l-.236-.236z" fill="#00BFF3"/></svg>