<svg width="38" height="38" fill="none" xmlns="http://www.w3.org/2000/svg"><g clip-path="url(#clip0_2_792)"><path d="M33.39 7.694L19.108.084a.71.71 0 00-.677.004L4.545 7.698a.711.711 0 00-.37.624v9.94a20.583 20.583 0 0012.338 18.839l1.927.84a.71.71 0 00.566 0l2.172-.938a20.543 20.543 0 0012.588-18.938V8.322a.711.711 0 00-.376-.628zm-7.447 8.402l-8.748 7.116a.71.71 0 01-.989-.09l-3.756-4.398a.711.711 0 111.082-.923l3.305 3.87 8.208-6.678a.71.71 0 11.897 1.103z" fill="#00BFF3"/></g><defs><clipPath id="clip0_2_792"><path fill="#fff" d="M0 0h38v38H0z"/></clipPath></defs></svg>