<svg width="40" height="40" fill="none" xmlns="http://www.w3.org/2000/svg"><path d="M20 0C8.972 0 0 8.972 0 20c0 11.029 8.972 20 20 20s20-8.971 20-20C40 8.972 31.028 0 20 0zm0 38.462C9.82 38.462 1.538 30.178 1.538 20 1.538 9.82 9.821 1.538 20 1.538c10.18 0 18.462 8.283 18.462 18.462 0 10.18-8.283 18.462-18.462 18.462z" fill="#fff"/><path d="M29.425 11.797l-11.823 13.3-7.122-5.698a.77.77 0 00-.96 1.202l7.692 6.154a.768.768 0 001.056-.09l12.307-13.847a.768.768 0 10-1.15-1.021z" fill="#fff"/></svg>