<svg width="20" height="20" fill="none" xmlns="http://www.w3.org/2000/svg"><path d="M9.918 10.776h.156c1.427-.02 2.58-.447 3.433-1.263 1.875-1.797 1.563-4.879 1.529-5.173-.122-2.207-1.349-3.263-2.362-3.756C11.92.215 11.038.017 10.054 0h-.082c-.54 0-1.602.075-2.62.567-1.022.493-2.269 1.55-2.39 3.773-.034.294-.346 3.376 1.529 5.173.847.816 2 1.242 3.427 1.263zM6.262 4.444c0-.013.005-.025.005-.033.16-2.97 2.639-3.289 3.7-3.289h.059c1.314.025 3.55.48 3.7 3.289 0 .012 0 .025.005.033.005.029.346 2.845-1.203 4.328-.613.588-1.431.878-2.507.886h-.049c-1.071-.008-1.894-.298-2.503-.886-1.543-1.475-1.212-4.303-1.207-4.328z" fill="#00BFF3"/><path d="M19.999 15.889v-.013c0-.033-.005-.066-.005-.103-.03-.82-.093-2.738-2.206-3.35l-.049-.013c-2.196-.477-4.022-1.553-4.041-1.566-.297-.178-.706-.116-.915.137-.21.252-.137.6.16.778a16.43 16.43 0 004.446 1.727c1.134.344 1.26 1.375 1.295 2.32 0 .037 0 .07.005.103.005.373-.024.949-.102 1.28-.79.381-3.881 1.698-8.585 1.698-4.684 0-7.795-1.321-8.589-1.702-.078-.331-.112-.907-.102-1.28 0-.033.005-.066.005-.103.034-.945.16-1.976 1.295-2.32 2.425-.53 4.363-1.681 4.446-1.727.297-.178.37-.526.16-.778-.21-.253-.618-.315-.915-.137-.02.012-1.836 1.09-4.041 1.566l-.05.012C.1 13.035.036 14.953.007 15.768c0 .038 0 .07-.005.104v.012c-.005.216-.01 1.322.249 1.877a.561.561 0 00.253.26c.146.083 3.647 1.98 9.504 1.98 5.858 0 9.359-1.9 9.505-1.98a.586.586 0 00.253-.26c.243-.551.238-1.657.234-1.872z" fill="#00BFF3"/></svg>