<svg width="17" height="17" fill="none" xmlns="http://www.w3.org/2000/svg"><g clip-path="url(#clip0)" fill="#00BFF3"><path d="M8.44 9.16h.113c1.031-.018 1.866-.38 2.482-1.074C12.39 6.56 12.165 3.94 12.14 3.69c-.088-1.876-.975-2.774-1.707-3.193C9.887.183 9.25.014 8.539 0h-.06c-.39 0-1.158.063-1.894.482-.74.42-1.64 1.317-1.729 3.207-.024.25-.25 2.87 1.106 4.397.612.694 1.447 1.056 2.478 1.074zM5.796 3.777c0-.01.004-.02.004-.028C5.916 1.225 7.708.954 8.475.954h.043c.95.021 2.566.408 2.675 2.795 0 .01 0 .021.004.028.003.025.25 2.419-.87 3.68-.443.5-1.035.746-1.813.753H8.48c-.775-.007-1.37-.254-1.81-.754-1.116-1.253-.876-3.657-.873-3.679z"/><path d="M15.728 13.505v-.011c0-.028-.003-.056-.003-.088-.021-.697-.067-2.327-1.595-2.848-.01-.004-.025-.007-.035-.01-1.588-.405-2.908-1.32-2.922-1.331a.475.475 0 10-.546.778c.06.042 1.461 1.017 3.214 1.468.82.292.912 1.169.937 1.971 0 .032 0 .06.003.088.004.317-.017.806-.074 1.088-.57.324-2.806 1.443-6.206 1.443-3.387 0-5.636-1.123-6.21-1.447a6.05 6.05 0 01-.074-1.087c0-.029.003-.057.003-.088.025-.803.117-1.68.937-1.972 1.753-.45 3.154-1.43 3.214-1.468a.475.475 0 10-.546-.778c-.014.01-1.327.926-2.922 1.33a.445.445 0 00-.035.011c-1.528.525-1.573 2.155-1.595 2.848 0 .032 0 .06-.003.088v.011c-.004.183-.007 1.123.18 1.595a.452.452 0 00.183.222C1.738 15.388 4.269 17 8.504 17s6.767-1.616 6.872-1.682a.471.471 0 00.183-.222c.176-.469.173-1.408.17-1.591z"/></g><defs><clipPath id="clip0"><path fill="#fff" d="M0 0h17v17H0z"/></clipPath></defs></svg>