<svg width="17" height="17" fill="none" xmlns="http://www.w3.org/2000/svg"><path d="M15.3 14.695l-.974-10.961a.468.468 0 00-.466-.428h-2.002A3.361 3.361 0 008.5 0a3.361 3.361 0 00-3.36 3.306h-2a.466.466 0 00-.466.428L1.7 14.695c0 .014-.004.028-.004.042C1.696 15.985 2.84 17 4.248 17h8.503c1.408 0 2.552-1.015 2.552-2.263 0-.014 0-.028-.003-.042zM8.5.94a2.422 2.422 0 012.42 2.367H6.08A2.422 2.422 0 018.5.94zm4.25 15.12H4.248c-.883 0-1.6-.584-1.613-1.303l.932-10.51h1.57v1.426c0 .26.21.469.47.469.261 0 .47-.209.47-.47V4.249h4.842v1.426c0 .26.209.469.47.469.26 0 .469-.209.469-.47V4.249h1.571l.935 10.51c-.013.72-.733 1.303-1.613 1.303z" fill="#00BFF3"/></svg>