<svg width="20" height="20" fill="none" xmlns="http://www.w3.org/2000/svg"><path d="M4.074 13.295a21.218 21.218 0 007.058 5.528c1.032.49 2.412 1.07 3.95 1.169.095.004.186.008.281.008 1.032 0 1.86-.356 2.536-1.09a.069.069 0 00.017-.02c.24-.29.514-.552.8-.83.194-.186.393-.38.584-.58.883-.92.883-2.088-.008-2.98l-2.49-2.49c-.424-.44-.93-.671-1.46-.671-.53 0-1.04.232-1.475.667l-1.484 1.483a7.933 7.933 0 00-.41-.215 5.138 5.138 0 01-.456-.249c-1.35-.858-2.577-1.976-3.75-3.415-.593-.75-.99-1.38-1.268-2.022.39-.352.754-.721 1.106-1.082.124-.128.253-.257.381-.385.448-.448.688-.966.688-1.492s-.236-1.044-.688-1.492L6.751 1.902c-.145-.145-.281-.286-.422-.43-.274-.283-.56-.573-.842-.834C5.061.22 4.56 0 4.03 0c-.527 0-1.032.22-1.476.642l-1.55 1.55a3.185 3.185 0 00-.949 2.04c-.078.99.104 2.042.576 3.315.726 1.968 1.82 3.796 3.444 5.748zM1.066 4.318c.05-.55.26-1.01.658-1.409l1.542-1.541c.24-.232.506-.353.763-.353.252 0 .51.12.746.36.277.258.538.527.82.813.141.145.286.29.431.44l1.235 1.234c.257.257.39.518.39.775s-.133.518-.39.775l-.385.39c-.386.39-.746.758-1.144 1.11l-.02.021c-.345.344-.29.672-.208.92l.012.033c.32.767.763 1.497 1.455 2.367 1.243 1.533 2.553 2.723 3.995 3.638.178.117.369.208.547.299.166.083.32.161.456.248.017.009.029.017.046.025.136.07.269.104.401.104.332 0 .548-.211.618-.282l1.55-1.55c.24-.24.501-.369.758-.369.315 0 .572.195.734.37l2.499 2.494c.497.497.493 1.036-.013 1.562-.174.187-.356.365-.55.552-.29.281-.593.572-.867.899-.476.514-1.044.754-1.778.754a3.86 3.86 0 01-.215-.008c-1.36-.087-2.624-.618-3.573-1.07a20.157 20.157 0 01-6.717-5.263c-1.546-1.86-2.586-3.593-3.274-5.45-.427-1.139-.589-2.055-.522-2.888z" fill="#fff"/></svg>