<svg width="21" height="20" fill="none" xmlns="http://www.w3.org/2000/svg"><g clip-path="url(#clip0)"><path d="M10.275 16.25c2.898 0 1.865-1.832 2.088-2.358-.003-.394-.006-.772.007-1.002.184.052.617.27 1.511 1.14 1.381 1.39 1.735 2.22 2.85 2.22h2.054c.65 0 .99-.27 1.159-.495.164-.218.324-.602.149-1.198-.459-1.437-3.13-3.918-3.297-4.18a2.38 2.38 0 01.086-.145h-.001c.527-.696 2.54-3.708 2.836-4.913l.002-.006c.16-.55.013-.907-.139-1.109-.228-.301-.592-.454-1.084-.454h-2.054c-.687 0-1.209.346-1.472.977-.442 1.12-1.682 3.425-2.612 4.241a53.453 53.453 0 01.006-2.694c.03-1.279.127-2.524-1.202-2.524H7.934c-.833 0-1.63.908-.767 1.987.754.945.271 1.471.434 4.093-.634-.68-1.762-2.513-2.56-4.857-.224-.635-.563-1.222-1.517-1.222H1.471c-.833 0-1.33.453-1.33 1.212C.14 6.668 3.92 16.25 10.275 16.25zM3.525 5c.18 0 .199 0 .333.382.817 2.402 2.65 5.957 3.988 5.957 1.006 0 1.006-1.029 1.006-1.417V6.837C8.795 5.818 8.423 5.309 8.178 5l2.928.003c.001.014-.017 3.413.008 4.236 0 1.17.93 1.84 2.38.373 1.532-1.726 2.591-4.306 2.634-4.411.062-.15.116-.201.313-.201h2.064l-.002.008c-.188.875-2.041 3.663-2.661 4.529l-.029.041c-.273.445-.495.937.038 1.629.049.058.175.195.359.385.57.588 2.528 2.6 2.702 3.4-.115.018-.24.005-2.18.009-.414 0-.737-.617-1.97-1.858-1.108-1.077-1.827-1.517-2.482-1.517-1.272 0-1.18 1.03-1.167 2.277.004 1.352-.005.925.005 1.01-.075.029-.287.087-.843.087C4.981 15 1.533 6.607 1.4 5.003c.046-.004.677-.001 2.124-.002z" fill="#fff"/></g><defs><clipPath id="clip0"><path fill="#fff" transform="translate(.14)" d="M0 0h20.028v20H0z"/></clipPath></defs></svg>